<svg class="border shadow-md" viewBox="0 0 1348.5511111111111 758.5600000000001" xmlns="http://www.w3.org/2000/svg" preserveAspectRatio="none" style="width: 1348.55px; height: 758.56px;"><rect class="bg" id="bg" x="0" y="0" width="1348.5511111111111" height="758.5600000000001" fill="#000000"></rect><g transform="rotate(8 674.2755555555556 379.28000000000003)"><path d="M -337.14 638.56 S -259.00 620.56
            0.00 638.56 117.14 604.56
            337.14 638.56 495.71 608.56
            674.28 638.56 832.84 564.56
            1011.41 638.56 1169.98 563.56
            1348.55 638.56 1488.69 560.56
            1685.69 638.56 h 110 V 1358.56 H -337.14 Z" fill="#FFFFFF"></path><path d="M -337.14 145.00 S -178.57 45.00
            0.00 145.00 158.57 82.50
            337.14 145.00 453.28 82.50
            674.28 145.00 785.41 67.00
            1011.41 145.00 1105.55 33.00
            1348.55 145.00 1507.12 82.50
            1685.69 145.00 h 110 V -600 H -337.14 Z" fill="#000000"></path></g></svg>