<svg class="border shadow-md" viewBox="0 0 1348.5511111111111 758.5600000000001" style="width: 1348.55px; height: 758.56px;" xmlns="http://www.w3.org/2000/svg" preserveAspectRatio="none"><rect class="bg" id="bg" x="0" y="0" width="1348.5511111111111" height="758.5600000000001" fill="#ffffff"/><path opacity="0.8" stroke-linecap="round" d="M 47 728 S -313.6377777777778 701.1377777777777 -627.2755555555556 1402.2755555555555 23.5 363.99999999999994 47 727.9999999999999 360.6377777777778 26.862222222222158 721.2755555555556 53.724444444444316" stroke="#A7F3D0" stroke-width="6" fill="none"/><path opacity="0.8" stroke-linecap="round" d="M 958 52 S 141.86222222222221 363.1377777777778 283.72444444444443 726.2755555555556 -195.27555555555557 700.2755555555556 -390.55111111111114 1400.5511111111111 141.86222222222221 363.1377777777778 283.72444444444443 726.2755555555556" stroke="#A7F3D0" stroke-width="6" fill="none"/><path opacity="0.8" stroke-linecap="round" d="M 487 6 S -93.63777777777779 340.1377777777778 -187.27555555555557 680.2755555555556 -430.77555555555557 677.2755555555556 -861.5511111111111 1354.5511111111111 -767.9133333333334 1014.4133333333334 -1535.8266666666668 2028.8266666666668" stroke="#A7F3D0" stroke-width="6" fill="none"/><path opacity="0.8" stroke-linecap="round" d="M 830 196 S 77.86222222222221 435.1377777777778 155.72444444444443 870.2755555555556 415 98 830 196 77.86222222222221 435.1377777777778 155.72444444444443 870.2755555555556" stroke="#A7F3D0" stroke-width="6" fill="none"/><path opacity="0.8" stroke-linecap="round" d="M 296 597 S 485.1377777777778 -38.637777777777785 970.2755555555556 -77.27555555555557 822.2755555555556 -375.77555555555557 1644.5511111111111 -751.5511111111111 485.1377777777778 -38.637777777777785 970.2755555555556 -77.27555555555557" stroke="#A7F3D0" stroke-width="6" fill="none"/><path opacity="0.8" stroke-linecap="round" d="M 834 6 S 79.86222222222221 340.1377777777778 159.72444444444443 680.2755555555556 -257.27555555555557 677.2755555555556 -514.5511111111111 1354.5511111111111 79.86222222222221 340.1377777777778 159.72444444444443 680.2755555555556" stroke="#A7F3D0" stroke-width="6" fill="none"/><path opacity="0.8" stroke-linecap="round" d="M 586 634 S 630.1377777777777 -20.137777777777785 1260.2755555555555 -40.27555555555557 292.99999999999994 317 585.9999999999999 634 -44.13777777777784 654.1377777777777 -88.27555555555568 1308.2755555555555" stroke="#A7F3D0" stroke-width="6" fill="none"/><path opacity="0.8" stroke-linecap="round" d="M 955 165 S 140.36222222222221 419.6377777777778 280.72444444444443 839.2755555555556 -196.77555555555557 756.7755555555556 -393.55111111111114 1513.5511111111111 140.36222222222221 419.6377777777778 280.72444444444443 839.2755555555556" stroke="#A7F3D0" stroke-width="6" fill="none"/><path opacity="0.8" stroke-linecap="round" d="M 245 165 S -214.63777777777779 419.6377777777778 -429.27555555555557 839.2755555555556 122.5 82.5 245 165 -214.63777777777779 419.6377777777778 -429.27555555555557 839.2755555555556" stroke="#A7F3D0" stroke-width="6" fill="none"/><path opacity="0.8" stroke-linecap="round" d="M 268 110 S -203.13777777777779 392.1377777777778 -406.27555555555557 784.2755555555556 -540.2755555555556 729.2755555555556 -1080.5511111111111 1458.5511111111111 -203.13777777777779 392.1377777777778 -406.27555555555557 784.2755555555556" stroke="#A7F3D0" stroke-width="6" fill="none"/><path opacity="0.8" stroke-linecap="round" d="M 774 40 S 49.862222222222215 357.1377777777778 99.72444444444443 714.2755555555556 -287.27555555555557 694.2755555555556 -574.5511111111111 1388.5511111111111 -624.4133333333334 1031.4133333333334 -1248.8266666666668 2062.826666666667" stroke="#A7F3D0" stroke-width="6" fill="none"/><path opacity="0.8" stroke-linecap="round" d="M 911 665 S 118.36222222222221 669.6377777777777 236.72444444444443 1339.2755555555555 -218.77555555555557 1006.7755555555555 -437.55111111111114 2013.551111111111 118.36222222222221 669.6377777777777 236.72444444444443 1339.2755555555555" stroke="#A7F3D0" stroke-width="6" fill="none"/><path opacity="0.8" stroke-linecap="round" d="M 188 616 S -243.13777777777779 645.1377777777777 -486.27555555555557 1290.2755555555555 -580.2755555555556 982.2755555555555 -1160.5511111111111 1964.551111111111 -917.4133333333334 1319.4133333333332 -1834.8266666666668 2638.8266666666664" stroke="#A7F3D0" stroke-width="6" fill="none"/><path opacity="0.8" stroke-linecap="round" d="M 341 218 S 507.6377777777778 -228.13777777777779 1015.2755555555556 -456.27555555555557 170.5 109 341 218 -166.63777777777779 446.1377777777778 -333.27555555555557 892.2755555555556" stroke="#A7F3D0" stroke-width="6" fill="none"/><path opacity="0.8" stroke-linecap="round" d="M 514 131 S -80.13777777777779 402.6377777777778 -160.27555555555557 805.2755555555556 -417.27555555555557 739.7755555555556 -834.5511111111111 1479.5511111111111 -754.4133333333334 1076.9133333333334 -1508.8266666666668 2153.826666666667" stroke="#A7F3D0" stroke-width="6" fill="none"/><path opacity="0.8" stroke-linecap="round" d="M 301 615 S -186.63777777777779 644.6377777777777 -373.27555555555557 1289.2755555555555 -523.7755555555556 981.7755555555555 -1047.5511111111111 1963.551111111111 -860.9133333333334 1318.9133333333332 -1721.8266666666668 2637.8266666666664" stroke="#A7F3D0" stroke-width="6" fill="none"/><path opacity="0.8" stroke-linecap="round" d="M 360 690 S 517.1377777777777 7.862222222222215 1034.2755555555555 15.72444444444443 854.2755555555555 -329.27555555555557 1708.551111111111 -658.5511111111111 1191.4133333333332 -666.4133333333334 2382.8266666666664 -1332.8266666666668" stroke="#A7F3D0" stroke-width="6" fill="none"/><path opacity="0.8" stroke-linecap="round" d="M 280 263 S 477.1377777777778 -205.63777777777779 954.2755555555556 -411.27555555555557 140 131.5 280 263 477.1377777777778 -205.63777777777779 954.2755555555556 -411.27555555555557" stroke="#A7F3D0" stroke-width="6" fill="none"/><path opacity="0.8" stroke-linecap="round" d="M 388 163 S 531.1377777777777 -255.63777777777779 1062.2755555555555 -511.27555555555557 193.99999999999994 81.5 387.9999999999999 163 531.1377777777777 -255.63777777777779 1062.2755555555555 -511.27555555555557" stroke="#A7F3D0" stroke-width="6" fill="none"/><path opacity="0.8" stroke-linecap="round" d="M 577 710 S -48.637777777777785 692.1377777777777 -97.27555555555557 1384.2755555555555 288.5 354.99999999999994 577 709.9999999999999 -48.637777777777785 692.1377777777777 -97.27555555555557 1384.2755555555555" stroke="#A7F3D0" stroke-width="6" fill="none"/><path opacity="0.8" stroke-linecap="round" d="M 14 80 S -330.1377777777778 377.1377777777778 -660.2755555555556 754.2755555555556 -667.2755555555556 714.2755555555556 -1334.5511111111111 1428.5511111111111 -1004.4133333333334 1051.4133333333334 -2008.8266666666668 2102.826666666667" stroke="#A7F3D0" stroke-width="6" fill="none"/><path opacity="0.8" stroke-linecap="round" d="M 28 63 S 351.1377777777778 -305.6377777777778 702.2755555555556 -611.2755555555556 14 31.5 28 63 351.1377777777778 -305.6377777777778 702.2755555555556 -611.2755555555556" stroke="#A7F3D0" stroke-width="6" fill="none"/><path opacity="0.8" stroke-linecap="round" d="M 980 452 S 827.1377777777777 -111.13777777777779 1654.2755555555555 -222.27555555555557 489.99999999999994 226 979.9999999999999 452 827.1377777777777 -111.13777777777779 1654.2755555555555 -222.27555555555557" stroke="#A7F3D0" stroke-width="6" fill="none"/><path opacity="0.8" stroke-linecap="round" d="M 55 260 S 364.6377777777778 -207.13777777777779 729.2755555555556 -414.27555555555557 27.5 130 55 260 -309.6377777777778 467.1377777777778 -619.2755555555556 934.2755555555556" stroke="#A7F3D0" stroke-width="6" fill="none"/><path opacity="0.8" stroke-linecap="round" d="M 320 110 S 497.1377777777778 -282.1377777777778 994.2755555555556 -564.2755555555556 160 55 320 110 497.1377777777778 -282.1377777777778 994.2755555555556 -564.2755555555556" stroke="#A7F3D0" stroke-width="6" fill="none"/><path opacity="0.8" stroke-linecap="round" d="M 286 214 S 480.1377777777778 -230.13777777777779 960.2755555555556 -460.27555555555557 817.2755555555556 -567.2755555555556 1634.5511111111111 -1134.5511111111111 480.1377777777778 -230.13777777777779 960.2755555555556 -460.27555555555557" stroke="#A7F3D0" stroke-width="6" fill="none"/><path opacity="0.8" stroke-linecap="round" d="M 812 545 S 68.86222222222221 609.6377777777777 137.72444444444443 1219.2755555555555 406 272.49999999999994 812 544.9999999999999 68.86222222222221 609.6377777777777 137.72444444444443 1219.2755555555555" stroke="#A7F3D0" stroke-width="6" fill="none"/><path opacity="0.8" stroke-linecap="round" d="M 797 672 S 735.6377777777777 -1.137777777777785 1471.2755555555555 -2.27555555555557 398.49999999999994 336 796.9999999999999 672 735.6377777777777 -1.137777777777785 1471.2755555555555 -2.27555555555557" stroke="#A7F3D0" stroke-width="6" fill="none"/><path opacity="0.8" stroke-linecap="round" d="M 934 296 S 129.86222222222221 485.1377777777778 259.72444444444443 970.2755555555556 467 148 934 296 129.86222222222221 485.1377777777778 259.72444444444443 970.2755555555556" stroke="#A7F3D0" stroke-width="6" fill="none"/><path opacity="0.8" stroke-linecap="round" d="M 484 736 S -95.13777777777779 705.1377777777777 -190.27555555555557 1410.2755555555555 242 367.99999999999994 484 735.9999999999999 -95.13777777777779 705.1377777777777 -190.27555555555557 1410.2755555555555" stroke="#A7F3D0" stroke-width="6" fill="none"/><path opacity="0.8" stroke-linecap="round" d="M 806 398 S 740.1377777777777 -138.13777777777779 1480.2755555555555 -276.27555555555557 1077.2755555555555 -475.27555555555557 2154.551111111111 -950.5511111111111 740.1377777777777 -138.13777777777779 1480.2755555555555 -276.27555555555557" stroke="#A7F3D0" stroke-width="6" fill="none"/><path opacity="0.8" stroke-linecap="round" d="M 690 610 S 682.1377777777777 -32.137777777777785 1364.2755555555555 -64.27555555555557 344.99999999999994 305 689.9999999999999 610 682.1377777777777 -32.137777777777785 1364.2755555555555 -64.27555555555557" stroke="#A7F3D0" stroke-width="6" fill="none"/><path opacity="0.8" stroke-linecap="round" d="M 43 67 S -315.6377777777778 370.6377777777778 -631.2755555555556 741.2755555555556 21.5 33.5 43 67 358.6377777777778 -303.6377777777778 717.2755555555556 -607.2755555555556" stroke="#A7F3D0" stroke-width="6" fill="none"/><path opacity="0.8" stroke-linecap="round" d="M 816 697 S 745.1377777777777 11.362222222222215 1490.2755555555555 22.72444444444443 1082.2755555555555 -325.77555555555557 2164.551111111111 -651.5511111111111 1419.4133333333332 -662.9133333333334 2838.8266666666664 -1325.8266666666668" stroke="#A7F3D0" stroke-width="6" fill="none"/><path opacity="0.8" stroke-linecap="round" d="M 584 446 S 629.1377777777777 -114.13777777777779 1258.2755555555555 -228.27555555555557 291.99999999999994 223 583.9999999999999 446 629.1377777777777 -114.13777777777779 1258.2755555555555 -228.27555555555557" stroke="#A7F3D0" stroke-width="6" fill="none"/><path opacity="0.8" stroke-linecap="round" d="M 646 381 S 660.1377777777777 -146.63777777777779 1320.2755555555555 -293.27555555555557 997.2755555555555 -483.77555555555557 1994.551111111111 -967.5511111111111 660.1377777777777 -146.63777777777779 1320.2755555555555 -293.27555555555557" stroke="#A7F3D0" stroke-width="6" fill="none"/><path opacity="0.8" stroke-linecap="round" d="M 506 61 S -84.13777777777779 367.6377777777778 -168.27555555555557 735.2755555555556 253 30.5 506 61 -84.13777777777779 367.6377777777778 -168.27555555555557 735.2755555555556" stroke="#A7F3D0" stroke-width="6" fill="none"/><path opacity="0.8" stroke-linecap="round" d="M 955 686 S 140.36222222222221 680.1377777777777 280.72444444444443 1360.2755555555555 477.5 342.99999999999994 955 685.9999999999999 814.6377777777777 5.862222222222158 1629.2755555555555 11.724444444444316" stroke="#A7F3D0" stroke-width="6" fill="none"/><path opacity="0.8" stroke-linecap="round" d="M 889 342 S 107.36222222222221 508.1377777777778 214.72444444444443 1016.2755555555556 -229.77555555555557 845.2755555555556 -459.55111111111114 1690.5511111111111 107.36222222222221 508.1377777777778 214.72444444444443 1016.2755555555556" stroke="#A7F3D0" stroke-width="6" fill="none"/><path opacity="0.8" stroke-linecap="round" d="M 905 33 S 789.6377777777777 -320.6377777777778 1579.2755555555555 -641.2755555555556 452.49999999999994 16.5 904.9999999999999 33 115.36222222222216 353.6377777777778 230.72444444444432 707.2755555555556" stroke="#A7F3D0" stroke-width="6" fill="none"/><path opacity="0.8" stroke-linecap="round" d="M 688 188 S 681.1377777777777 -243.13777777777779 1362.2755555555555 -486.27555555555557 1018.2755555555555 -580.2755555555556 2036.551111111111 -1160.5511111111111 1355.4133333333332 -917.4133333333334 2710.8266666666664 -1834.8266666666668" stroke="#A7F3D0" stroke-width="6" fill="none"/><path opacity="0.8" stroke-linecap="round" d="M 780 78 S 727.1377777777777 -298.1377777777778 1454.2755555555555 -596.2755555555556 1064.2755555555555 -635.2755555555556 2128.551111111111 -1270.5511111111111 1401.4133333333332 -972.4133333333334 2802.8266666666664 -1944.8266666666668" stroke="#A7F3D0" stroke-width="6" fill="none"/><path opacity="0.8" stroke-linecap="round" d="M 134 290 S -270.1377777777778 482.1377777777778 -540.2755555555556 964.2755555555556 -607.2755555555556 819.2755555555556 -1214.5511111111111 1638.5511111111111 -944.4133333333334 1156.4133333333334 -1888.8266666666668 2312.826666666667" stroke="#A7F3D0" stroke-width="6" fill="none"/><path opacity="0.8" stroke-linecap="round" d="M 850 7 S 762.1377777777777 -333.6377777777778 1524.2755555555555 -667.2755555555556 1099.2755555555555 -670.7755555555556 2198.551111111111 -1341.5511111111111 1436.4133333333332 -1007.9133333333334 2872.8266666666664 -2015.8266666666668" stroke="#A7F3D0" stroke-width="6" fill="none"/><path opacity="0.8" stroke-linecap="round" d="M 289 502 S -192.63777777777779 588.1377777777777 -385.27555555555557 1176.2755555555555 144.5 250.99999999999994 289 501.9999999999999 481.6377777777778 -86.13777777777784 963.2755555555556 -172.27555555555568" stroke="#A7F3D0" stroke-width="6" fill="none"/><path opacity="0.8" stroke-linecap="round" d="M 963 554 S 818.6377777777777 -60.137777777777785 1637.2755555555555 -120.27555555555557 1155.7755555555555 -397.27555555555557 2311.551111111111 -794.5511111111111 818.6377777777777 -60.137777777777785 1637.2755555555555 -120.27555555555557" stroke="#A7F3D0" stroke-width="6" fill="none"/></svg>