<svg class="border shadow-md" viewBox="0 0 1348.5511111111111 758.5600000000001" style="width: 1348.55px; height: 758.56px;" xmlns="http://www.w3.org/2000/svg" preserveAspectRatio="none"><rect class="bg" id="bg" x="0" y="0" width="1348.5511111111111" height="758.5600000000001" fill="#141414"/><g transform="rotate(46 674.2755555555556 379.28000000000003)"><path d="M -449.52 638.56 S -234.76 617.56&#10;            0.00 638.56 214.76 611.56&#10;            449.52 638.56 664.28 556.56&#10;            899.03 638.56 1113.79 577.56&#10;            1348.55 638.56 1563.31 541.56&#10;            1798.07 638.56 h 110 V 1358.56 H -449.52 Z" fill="#141414"/><path d="M -449.52 145.00 S -234.76 39.00&#10;            0.00 145.00 43.52 82.50&#10;            449.52 145.00 664.28 45.00&#10;            899.03 145.00 1113.79 82.50&#10;            1348.55 145.00 1563.31 50.00&#10;            1798.07 145.00 h 110 V -600 H -449.52 Z" fill="#34D399"/></g></svg>