<svg class="border shadow-md" viewBox="0 0 1348.5511111111111 758.5600000000001" xmlns="http://www.w3.org/2000/svg" preserveAspectRatio="none" style="width: 1348.55px; height: 758.56px;"><rect class="bg" id="bg" x="0" y="0" width="1348.5511111111111" height="758.5600000000001" fill="#000000"></rect><g transform="translate(-474.1 284.46000000000004) scale(1)"><path d="M770.5,604Q624,734,468,744.5Q312,755,181.5,614.5Q51,474,150,279.5Q249,85,438,147.5Q627,210,772,342Q917,474,770.5,604Z" fill="#FFFFFF" stroke="none" stroke-width="10"></path></g><g transform="translate(874.4511111111111 -474.1) scale(1)"><path d="M738.5,636.5Q662,799,484.5,781Q307,763,201.5,618.5Q96,474,209,342Q322,210,493,177.5Q664,145,739.5,309.5Q815,474,738.5,636.5Z" fill="#FFFFFF" stroke="none" stroke-width="10"></path></g></svg>