<?xml version="1.0" standalone="no"?>
<svg viewBox="0 0 200 200" xmlns="http://www.w3.org/2000/svg">
  <path fill="#A7F0BA" d="M29.1,-46.6C42.4,-42.7,61,-44.4,64.8,-37.5C68.5,-30.7,57.4,-15.3,49.6,-4.5C41.8,6.3,37.4,12.7,35.9,23.5C34.4,34.3,36,49.6,30.5,62.3C25,75,12.5,85.2,1.8,82C-8.9,78.9,-17.7,62.4,-27.6,52.3C-37.6,42.1,-48.6,38.3,-51.3,30.6C-54,22.9,-48.5,11.5,-44.6,2.2C-40.7,-7,-38.5,-14,-37.3,-24.2C-36,-34.4,-35.7,-47.8,-29.6,-55.8C-23.5,-63.8,-11.8,-66.4,-1.9,-63.1C7.9,-59.7,15.8,-50.4,29.1,-46.6Z" transform="translate(100 100)" />
</svg>
