<?xml version="1.0" standalone="no"?>
<svg viewBox="0 0 200 200" xmlns="http://www.w3.org/2000/svg">
  <path fill="#9EF0F0" d="M36.7,-67.8C44.1,-59.4,44.1,-42.4,40.5,-29.7C37,-17,29.9,-8.5,32.8,1.7C35.8,11.9,48.8,23.8,51.4,34.8C54,45.8,46,55.9,35.7,52.8C25.4,49.6,12.7,33.3,-0.5,34C-13.6,34.8,-27.3,52.8,-37.8,56.1C-48.3,59.3,-55.7,47.9,-65,36.1C-74.4,24.3,-85.8,12.1,-85.5,0.1C-85.3,-11.8,-73.4,-23.7,-60.7,-29.7C-47.9,-35.6,-34.3,-35.7,-24,-42.4C-13.8,-49.2,-6.9,-62.6,3.9,-69.3C14.7,-76.1,29.4,-76.2,36.7,-67.8Z" transform="translate(100 100)" />
</svg>
