<svg id="Layer_1" data-name="Layer 1" xmlns="http://www.w3.org/2000/svg" viewBox="0 0 740.323 842.489">
  <g>
    <g>
      <g>
        <g>
          <path d="M487.23,55.589H695.96a14.959,14.959,0,0,1,14.959,14.959V222.5a14.952,14.952,0,0,1-14.952,14.952H487.223A14.952,14.952,0,0,1,472.271,222.5V70.548A14.959,14.959,0,0,1,487.23,55.589Z" transform="translate(1183.19 293.042) rotate(-180)" fill="#fff"></path>
          <path d="M471.646,222.493V70.541a15.577,15.577,0,0,1,15.577-15.577H695.967a15.577,15.577,0,0,1,15.577,15.577V222.493a15.584,15.584,0,0,1-15.584,15.584H487.23A15.584,15.584,0,0,1,471.646,222.493ZM487.223,56.214A14.327,14.327,0,0,0,472.9,70.541V222.493a14.334,14.334,0,0,0,14.334,14.334H695.96a14.334,14.334,0,0,0,14.334-14.334V70.541a14.327,14.327,0,0,0-14.327-14.327Z" fill="#292a2e"></path>
        </g>
        <path d="M472.272,70.539V83.2H710.917V70.539a14.952,14.952,0,0,0-14.952-14.952H487.223A14.951,14.951,0,0,0,472.272,70.539Z" fill="#292a2e"></path>
      </g>
      <path d="M553.773,103.666H542.512a.5.5,0,0,1,0-1h11.261a.5.5,0,0,1,0,1Z" fill="#292a2e"></path>
      <g>
        <path d="M534.391,103.666H530.13a.5.5,0,0,1,0-1h4.261a.5.5,0,0,1,0,1Z" fill="#7DCE94"></path>
        <path d="M534.391,112.686H530.13a.5.5,0,0,1,0-1h4.261a.5.5,0,0,1,0,1Z" fill="#7DCE94"></path>
        <path d="M534.391,121.706H530.13a.5.5,0,0,1,0-1h4.261a.5.5,0,0,1,0,1Z" fill="#7DCE94"></path>
        <path d="M534.391,130.726H530.13a.5.5,0,0,1,0-1h4.261a.5.5,0,0,1,0,1Z" fill="#7DCE94"></path>
        <path d="M534.391,139.746H530.13a.5.5,0,0,1,0-1h4.261a.5.5,0,0,1,0,1Z" fill="#7DCE94"></path>
        <path d="M534.391,148.766H530.13a.5.5,0,0,1,0-1h4.261a.5.5,0,0,1,0,1Z" fill="#7DCE94"></path>
        <path d="M534.391,157.786H530.13a.5.5,0,0,1,0-1h4.261a.5.5,0,0,1,0,1Z" fill="#7DCE94"></path>
        <path d="M534.391,166.806H530.13a.5.5,0,0,1,0-1h4.261a.5.5,0,0,1,0,1Z" fill="#7DCE94"></path>
        <path d="M534.391,175.826H530.13a.5.5,0,0,1,0-1h4.261a.5.5,0,0,1,0,1Z" fill="#7DCE94"></path>
        <path d="M534.391,184.846H530.13a.5.5,0,0,1,0-1h4.261a.5.5,0,0,1,0,1Z" fill="#7DCE94"></path>
        <path d="M534.391,193.866H530.13a.5.5,0,0,1,0-1h4.261a.5.5,0,0,1,0,1Z" fill="#7DCE94"></path>
        <path d="M534.391,202.886H530.13a.5.5,0,0,1,0-1h4.261a.5.5,0,0,1,0,1Z" fill="#7DCE94"></path>
        <path d="M534.391,211.906H530.13a.5.5,0,0,1,0-1h4.261a.5.5,0,0,1,0,1Z" fill="#7DCE94"></path>
        <path d="M534.391,220.927H530.13a.5.5,0,0,1,0-1h4.261a.5.5,0,0,1,0,1Z" fill="#7DCE94"></path>
      </g>
      <path d="M562.773,112.686H552.512a.5.5,0,0,1,0-1h10.261a.5.5,0,0,1,0,1Z" fill="#292a2e"></path>
      <path d="M553.773,166.806H542.512a.5.5,0,0,1,0-1h11.261a.5.5,0,0,1,0,1Z" fill="#292a2e"></path>
      <path d="M562.773,175.826H552.512a.5.5,0,0,1,0-1h10.261a.5.5,0,0,1,0,1Z" fill="#292a2e"></path>
      <g>
        <path d="M620.773,121.706H559.512a.5.5,0,0,1,0-1h61.261a.5.5,0,0,1,0,1Z" fill="#292a2e"></path>
        <path d="M674.86,121.706H631.6a.5.5,0,0,1,0-1H674.86a.5.5,0,0,1,0,1Z" fill="#0cbc8b"></path>
        <path d="M698.076,121.706h-13.26a.5.5,0,0,1,0-1h13.26a.5.5,0,0,1,0,1Z" fill="#292a2e"></path>
      </g>
      <g>
        <path d="M650.773,139.746H559.512a.5.5,0,0,1,0-1h91.261a.5.5,0,0,1,0,1Z" fill="#292a2e"></path>
        <path d="M674.86,139.746H661.6a.5.5,0,0,1,0-1H674.86a.5.5,0,0,1,0,1Z" fill="#7DCE94"></path>
      </g>
      <g>
        <path d="M570.773,130.726H559.512a.5.5,0,0,1,0-1h11.261a.5.5,0,0,1,0,1Z" fill="#0cbc8b"></path>
        <path d="M644.86,130.726H581.6a.5.5,0,0,1,0-1H644.86a.5.5,0,0,1,0,1Z" fill="#7DCE94"></path>
        <path d="M698.163,130.726H656.9a.5.5,0,0,1,0-1h41.261a.5.5,0,0,1,0,1Z" fill="#292a2e"></path>
      </g>
      <g>
        <path d="M620.773,148.766H559.512a.5.5,0,0,1,0-1h61.261a.5.5,0,0,1,0,1Z" fill="#292a2e"></path>
        <path d="M654.86,148.766H631.6a.5.5,0,0,1,0-1H654.86a.5.5,0,0,1,0,1Z" fill="#0cbc8b"></path>
        <path d="M698.076,148.766h-33.26a.5.5,0,0,1,0-1h33.26a.5.5,0,0,1,0,1Z" fill="#292a2e"></path>
      </g>
      <g>
        <path d="M570.773,157.786H559.512a.5.5,0,0,1,0-1h11.261a.5.5,0,0,1,0,1Z" fill="#7DCE94"></path>
        <path d="M644.86,157.786H581.6a.5.5,0,0,1,0-1H644.86a.5.5,0,0,1,0,1Z" fill="#0cbc8b"></path>
      </g>
      <g>
        <path d="M618.773,193.866H557.512a.5.5,0,0,1,0-1h61.261a.5.5,0,0,1,0,1Z" fill="#292a2e"></path>
        <path d="M672.86,193.866H629.6a.5.5,0,0,1,0-1H672.86a.5.5,0,0,1,0,1Z" fill="#7DCE94"></path>
      </g>
      <g>
        <path d="M588.773,184.846H557.512a.5.5,0,0,1,0-1h31.261a.5.5,0,0,1,0,1Z" fill="#0cbc8b"></path>
        <path d="M642.86,184.846H599.6a.5.5,0,0,1,0-1H642.86a.5.5,0,0,1,0,1Z" fill="#7DCE94"></path>
        <path d="M696.163,184.846H654.9a.5.5,0,0,1,0-1h41.261a.5.5,0,0,1,0,1Z" fill="#292a2e"></path>
      </g>
      <g>
        <path d="M648.773,211.907H557.512a.5.5,0,0,1,0-1h91.261a.5.5,0,0,1,0,1Z" fill="#7DCE94"></path>
        <path d="M672.86,211.907H659.6a.5.5,0,0,1,0-1H672.86a.5.5,0,0,1,0,1Z" fill="#292a2e"></path>
      </g>
      <g>
        <path d="M568.773,202.887H557.512a.5.5,0,0,1,0-1h11.261a.5.5,0,0,1,0,1Z" fill="#7DCE94"></path>
        <path d="M642.86,202.887H579.6a.5.5,0,0,1,0-1H642.86a.5.5,0,0,1,0,1Z" fill="#292a2e"></path>
        <path d="M696.163,202.887H654.9a.5.5,0,0,1,0-1h41.261a.5.5,0,0,1,0,1Z" fill="#0cbc8b"></path>
      </g>
      <g>
        <path d="M618.773,220.927H557.512a.5.5,0,0,1,0-1h61.261a.5.5,0,0,1,0,1Z" fill="#0cbc8b"></path>
        <path d="M652.86,220.927H629.6a.5.5,0,0,1,0-1H652.86a.5.5,0,0,1,0,1Z" fill="#292a2e"></path>
        <path d="M696.076,220.927h-33.26a.5.5,0,0,1,0-1h33.26a.5.5,0,0,1,0,1Z" fill="#7DCE94"></path>
      </g>
      <path d="M525.381,230.579a.5.5,0,0,1-.5-.5V87.92a.5.5,0,1,1,1,0V230.079A.5.5,0,0,1,525.381,230.579Z" fill="#292a2e"></path>
      <circle cx="692.838" cy="70.395" r="8.022" fill="#fff"></circle>
      <g>
        <path d="M502.512,94.166H480.86a.5.5,0,0,1,0-1h21.652a.5.5,0,0,1,0,1Z" fill="#292a2e"></path>
        <path d="M495.989,104.028H480.86a.5.5,0,0,1,0-1h15.129a.5.5,0,0,1,0,1Z" fill="#292a2e"></path>
        <path d="M509.294,113.89H480.86a.5.5,0,0,1,0-1h28.434a.5.5,0,0,1,0,1Z" fill="#292a2e"></path>
        <path d="M514.6,123.752H490.86a.5.5,0,0,1,0-1H514.6a.5.5,0,0,1,0,1Z" fill="#292a2e"></path>
        <path d="M503.12,133.615H490.86a.5.5,0,0,1,0-1h12.26a.5.5,0,0,1,0,1Z" fill="#292a2e"></path>
        <path d="M512.512,143.477H490.86a.5.5,0,0,1,0-1h21.652a.5.5,0,0,1,0,1Z" fill="#292a2e"></path>
        <path d="M497.555,153.339H480.86a.5.5,0,0,1,0-1h16.695a.5.5,0,0,1,0,1Z" fill="#292a2e"></path>
        <path d="M491.816,163.2H480.86a.5.5,0,0,1,0-1h10.956a.5.5,0,1,1,0,1Z" fill="#292a2e"></path>
      </g>
      <g>
        <path d="M533.711,92.05v.18l6.25,2.32a.482.482,0,0,1,.3.45v.17a.443.443,0,0,1-.2.38.462.462,0,0,1-.441.05l-7.059-2.76a.477.477,0,0,1-.3-.44v-.51a.467.467,0,0,1,.3-.44l7.059-2.77a.566.566,0,0,1,.18-.03.5.5,0,0,1,.261.08.461.461,0,0,1,.2.39v.17a.458.458,0,0,1-.3.44Z" fill="#7DCE94"></path>
        <path d="M546.1,86.64l-3.74,11.45a.474.474,0,0,1-.45.33.442.442,0,0,1-.37-.19.479.479,0,0,1-.079-.42L545.2,86.37a.494.494,0,0,1,.46-.34.452.452,0,0,1,.37.19A.458.458,0,0,1,546.1,86.64Z" fill="#7DCE94"></path>
        <path d="M555.284,91.89v.51a.468.468,0,0,1-.29.44l-7.07,2.76a.444.444,0,0,1-.43-.05.453.453,0,0,1-.21-.38V95a.476.476,0,0,1,.31-.45l6.25-2.32v-.18l-6.25-2.32a.453.453,0,0,1-.31-.44v-.17a.471.471,0,0,1,.21-.39.5.5,0,0,1,.26-.08.467.467,0,0,1,.17.03l7.07,2.77A.459.459,0,0,1,555.284,91.89Z" fill="#7DCE94"></path>
      </g>
    </g>
    <g>
      <rect id="c_3_c" x="61.675" width="352.225" height="352.225" fill="#f4f4f4"></rect>
      <rect id="c_3_c-2" data-name="c_3_c" x="57.638" width="4.037" height="352.225" fill="#f4f4f4"></rect>
      <rect id="c_3_c-3" data-name="c_3_c" x="57.638" width="4.037" height="352.225" fill="#292a2e" opacity="0.05"></rect>
      <polygon id="c_3_c-4" data-name="c_3_c" points="147.003 242.712 147.003 150.558 222.491 150.558 222.491 204.098 339.421 204.098 339.421 298.895 389.118 298.895 389.118 352.225 339.421 352.225 329.847 352.225 78.619 352.225 78.619 242.712 147.003 242.712" fill="#292a2e" opacity="0.05"></polygon>
      <g id="c_3_wh">
        <rect id="c_3_wh-2" data-name="c_3_wh" x="157.83" y="160.564" width="54.971" height="10.006" fill="#fffffa" opacity="0.34"></rect>
        <rect id="c_3_wh-3" data-name="c_3_wh" x="157.83" y="181.298" width="54.971" height="10.006" fill="#fffffa" opacity="0.34"></rect>
        <rect id="c_3_wh-4" data-name="c_3_wh" x="157.83" y="202.032" width="54.971" height="10.006" fill="#fffffa" opacity="0.34"></rect>
      </g>
      <g id="c_3_wh-5" data-name="c_3_wh">
        <rect id="c_3_wh-6" data-name="c_3_wh" x="88.366" y="252.424" width="10.132" height="10.006" fill="#fffffa" opacity="0.34"></rect>
        <rect id="c_3_wh-7" data-name="c_3_wh" x="88.366" y="273.158" width="10.132" height="10.006" fill="#fffffa" opacity="0.34"></rect>
        <rect id="c_3_wh-8" data-name="c_3_wh" x="88.366" y="293.893" width="10.132" height="10.006" fill="#fffffa" opacity="0.34"></rect>
        <rect id="c_3_wh-9" data-name="c_3_wh" x="107.11" y="252.424" width="10.132" height="10.006" fill="#fffffa" opacity="0.34"></rect>
        <rect id="c_3_wh-10" data-name="c_3_wh" x="107.11" y="273.158" width="10.132" height="10.006" fill="#fffffa" opacity="0.34"></rect>
        <rect id="c_3_wh-11" data-name="c_3_wh" x="107.11" y="293.893" width="10.132" height="10.006" fill="#fffffa" opacity="0.34"></rect>
        <rect id="c_3_wh-12" data-name="c_3_wh" x="125.348" y="252.424" width="10.132" height="10.006" fill="#fffffa" opacity="0.34"></rect>
        <rect id="c_3_wh-13" data-name="c_3_wh" x="125.348" y="273.158" width="10.132" height="10.006" fill="#fffffa" opacity="0.34"></rect>
        <rect id="c_3_wh-14" data-name="c_3_wh" x="125.348" y="293.893" width="10.132" height="10.006" fill="#fffffa" opacity="0.34"></rect>
      </g>
      <polygon points="61.675 174.137 132.549 174.137 132.549 0 138.41 0 138.41 174.137 329.847 174.137 329.847 0 335.708 0 335.708 174.137 413.9 174.137 413.9 179.998 335.708 179.998 335.708 352.225 329.847 352.225 329.847 179.998 138.41 179.998 138.41 352.225 132.549 352.225 132.549 179.998 61.675 179.998 61.675 174.137" fill="#fff"></polygon>
      <rect id="c_3_c-5" data-name="c_3_c" x="47.644" y="351.8" width="380.288" height="11.714" fill="#f4f4f4"></rect>
      <rect id="c_3_c-6" data-name="c_3_c" x="47.644" y="351.8" width="380.288" height="11.714" fill="#292a2e" opacity="0.1"></rect>
      <rect id="c_3_c-7" data-name="c_3_c" x="42.153" y="351.8" width="5.491" height="11.714" fill="#292a2e" opacity="0.1"></rect>
      <rect id="c_3_c-8" data-name="c_3_c" x="42.153" y="351.8" width="5.491" height="11.714" fill="#292a2e" opacity="0.1"></rect>
      <g>
        <rect x="57.638" y="6.288" width="356.262" height="8.709" transform="translate(471.538 21.284) rotate(-180)" fill="#fff"></rect>
        <rect x="57.638" y="22.554" width="356.262" height="8.709" transform="translate(471.538 53.818) rotate(-180)" fill="#fff"></rect>
        <rect x="57.638" y="38.821" width="356.262" height="8.709" transform="translate(471.538 86.352) rotate(-180)" fill="#fff"></rect>
        <rect x="57.638" y="55.088" width="356.262" height="8.709" transform="translate(471.538 118.886) rotate(-180)" fill="#fff"></rect>
        <rect x="57.638" y="71.355" width="356.262" height="8.709" transform="translate(471.538 151.419) rotate(-180)" fill="#fff"></rect>
      </g>
      <rect x="95.478" width="5.339" height="89.887" transform="translate(196.294 89.887) rotate(-180)" fill="#fff"></rect>
      <circle cx="97.694" cy="95.461" r="7.335" fill="#fff"></circle>
    </g>
    <g>
      <g>
        <polygon points="60.748 841.816 58.784 841.438 89.48 536.407 91.444 536.785 60.748 841.816" fill="#494949"></polygon>
        <polygon points="175.046 841.816 173.082 841.438 203.777 536.407 205.741 536.785 175.046 841.816" fill="#494949"></polygon>
        <g>
          <polygon points="427.694 841.816 429.658 841.438 398.962 536.407 396.998 536.785 427.694 841.816" fill="#494949"></polygon>
          <polygon points="313.396 841.816 315.36 841.438 284.665 536.407 282.701 536.785 313.396 841.816" fill="#494949"></polygon>
        </g>
        <rect x="279.667" y="401.696" width="2" height="135.496" transform="translate(-59.662 41.276) rotate(-7.605)" fill="#494949"></rect>
        <rect x="73.843" y="401.696" width="2" height="135.496" transform="translate(-61.473 14.035) rotate(-7.605)" fill="#494949"></rect>
        <g>
          <rect x="79.293" y="526.761" width="220.99" height="19.671" rx="9.835" fill="#292a2e"></rect>
          <rect x="79.293" y="526.761" width="220.99" height="19.671" rx="9.835" fill="#fff" opacity="0.8"></rect>
          <path d="M290.448,547.431H89.129a10.835,10.835,0,1,1,0-21.67H290.448a10.835,10.835,0,1,1,0,21.67ZM89.129,527.761a8.835,8.835,0,1,0,0,17.67H290.448a8.835,8.835,0,1,0,0-17.67Z" fill="#292a2e"></path>
        </g>
        <g>
          <rect x="189.789" y="526.761" width="220.99" height="19.671" rx="9.835" fill="#fff"></rect>
          <path d="M400.944,547.431H199.624a10.835,10.835,0,1,1,0-21.67h201.32a10.835,10.835,0,1,1,0,21.67Zm-201.32-19.67a8.835,8.835,0,1,0,0,17.67h201.32a8.835,8.835,0,1,0,0-17.67Z" fill="#292a2e"></path>
        </g>
        <g>
          <path d="M261.66,402.292H66.413a13.146,13.146,0,0,1-13.035-11.448L40.463,291.665A13.145,13.145,0,0,1,53.5,276.823H248.745A13.145,13.145,0,0,1,261.78,288.27l12.914,99.18A13.144,13.144,0,0,1,261.66,402.292Z" fill="#292a2e"></path>
          <path d="M261.66,402.292H66.413a13.146,13.146,0,0,1-13.035-11.448L40.463,291.665A13.145,13.145,0,0,1,53.5,276.823H248.745A13.145,13.145,0,0,1,261.78,288.27l12.914,99.18A13.144,13.144,0,0,1,261.66,402.292Z" fill="#fff" opacity="0.8"></path>
          <path d="M261.66,403.292H66.413a14.182,14.182,0,0,1-14.027-12.319L39.472,291.794A14.144,14.144,0,0,1,53.5,275.822H248.745a14.18,14.18,0,0,1,14.026,12.319l12.915,99.18a14.144,14.144,0,0,1-14.026,15.971ZM53.5,277.822a12.145,12.145,0,0,0-12.043,13.713l12.915,99.18a12.175,12.175,0,0,0,12.043,10.577H261.66A12.145,12.145,0,0,0,273.7,387.579L260.788,288.4a12.176,12.176,0,0,0-12.043-10.577Z" fill="#292a2e"></path>
        </g>
        <g>
          <path d="M272.7,402.292H77.453a13.145,13.145,0,0,1-13.034-11.448L51.5,291.665a13.145,13.145,0,0,1,13.035-14.842H259.786A13.144,13.144,0,0,1,272.82,288.27l12.915,99.18A13.145,13.145,0,0,1,272.7,402.292Z" fill="#fff"></path>
          <path d="M272.7,403.292H77.453a14.181,14.181,0,0,1-14.026-12.319L50.512,291.794a14.146,14.146,0,0,1,14.027-15.972H259.785a14.182,14.182,0,0,1,14.027,12.319l12.915,99.18A14.146,14.146,0,0,1,272.7,403.292ZM64.539,277.822A12.146,12.146,0,0,0,52.5,291.536L65.41,390.715a12.177,12.177,0,0,0,12.043,10.577H272.7a12.145,12.145,0,0,0,12.043-13.713L271.828,288.4a12.175,12.175,0,0,0-12.043-10.577Z" fill="#292a2e"></path>
        </g>
      </g>
      <g>
        <rect x="443.553" y="423.977" width="2" height="419.473" transform="translate(-61.436 47.885) rotate(-5.768)" fill="#494949"></rect>
        <g>
          <path d="M251.659,124.563s12.974-9.793,16.189-32.335c2.489-17.453-13.611-6.146-13.611-6.146s1.67-12.585-7.5-11.336-14.3,14.469-14.3,14.469" fill="#0c0c0c"></path>
          <path d="M199.348,76.219S153.853,81.1,170.3,142.744l4.026.27,8.172.548" fill="#0c0c0c"></path>
          <path id="sk" d="M244.039,207.126c-.2-.026-2.42,36.8-45.206,33.593-29.62-2.219-40.181-33.645-40.86-33.645,3.194-.678,7.14-1.709,8.709-2.062A17.279,17.279,0,0,0,179.9,190.48c.867-5.22-.6-31.928-.151-37.21l45.467,10.148c-.635,11.156-5.082,37.017,10.5,41.594C238.313,205.769,241.106,206.465,244.039,207.126Z" fill="#FAA896"></path>
          <path id="sh" d="M225.855,194.443a32.94,32.94,0,0,1-1.368-7.057,75.226,75.226,0,0,1,.3-16.413,49.848,49.848,0,0,1-25.129-11.009c-.844,3.118-5.487,16.742-4.2,19.705C197.883,185.271,209.3,194.443,225.855,194.443Z" fill="#0c0c0c" opacity="0.52"></path>
          <path d="M216.471,187.154c-17.938-1.609-39.407-12.942-39.716-37.291l-.28-21.97c-.309-24.348,12.228-44.249,35.154-44.541h0c22.925-.291,40.312,19.229,40.621,43.578l.124,9.726a73.524,73.524,0,0,1-.729,9.983c-1.176,8.75-3,22.053-8.937,31.052C237.1,186.187,227.93,188.181,216.471,187.154Z" fill="#FAA896"></path>
          <path d="M224.793,164.9a23.642,23.642,0,0,0,10.77-2.057.578.578,0,1,0-.454-1.064c-7.28,3.105-13.891,2.65-19.117-1.315a3.633,3.633,0,0,0-.329-.233.579.579,0,0,0-.575,1c.042.026.109.079.2.152A17.35,17.35,0,0,0,224.793,164.9Z" fill="#0c0c0c"></path>
          <path d="M224.62,170.383a11.752,11.752,0,0,0,2.006-.048.578.578,0,0,0-.122-1.15c-4.007.426-5.919-1.41-6-1.489a.578.578,0,0,0-.819.817A7.842,7.842,0,0,0,224.62,170.383Z" fill="#0c0c0c"></path>
          <circle cx="244.679" cy="138.514" r="2.824" fill="#0c0c0c"></circle>
          <circle cx="217.091" cy="136.783" r="2.824" fill="#0c0c0c"></circle>
          <path d="M178.273,157.263c-6.967.089-12.709-7.293-12.8-14.26s5.51-10.881,12.477-10.969l3.649,4.622,2.662,20.531Z" fill="#FAA896"></path>
          <g>
            <path d="M185.2,146.068s2.353-34.453,12.8-36.581c6.958-1.417,23.831,8.453,39.459,5.472,6.838-1.3,13.329.388,13.989,3.618.261,1.279,4.521-17.1-6.186-31.044-8.525-11.105-36.423-14.24-49.115-10.6-35.143,10.082-19.635,56.617-19.635,56.617l1.567,11.878Z" fill="#0c0c0c"></path>
            <path d="M229,156.767l.045,0c2.245-.023,6.008-.311,5.993-1.991-.015-1.392-3.975-16.375-4.428-18.079a.572.572,0,0,0-1.105.293c1.759,6.636,4.379,16.852,4.39,17.8-.217.4-2.536.812-4.861.836a.572.572,0,0,0-.034,1.142Z" fill="#0c0c0c"></path>
            <path d="M236.664,123.2a13.584,13.584,0,0,1,7.21,0,11.969,11.969,0,0,1,3.28,1.436,14.039,14.039,0,0,1,2.739,2.236.832.832,0,0,1-1.131,1.22l-.051-.044a12.28,12.28,0,0,0-2.5-1.789,10.046,10.046,0,0,0-2.837-1.036,11.336,11.336,0,0,0-5.877.329l-.08.028a1.251,1.251,0,0,1-.834-2.359Z" fill="#0c0c0c"></path>
            <path d="M219.956,124.619a11.327,11.327,0,0,0-5.78-1.109,10.019,10.019,0,0,0-2.95.648,12.294,12.294,0,0,0-2.712,1.44l-.054.036a.833.833,0,0,1-.962-1.358,14.059,14.059,0,0,1,3.013-1.852,12.027,12.027,0,0,1,3.442-.986,13.577,13.577,0,0,1,7.147.958,1.251,1.251,0,0,1-1,2.3l-.069-.033Z" fill="#0c0c0c"></path>
          </g>
          <ellipse cx="230.435" cy="85.74" rx="9.539" ry="14.04" transform="translate(-12.665 48.94) rotate(-11.801)" fill="#0c0c0c"></ellipse>
        </g>
        <g>
          <path d="M520.921,789.739s5.362,27.793,31.384,29.342,20.38,22.28,20.38,22.28H473.241V791.677Z" fill="#7DCE94"></path>
          <path d="M331.733,772.191s-7.457,27.306,15.21,40.182,8.452,28.988,8.452,28.988l-89.232-43.9,21.931-44.582Z" fill="#7DCE94"></path>
          <g>
            <path d="M276.466,764.478l75.249-237.39h-136.4c-27.4,0-38.822-23.235-38.822-50.633s26.936-51.416,54.334-51.416H414.917c16.711,0,35.449,10.22,44.621,24.19s6.692,35.617.047,50.951l-120.5,292.666" fill="#262626"></path>
            <path d="M276.466,764.478l75.249-237.39h-136.4c-27.4,0-38.822-23.235-38.822-50.633s26.936-51.416,54.334-51.416H414.917c16.711,0,35.449,10.22,44.621,24.19s6.692,35.617.047,50.951l-120.5,292.666" fill="#0a0a0a" opacity="0.8"></path>
            <path d="M467.522,815.55,341.7,527.088l-165.209-.011c-38.711-3.035-56.44-24.25-55.876-51.642.556-27.045,14.25-53.758,41.173-53.758H384.46c19.92.409,35.592,22.423,42.982,40.925l104.6,335.288" fill="#262626"></path>
            <path d="M109.347,422.008s-7.337,47.846,4.293,74.447c14.519,33.21,68.947,30.622,68.947,30.622l-3.067-105.4Z" fill="#262626"></path>
          </g>
        </g>
        <path d="M432.176,421.067l-116.7-24.182a29.529,29.529,0,0,1-21.616-18.438l-45.9-120.953a29.529,29.529,0,1,1,55.215-20.954l40.152,105.8,100.835,20.894S434.2,421.486,432.176,421.067Z" fill="#7DCE94"></path>
        <path d="M297.2,288.209c-1.347,15.833-10.9,114.61-12.2,134.112H109.424c-1.009-17.589-4.284-92.266-8.11-126.661-3.651-32.822-4.976-51.552-.77-61.751,7.418-17.99,25.981-24.463,41.971-26.628,9.763-1.321,24.448-2.269,24.448-2.269s1.244,25.153,30.892,26.553c40.359,1.9,37.664-26.553,37.864-26.553,6.538,0,42.128,4.755,51.027,10.555,12.57,8.193,16.284,19.357,16.431,29.614C303.346,256.992,298.728,270.253,297.2,288.209Z" fill="#7DCE94"></path>
        <path d="M290.3,368.921l-.042,0a.5.5,0,0,1-.457-.54l4.558-54.754a.487.487,0,0,1,.539-.457.5.5,0,0,1,.457.54l-4.558,54.754A.5.5,0,0,1,290.3,368.921Z" fill="#0c0c0c"></path>
        <g>
          <path d="M373.919,401.783l38.524-118.424A10.365,10.365,0,0,1,422.3,276.2H589.252a10.365,10.365,0,0,1,9.857,13.572L550.585,408.2a10.366,10.366,0,0,1-9.857,7.159H383.776A10.365,10.365,0,0,1,373.919,401.783Z" fill="#292a2e"></path>
          <path d="M373.919,401.783l38.524-118.424A10.365,10.365,0,0,1,422.3,276.2H589.252a10.365,10.365,0,0,1,9.857,13.572L550.585,408.2a10.366,10.366,0,0,1-9.857,7.159H383.776A10.365,10.365,0,0,1,373.919,401.783Z" fill="#292a2e"></path>
          <rect x="295.541" y="405.752" width="114.544" height="9.602" rx="4.74" fill="#292a2e"></rect>
          <rect x="295.541" y="405.752" width="114.544" height="9.602" rx="4.74" fill="#292a2e"></rect>
          <circle cx="481.514" cy="351.555" r="16.461" fill="#fff"></circle>
        </g>
        <g id="b_4_ha">
          <path d="M365.137,374.042l-26.221-9.191,3.764-.26a4.807,4.807,0,0,0,4.38-4.888,4.631,4.631,0,0,0-5.128-4.347l-46.391,4.93,1.2,14.908a23.321,23.321,0,0,0,16.27,20.374l20.09,6.258a4.743,4.743,0,0,0,5.609-2.133,4.633,4.633,0,0,0-.728-5.441.4.4,0,0,0,.081-.576l3.7,1.161a4.806,4.806,0,0,0,5.972-2.72,4.628,4.628,0,0,0-2-5.611.388.388,0,0,0,.114-.092l1.522.477a4.742,4.742,0,0,0,5.609-2.134,4.635,4.635,0,0,0-1.68-6.2.382.382,0,0,0,.014-.094l10.92,3.827a4.368,4.368,0,1,0,2.889-8.244Z" fill="#FAA896"></path>
          <path id="b_4_ha_sh" d="M350.9,378.886a.463.463,0,0,1-.149-.026l-10.562-3.841a.435.435,0,0,1,.3-.818l10.563,3.841a.435.435,0,0,1-.149.844Z" fill="#0a0a0a" opacity="0.2"></path>
          <path id="b_4_ha_sh-2" data-name="b_4_ha_sh" d="M345.559,386.565a.44.44,0,0,1-.146-.025l-8.325-2.954a.435.435,0,1,1,.29-.82l8.326,2.954a.435.435,0,0,1-.145.845Z" fill="#0a0a0a" opacity="0.2"></path>
          <path id="b_4_ha_sh-3" data-name="b_4_ha_sh" d="M337.719,394.358a.447.447,0,0,1-.155-.029l-3.9-1.487a.435.435,0,0,1,.311-.813l3.9,1.487a.435.435,0,0,1-.155.842Z" fill="#0a0a0a" opacity="0.2"></path>
        </g>
        <path d="M316.074,351.463l-110-.074L164.46,249.877l-62.078,26.1L154.3,396.456l.507,1.2a31.135,31.135,0,0,0,30.4,18.691l132.528-7.829Z" fill="#7DCE94"></path>
        <path d="M183.386,416.9a31.739,31.739,0,0,1-29.035-19.046l-.508-1.2L109.6,294l.918-.4,44.75,103.861a30.731,30.731,0,0,0,29.91,18.387l132.043-7.8-1.636-56.083-109.848-.074-32-78.053.926-.378,31.743,77.431,110.15.075,1.693,58.023-.485.029L185.24,416.845C184.621,416.882,184,416.9,183.386,416.9Z" fill="#0c0c0c"></path>
      </g>
      <g>
        <g>
          <g>
            <rect x="-168.8" y="632.714" width="419.473" height="2" transform="translate(-593.681 610.713) rotate(-84.228)" fill="#494949"></rect>
            <rect x="5.498" y="632.714" width="419.473" height="2" transform="translate(-436.912 784.127) rotate(-84.228)" fill="#494949"></rect>
          </g>
          <rect x="617.851" y="423.977" width="2" height="419.473" transform="translate(-60.554 65.402) rotate(-5.768)" fill="#494949"></rect>
        </g>
        <g>
          <rect x="17.587" y="416.845" width="627.391" height="16.387" rx="8.194" fill="#292a2e"></rect>
          <rect x="17.587" y="416.845" width="627.391" height="16.387" rx="8.194" fill="#fff" opacity="0.8"></rect>
          <path d="M636.785,434.232h-611a9.194,9.194,0,1,1,0-18.387h611a9.194,9.194,0,1,1,0,18.387Zm-611-16.387a7.194,7.194,0,1,0,0,14.387h611a7.194,7.194,0,1,0,0-14.387Z" fill="#292a2e"></path>
        </g>
        <g>
          <rect x="198.548" y="416.845" width="446.43" height="16.387" rx="8.194" fill="#fff"></rect>
          <path d="M636.785,434.232H206.742a9.194,9.194,0,0,1,0-18.387H636.785a9.194,9.194,0,1,1,0,18.387ZM206.742,417.845a7.194,7.194,0,0,0,0,14.387H636.785a7.194,7.194,0,1,0,0-14.387Z" fill="#292a2e"></path>
        </g>
      </g>
    </g>
    <g>
      <path d="M653.265,709.44a.993.993,0,0,1-.707-.293c-1.409-1.408-3.706-27.258-9.892-104.223-2.531-31.492-4.922-61.238-6.667-79.315-.124-1.291-.625-1.441-.789-1.49-2.389-.721-9.652,5.006-13.707,10.022a1,1,0,0,1-1.556-1.258c2.682-3.316,11.422-12.009,15.838-10.68.89.268,2,1.042,2.205,3.214,1.747,18.093,4.138,47.847,6.67,79.347,3.759,46.77,8.017,99.756,9.417,103.093a1,1,0,0,1-.812,1.583Z" fill="#494949"></path>
      <ellipse cx="615.668" cy="536.626" rx="38.507" ry="28.398" transform="translate(-200.348 502.979) rotate(-38.715)" fill="#0cbc8b"></ellipse>
      <ellipse cx="615.668" cy="536.626" rx="38.507" ry="28.398" transform="translate(-200.348 502.979) rotate(-38.715)" fill="#fff" opacity="0.2"></ellipse>
      <path d="M590.275,563.819a.5.5,0,0,1-.385-.819l47.291-57.029a.5.5,0,0,1,.77.639L590.66,563.639A.5.5,0,0,1,590.275,563.819Z" fill="#fff"></path>
      <path d="M663.579,697.215a1,1,0,0,1-.944-1.329L680.4,644.8a9.5,9.5,0,0,1,15.528-3.748l9.392,8.971a1,1,0,0,1-1.382,1.447l-9.391-8.972a7.5,7.5,0,0,0-12.259,2.959l-17.763,51.087A1,1,0,0,1,663.579,697.215Z" fill="#494949"></path>
      <ellipse cx="707.658" cy="648.108" rx="28.398" ry="38.507" transform="translate(-249.456 579.138) rotate(-38.363)" fill="#0cbc8b"></ellipse>
      <path d="M645.2,706.182a1,1,0,0,1-.972-.767L614.412,580.77a4.751,4.751,0,0,0-8.212-2l-9.19,10.62a1,1,0,1,1-1.512-1.309l9.189-10.619a6.751,6.751,0,0,1,11.671,2.848l29.81,124.644a1,1,0,0,1-.74,1.2A.981.981,0,0,1,645.2,706.182Z" fill="#494949"></path>
      <ellipse cx="606.213" cy="612.236" rx="38.507" ry="28.398" transform="translate(-100.363 1105.264) rotate(-80.189)" fill="#0cbc8b"></ellipse>
      <path d="M653.266,709.44a1.014,1.014,0,0,1-.123-.007,1,1,0,0,1-.871-1.115l19.036-154.557a8.807,8.807,0,0,1,15.342-4.753l21.758,24.643a1,1,0,1,1-1.5,1.324l-21.758-24.643a6.806,6.806,0,0,0-11.857,3.673L654.258,708.562A1,1,0,0,1,653.266,709.44Z" fill="#494949"></path>
      <ellipse cx="697.028" cy="568.708" rx="28.398" ry="38.507" transform="translate(-138.003 903.37) rotate(-61.051)" fill="#0cbc8b"></ellipse>
      <ellipse cx="707.658" cy="648.108" rx="28.398" ry="38.507" transform="translate(-249.456 579.138) rotate(-38.363)" fill="#fff" opacity="0.2"></ellipse>
      <ellipse cx="606.213" cy="612.236" rx="38.507" ry="28.398" transform="translate(-100.363 1105.264) rotate(-80.189)" fill="#fff" opacity="0.5"></ellipse>
      <ellipse cx="697.028" cy="568.708" rx="28.398" ry="38.507" transform="translate(-138.003 903.37) rotate(-61.051)" fill="#fff" opacity="0.5"></ellipse>
      <polygon points="677.613 840.582 628.917 840.582 620.847 684.778 685.682 684.778 677.613 840.582" fill="#292a2e"></polygon>
      <polygon points="677.613 840.582 628.917 840.582 620.847 684.778 685.682 684.778 677.613 840.582" fill="#fff" opacity="0.3"></polygon>
      <path d="M731.558,678.8a.5.5,0,0,1-.392-.19l-47.8-60.386a.5.5,0,1,1,.784-.621l47.8,60.386a.5.5,0,0,1-.392.811Z" fill="#fff"></path>
      <path d="M727.545,592.184a.5.5,0,0,1-.295-.1l-61.166-44.662a.5.5,0,0,1,.59-.808l61.166,44.663a.5.5,0,0,1-.3.9Z" fill="#fff"></path>
      <path d="M597.17,649.533a.478.478,0,0,1-.129-.018.5.5,0,0,1-.354-.611l19.471-72.953a.5.5,0,0,1,.966.257l-19.471,72.953A.5.5,0,0,1,597.17,649.533Z" fill="#fff"></path>
    </g>
    <g>
      <path d="M701.122,841.986H.7a.7.7,0,1,1,0-1.4h700.42a.7.7,0,0,1,0,1.4Z" fill="#292a2e"></path>
      <g opacity="0.65">
        <path d="M701.122,841.986H.7a.7.7,0,1,1,0-1.4h700.42a.7.7,0,0,1,0,1.4Z" fill="#292a2e"></path>
      </g>
    </g>
  </g>
</svg>