<svg xmlns="http://www.w3.org/2000/svg" viewBox="0 0 1021.646 637.212">
  <g id="Layer_2" data-name="Layer 2">
    <path d="M938.781,300.026C906.5,185.737,735.392,189.823,640.216,158.367,507.782,107.774,387.129-11.525,238.886.9-43,24.531-43.9,363.608,74.51,482.018c203.2,203.2,508.058,136.37,745.446,18.1C948.419,436.113,945.876,343.182,938.781,300.026Z" fill="#fff" opacity="0.1"></path>
    <path d="M938.781,300.026C906.5,185.737,735.392,189.823,640.216,158.367,507.782,107.774,387.129-11.525,238.886.9-43,24.531-43.9,363.608,74.51,482.018c203.2,203.2,508.058,136.37,745.446,18.1C948.419,436.113,945.876,343.182,938.781,300.026Z" fill="#000000" opacity="0.1"></path>
    <g>
      <g>
        <rect x="149.285" y="75.748" width="627.105" height="472.854" rx="25.607" transform="translate(925.676 624.351) rotate(-180)" fill="#fff"></rect>
        <path d="M148.431,523V101.355A26.49,26.49,0,0,1,174.892,74.9H750.783a26.49,26.49,0,0,1,26.461,26.46V523a26.491,26.491,0,0,1-26.461,26.461H174.892A26.491,26.491,0,0,1,148.431,523ZM174.892,76.6a24.781,24.781,0,0,0-24.753,24.753V523a24.781,24.781,0,0,0,24.753,24.754H750.783A24.781,24.781,0,0,0,775.537,523V101.355A24.781,24.781,0,0,0,750.783,76.6Z" fill="#292a2e"></path>
      </g>
      <path d="M149.286,101.352v25.767h627.1V101.352A25.607,25.607,0,0,0,750.78,75.745H174.893A25.607,25.607,0,0,0,149.286,101.352Z" fill="#292a2e"></path>
    </g>
    <path d="M492.814,287.441c-12.231,2.67-23.051-7.616-28.56-17.442-6.483-11.561-9.153-25.044-17.271-35.726a46.655,46.655,0,0,0-29.648-17.53,41.509,41.509,0,0,0-16.1.345,44.128,44.128,0,0,0-7.184,2.461c-10.038,4.379-18.149,12.284-24.451,21.094-7.453,10.416-12.6,22.436-16.13,34.705a160.4,160.4,0,0,0-6.042,43.33,165.4,165.4,0,0,0,6.181,45.99,144.159,144.159,0,0,0,20.54,43.586,133.709,133.709,0,0,0,36.8,35.32,145.123,145.123,0,0,0,25.291,12.948,101.806,101.806,0,0,0,33.048,6.587c24.7,1.07,49.777-4.689,72.124-15.075a152.108,152.108,0,0,0,16.03-8.645c1.638-1.015.133-3.612-1.514-2.591a157.846,157.846,0,0,1-69.914,22.976,120.726,120.726,0,0,1-34.73-1.889,109.436,109.436,0,0,1-28.007-10.593,132.519,132.519,0,0,1-40.091-32.159A136.423,136.423,0,0,1,359.726,373.9a158.739,158.739,0,0,1-9.049-45.09,162.341,162.341,0,0,1,3.36-43.437,123.845,123.845,0,0,1,13.723-36.377c5.486-9.343,12.689-18.043,21.879-23.738a40.045,40.045,0,0,1,13.307-5.486c11.315-2.3,23.721,1.165,32.963,7.822a42.623,42.623,0,0,1,11.712,13.02c3.36,5.684,5.691,11.88,8.149,17.985,2.385,5.922,4.849,11.931,8.585,17.151a39.474,39.474,0,0,0,13.261,12.119,23.3,23.3,0,0,0,16,2.467c1.885-.411,1.087-3.3-.8-2.892Z" fill="#000000"></path>
    <g>
      <g>
        <g>
          <path id="sk" d="M790.144,393.4c.229-.03,2.774,42.19,51.821,38.509,33.956-2.543,46.062-38.569,46.841-38.569-3.661-.778-9.826-1.909-11.452-2.777-5.347-2.873-11.963-5.862-13.686-16.245-.993-5.985.692-36.6.173-42.656L811.72,343.3c.728,12.788,5.825,42.434-12.04,47.681C796.707,391.845,793.505,392.643,790.144,393.4Z" fill="#E98862"></path>
          <path id="sh" d="M810.989,378.861a37.644,37.644,0,0,0,1.568-8.089,86.188,86.188,0,0,0-.341-18.815,57.139,57.139,0,0,0,28.807-12.621c.968,3.575,6.291,19.192,4.817,22.589C843.054,368.347,829.964,378.861,810.989,378.861Z" fill="#0c0c0c" opacity="1"></path>
        </g>
        <g>
          <path d="M793.135,286.927S780.8,272.959,782.345,246.9c1.195-20.176,16.695-3.792,16.695-3.792s1-14.518,11.012-11.019,12.758,19.524,12.758,19.524" fill="#0c0c0c"></path>
          <path d="M862.953,244.585s49.989,15.884,17.416,81.372l-4.583-.618-9.3-1.253" fill="#0c0c0c"></path>
          <path d="M818.348,365.283c20.517,2.3,47.226-5.526,53.142-32.806l5.338-24.615c5.916-27.28-3.616-52.5-29.3-58.073h0c-25.686-5.57-49.681,12.381-55.6,39.661l-2.363,10.9a84.2,84.2,0,0,0-1.465,11.38c-.68,10.1-1.676,25.458,2.938,36.926C795.4,359.479,805.24,363.817,818.348,365.283Z" fill="#E98862"></path>
          <circle cx="799.136" cy="298.78" r="3.248" fill="#0c0c0c"></circle>
          <circle cx="830.097" cy="303.754" r="3.248" fill="#0c0c0c"></circle>
          <path d="M817.344,340.04a27.207,27.207,0,0,1-11.983-3.929.666.666,0,1,1,.674-1.148c7.849,4.612,15.457,5.065,22,1.31a4.544,4.544,0,0,1,.409-.218.666.666,0,0,1,.509,1.23c-.051.024-.137.075-.255.143A19.949,19.949,0,0,1,817.344,340.04Z" fill="#0c0c0c" opacity="0.5"></path>
          <path d="M816.736,346.323a13.578,13.578,0,0,1-2.282-.35.665.665,0,1,1,.309-1.294c4.508,1.074,6.959-.739,7.062-.817a.665.665,0,0,1,.814,1.053A9.027,9.027,0,0,1,816.736,346.323Z" fill="#0c0c0c" opacity="1"></path>
          <path d="M868.092,340.442c7.806,1.693,15.945-5.285,17.638-13.091s-3.7-13.483-11.508-15.176l-5.156,4.358-7.685,22.454Z" fill="#E98862"></path>
          <path d="M862.867,326.282s5.236-39.24-6.013-44.019c-7.491-3.183-28.7,4.045-45.576-2.878-7.382-3.028-15.061-2.612-16.541.865-.586,1.377-1.168-20.24,14.049-33.458,12.115-10.524,44.17-7.665,57.594-.673,37.172,19.363,9.109,68.09,9.109,68.09l-4.477,12.984Z" fill="#0c0c0c"></path>
          <g opacity="1">
            <path d="M810.613,328.877c-.018,0-.034,0-.05-.009-2.517-.539-6.679-1.723-6.278-3.607.336-1.559,8.211-17.485,9.109-19.3a.656.656,0,1,1,1.175.582c-3.494,7.052-8.773,17.928-9,18.988.153.5,2.664,1.492,5.269,2.05a.656.656,0,0,1-.223,1.291Z" fill="#0c0c0c"></path>
          </g>
          <path d="M810.2,288.984a15.412,15.412,0,0,0-8-1.649,13.613,13.613,0,0,0-3.975.84,16.015,16.015,0,0,0-3.564,1.858.832.832,0,0,0,.866,1.42l.058-.032a14.224,14.224,0,0,1,3.237-1.468,11.624,11.624,0,0,1,3.461-.536,13.175,13.175,0,0,1,6.627,1.709l.076.045a1.251,1.251,0,1,0,1.275-2.153Z" fill="#0c0c0c"></path>
          <path d="M828.685,294.064a13.153,13.153,0,0,1,6.843.107,11.63,11.63,0,0,1,3.195,1.434,14.168,14.168,0,0,1,2.733,2.272l.045.045a.833.833,0,0,0,1.214-1.139,16.02,16.02,0,0,0-2.946-2.735,13.6,13.6,0,0,0-3.61-1.863,15.436,15.436,0,0,0-8.151-.528,1.251,1.251,0,0,0,.524,2.446l.063-.015Z" fill="#0c0c0c"></path>
          <ellipse cx="825.855" cy="248.17" rx="16.095" ry="10.935" transform="translate(271.156 908.423) rotate(-66.691)" fill="#0c0c0c"></ellipse>
        </g>
      </g>
      <path id="b_1_b" d="M842.939,421.382c34.092-1.607,35.527-30.544,35.527-30.544s16.892,1.092,28.121,2.612c18.385,2.487,30.513,8.721,40.164,18.372,8.978,8.978,14.444,18.692,8.66,80.711-4.188,44.9-1.24,143.679-1.24,143.679H748.42s-12.338-129.465-14.058-149.679c-3.282-38.59-5.947-72.207,2.064-80.218,16.471-16.471,48.8-15.477,62.958-15.474C799.615,390.841,796.512,423.57,842.939,421.382Z" fill="#000000"></path>
      <g>
        <path d="M786.572,560.82l-29.929-16.653a5.42,5.42,0,0,0-7.588,2.535,5.608,5.608,0,0,0,2.563,7.073l6.418,3.57L732.7,555.38c-2.813-.268-6.436,1.2-6.528,4.378a5.418,5.418,0,0,0,3.683,5.651.372.372,0,0,0-.019.08.436.436,0,0,0,.007.062l-4.338-.413a5.426,5.426,0,0,0-5.9,6.012,5.55,5.55,0,0,0,5.076,4.8l1.846.176a.512.512,0,0,0,.086.153,5.418,5.418,0,0,0-4.7,5.216,5.592,5.592,0,0,0,5.162,5.571l4.585.436a.5.5,0,0,0-.25.384.48.48,0,0,0,.065.27,5.425,5.425,0,0,0-3.241,5.726,5.546,5.546,0,0,0,5.06,4.663l38.686,3.68a27.294,27.294,0,0,0,26.8-14.585h0a18.009,18.009,0,0,0-7.225-24.042Z" fill="#E98862"></path>
        <g opacity="0.2">
          <path d="M754.923,567.479a.5.5,0,0,1-.537.448l-24.092-1.9a.5.5,0,0,1,.079-1l24.092,1.9a.5.5,0,0,1,.459.538Z" fill="#0c0c0c"></path>
          <path d="M754.378,578.128a.5.5,0,0,1-.537.447l-26.887-2.12a.5.5,0,0,1-.459-.538.516.516,0,0,1,.538-.459l26.887,2.12a.5.5,0,0,1,.459.538Z" fill="#0c0c0c"></path>
          <path d="M753.854,589.664a.5.5,0,0,1-.537.448l-21.447-1.691a.5.5,0,0,1,.079-1l21.447,1.691a.5.5,0,0,1,.459.538Z" fill="#0c0c0c"></path>
        </g>
      </g>
      <path id="b_4_b" d="M769.576,614.517l186.838,20.975a37.5,37.5,0,0,0,41.038-43.5l-39.842-159.6a37.5,37.5,0,1,0-73.961,12.443l30.556,116.235L778.441,547.521Z" fill="#000000"></path>
      <g id="b_4_st">
        <path d="M938.559,564.558a.5.5,0,0,0,.074-1l-23.288-3.487a.494.494,0,0,0-.569.42.5.5,0,0,0,.42.568l23.289,3.488A.471.471,0,0,0,938.559,564.558Z" fill="#0c0c0c"></path>
      </g>
      <g id="b_4_st-2" data-name="b_4_st">
        <path d="M951.213,636.212a.5.5,0,0,0,.064-1L770.623,614.138l8.757-66,134.825,12.928a.508.508,0,0,0,.425-.148.5.5,0,0,0,.134-.431l-14.59-67.941a.492.492,0,0,0-.576-.41.5.5,0,0,0-.41.576l14.477,67.273L779,547.078a.5.5,0,0,0-.563.443l-8.865,67a.5.5,0,0,0,.432.55l181.139,21.141A.487.487,0,0,0,951.213,636.212Z" fill="#0c0c0c"></path>
      </g>
      <g>
        <path d="M567.167,291.567a5.42,5.42,0,0,0-7.132-3.322,5.625,5.625,0,0,0-3.051,7.048l2.32,6.941L541.929,283.69c-1.9-2.1-5.563-3.455-7.773-1.173a5.414,5.414,0,0,0-1.089,6.652.405.405,0,0,0-.073.049.43.43,0,0,0-.036.051l-.095-.109a5.425,5.425,0,0,0-8.381.413,5.551,5.551,0,0,0,.479,7.007l.956,1.088a.492.492,0,0,0-.041.176,5.079,5.079,0,0,0-6.646.914,5.624,5.624,0,0,0,.033,7.68h0c-.152-.031-.087.259-.214.373a.477.477,0,0,0-.134.244,5.42,5.42,0,0,0-6.145,1.888,5.551,5.551,0,0,0,.478,7.007l26.072,28.817a27.292,27.292,0,0,0,29.623,7.318l16.437-6.019Z" fill="#E98862"></path>
        <path d="M520.905,324.675a5.77,5.77,0,0,0,3.675,1.8c.181.018.364.027.548.027a5.7,5.7,0,0,0,5.54-7.316,5.921,5.921,0,0,0,2.737.992c.187.017.376.026.566.027a5.874,5.874,0,0,0,5.67-7.654,5.917,5.917,0,0,0,2.568.889c.187.018.376.027.566.027a5.955,5.955,0,0,0,4.366-1.865,6.244,6.244,0,0,0-.193-8.485L535.39,290.675a.5.5,0,1,0-.732.681l11.56,12.446a5.235,5.235,0,0,1,.2,7.111,5.006,5.006,0,0,1-7.267-.015c-.085-.09-.739-.757-1-1.034l-11.264-12.315a.5.5,0,0,0-.747.665l11.274,12.326a5.235,5.235,0,0,1,.2,7.111,5.007,5.007,0,0,1-7.263-.01l-10.459-11.094a.5.5,0,0,0-.74.672l9.3,9.921a5.052,5.052,0,0,1,.193,6.863,4.831,4.831,0,0,1-7.007-.009Z" fill="#0c0c0c" opacity="0.2"></path>
        <path d="M542.73,295.138a4.485,4.485,0,0,1-3.13-1.267c-3.128-3.029-6.812-6.116-7.884-6.607-4.507-2.016-11.336-3.012-13.587-3.226a4.5,4.5,0,1,1,.85-8.959c.391.037,9.645.942,16.414,3.97,3.179,1.423,8.817,6.757,10.469,8.358a4.5,4.5,0,0,1-3.132,7.731Z" fill="#E98862"></path>
        <g>
          <polygon points="491.907 294.532 493.316 281.401 592.296 290.711 590.886 303.841 491.907 294.532" fill="#000000"></polygon>
          <polygon points="491.907 294.532 493.316 281.401 592.296 290.711 590.886 303.841 491.907 294.532" fill="#fff" opacity="0.5"></polygon>
          <polygon points="601.774 304.978 603.183 291.848 592.296 290.711 590.886 303.841 601.774 304.978" fill="#262626"></polygon>
          <path d="M491.907,294.532s-3.273-2.308-6.2-4.384c-2.319-1.646-4.419-3.147-4.492-3.235a46.994,46.994,0,0,1,5.1-2.436c3.3-1.477,7-3.076,7-3.076Z" fill="#000000"></path>
          <path d="M491.907,294.532s-3.273-2.308-6.2-4.384c-2.319-1.646-4.419-3.147-4.492-3.235a46.994,46.994,0,0,1,5.1-2.436c3.3-1.477,7-3.076,7-3.076Z" fill="#fff" opacity="0.9"></path>
          <path d="M485.71,290.148c-2.319-1.646-4.419-3.147-4.492-3.235a46.994,46.994,0,0,1,5.1-2.436Z" fill="#262626"></path>
          <polygon points="492.374 290.446 591.331 299.518 591.269 300.117 492.312 291.046 492.374 290.446" fill="#fff"></polygon>
          <polygon points="492.923 285.309 591.88 294.38 591.818 294.98 492.861 285.908 492.923 285.309" fill="#fff"></polygon>
        </g>
        <path d="M560.063,304.816l-3.079-9.523a5.625,5.625,0,0,1,3.051-7.048,5.42,5.42,0,0,1,7.132,3.322l5.379,16.1" fill="#E98862"></path>
      </g>
      <path d="M630.055,508.332a37.509,37.509,0,0,1-32.982-19.662l-74.6-142.613,61.967-33.685L648.712,426.5l110.061-32.038,17.617,73.821-136.033,38.6A37.463,37.463,0,0,1,630.055,508.332Z" fill="#000000"></path>
      <path d="M733.826,480.686a.5.5,0,0,1-.5-.441l-2.993-25.515a.5.5,0,0,1,.438-.556.507.507,0,0,1,.555.439l2.993,25.514a.5.5,0,0,1-.439.556A.563.563,0,0,1,733.826,480.686Z" fill="#0c0c0c"></path>
    </g>
    <rect x="176.549" y="153.078" width="105.652" height="363.346" rx="11.278" fill="#292a2e"></rect>
    <g>
      <path d="M174.659,617a.9.9,0,0,0,.808-.5l23.685-48.578a.9.9,0,0,0-1.614-.787l-23.685,48.578a.9.9,0,0,0,.806,1.291Z" fill="#292a2e"></path>
      <path d="M134.623,614.183a.9.9,0,0,0,.869-.67L162.9,508.879a.9.9,0,0,0-1.737-.455L133.754,613.058a.9.9,0,0,0,.869,1.125Z" fill="#292a2e"></path>
      <path d="M82.343,618.814a.885.885,0,0,0,.35-.072.9.9,0,0,0,.476-1.177L54.838,550.843a.9.9,0,0,0-1.653.7l28.331,66.723A.9.9,0,0,0,82.343,618.814Z" fill="#292a2e"></path>
      <path d="M133.607,634.274a.87.87,0,0,0,.219-.027.9.9,0,0,0,.653-1.089l-32.92-131.7a.9.9,0,0,0-1.743.436l32.921,131.7A.9.9,0,0,0,133.607,634.274Z" fill="#292a2e"></path>
      <ellipse cx="92.741" cy="514.555" rx="37.649" ry="32.325" transform="translate(-411.76 377.272) rotate(-64.56)" fill="#000000"></ellipse>
      <ellipse cx="92.741" cy="514.555" rx="37.649" ry="32.325" transform="translate(-411.76 377.272) rotate(-64.56)" fill="#fff" opacity="0.4"></ellipse>
      <ellipse cx="48.973" cy="564.722" rx="22.58" ry="18.922" transform="translate(-493.158 399.181) rotate(-68.063)" fill="#000000"></ellipse>
      <ellipse cx="171.046" cy="524.954" rx="27.245" ry="33.438" transform="translate(-145.005 72.245) rotate(-16.873)" fill="#000000"></ellipse>
      <ellipse cx="202.084" cy="574.077" rx="14.757" ry="20.77" transform="translate(-92.052 41.267) rotate(-9.508)" fill="#000000"></ellipse>
      <rect x="55.918" y="600.66" width="139.841" height="34.848" transform="translate(251.678 1236.169) rotate(-180)" fill="#292a2e"></rect>
      <rect x="55.918" y="600.66" width="139.841" height="34.848" transform="translate(251.678 1236.169) rotate(-180)" fill="#fff" opacity="0.3"></rect>
      <ellipse cx="100.688" cy="583.235" rx="27.546" ry="23.19" transform="translate(-477.935 458.748) rotate(-68.063)" fill="#000000"></ellipse>
      <circle cx="153.236" cy="583.87" r="21.424" fill="#000000"></circle>
      <ellipse cx="48.973" cy="564.722" rx="22.58" ry="18.922" transform="translate(-493.158 399.181) rotate(-68.063)" fill="#fff" opacity="0.68"></ellipse>
      <ellipse cx="171.046" cy="524.954" rx="27.245" ry="33.438" transform="translate(-145.005 72.245) rotate(-16.873)" fill="#fff" opacity="0.68"></ellipse>
      <ellipse cx="202.084" cy="574.077" rx="14.757" ry="20.77" transform="translate(-92.052 41.267) rotate(-9.508)" fill="#fff" opacity="0.68"></ellipse>
      <ellipse cx="100.688" cy="583.235" rx="27.546" ry="23.19" transform="translate(-477.935 458.748) rotate(-68.063)" fill="#fff" opacity="0.68"></ellipse>
      <circle cx="153.236" cy="583.87" r="21.424" fill="#fff" opacity="0.4"></circle>
      <path d="M84.422,565.834c16.261,4.543,24.819-8.746,24.819-8.746l-.009-.018C100.558,554.484,90.941,558.121,84.422,565.834Z" fill="#292a2e"></path>
      <path d="M187.135,571.275a35.663,35.663,0,0,0,18.686-16.468,11.454,11.454,0,0,0-7.165-1.212C191.885,554.727,187.288,562.188,187.135,571.275Z" fill="#292a2e"></path>
      <path d="M149.414,562.79a41.531,41.531,0,0,0,22.349,10.317,21.453,21.453,0,0,0-22.349-10.317Z" fill="#292a2e"></path>
    </g>
    <path d="M1,637.212H1020.646a1,1,0,0,0,0-2H1a1,1,0,0,0,0,2Z" fill="#292a2e"></path>
    <g>
      <g>
        <rect x="191.734" y="232.874" width="26.854" height="26.854" rx="4.476" fill="#292a2e"></rect>
        <path d="M214.112,260.228h-17.9a4.981,4.981,0,0,1-4.976-4.975v-17.9a4.981,4.981,0,0,1,4.976-4.976h17.9a4.981,4.981,0,0,1,4.976,4.976v17.9A4.981,4.981,0,0,1,214.112,260.228Zm-17.9-26.854a3.98,3.98,0,0,0-3.976,3.976v17.9a3.979,3.979,0,0,0,3.976,3.975h17.9a3.979,3.979,0,0,0,3.976-3.975v-17.9a3.98,3.98,0,0,0-3.976-3.976Z" fill="#fff"></path>
      </g>
      <g>
        <rect x="236.236" y="232.386" width="26.854" height="26.854" rx="13.427" fill="#292a2e"></rect>
        <path d="M249.663,259.74a13.927,13.927,0,1,1,13.927-13.927A13.943,13.943,0,0,1,249.663,259.74Zm0-26.854a12.927,12.927,0,1,0,12.927,12.927A12.942,12.942,0,0,0,249.663,232.886Z" fill="#fff"></path>
      </g>
      <g>
        <polygon points="195.123 171.238 194.721 207.295 205.731 197.183 219.9 197.436 195.123 171.238" fill="#292a2e"></polygon>
        <path d="M194.721,207.8a.49.49,0,0,1-.2-.044.5.5,0,0,1-.3-.462l.4-36.056a.5.5,0,0,1,.863-.339l24.777,26.2a.5.5,0,0,1,.095.545.473.473,0,0,1-.467.3l-13.969-.249-10.863,9.976A.5.5,0,0,1,194.721,207.8Zm.888-35.315-.376,33.665,10.16-9.33a.527.527,0,0,1,.347-.131l12.979.231Z" fill="#fff"></path>
      </g>
      <g>
        <polygon points="239.935 171.238 239.533 207.295 250.544 197.183 264.712 197.436 239.935 171.238" fill="#fff"></polygon>
        <path d="M239.533,207.8a.482.482,0,0,1-.2-.044.5.5,0,0,1-.3-.462l.4-36.056a.5.5,0,0,1,.863-.339l24.778,26.2a.5.5,0,0,1,.094.545.466.466,0,0,1-.466.3l-13.97-.249-10.862,9.976A.505.505,0,0,1,239.533,207.8Zm.888-35.315-.375,33.665,10.159-9.33a.543.543,0,0,1,.347-.131l12.979.231Z" fill="#292a2e"></path>
      </g>
      <g>
        <g>
          <polygon points="195.674 285.213 193.653 311.468 199.979 315.035 213.816 309.552 214.493 302.177 195.674 285.213" fill="#292a2e"></polygon>
          <path d="M199.979,315.535a.5.5,0,0,1-.246-.065l-6.326-3.566a.5.5,0,0,1-.253-.474l2.022-26.256a.5.5,0,0,1,.833-.333l18.819,16.964a.5.5,0,0,1,.163.418l-.676,7.375a.5.5,0,0,1-.314.419L200.163,315.5A.509.509,0,0,1,199.979,315.535Zm-5.8-4.346,5.84,3.293,13.331-5.282.625-6.82L196.1,286.265Z" fill="#fff"></path>
        </g>
        <g>
          <line x1="195.674" y1="285.213" x2="201.716" y2="300.482" fill="#292a2e"></line>
          <path d="M201.716,300.982a.5.5,0,0,1-.465-.316L195.21,285.4a.5.5,0,1,1,.929-.368l6.042,15.269a.5.5,0,0,1-.465.684Z" fill="#fff"></path>
        </g>
        <g>
          <circle cx="202.639" cy="302.789" r="3.362" fill="#292a2e"></circle>
          <path d="M202.639,306.651a3.862,3.862,0,1,1,3.861-3.862A3.866,3.866,0,0,1,202.639,306.651Zm0-6.723a2.862,2.862,0,1,0,2.861,2.861A2.865,2.865,0,0,0,202.639,299.928Z" fill="#fff"></path>
        </g>
        <path d="M196.706,315.96l19.8-7.846a1.431,1.431,0,0,1,1.843.767l1.439,3.357a1.433,1.433,0,0,1-.8,1.9l-19.868,7.726a1.431,1.431,0,0,1-1.837-.776l-1.37-3.238A1.431,1.431,0,0,1,196.706,315.96Z" fill="#fff"></path>
      </g>
      <g>
        <g>
          <g>
            <polygon points="243.218 289.149 241.311 313.913 247.278 317.277 260.33 312.105 260.968 305.15 243.218 289.149" fill="#292a2e"></polygon>
            <path d="M247.278,317.777a.5.5,0,0,1-.246-.065l-5.966-3.363a.5.5,0,0,1-.253-.474l1.906-24.765a.5.5,0,0,1,.834-.333l17.75,16a.5.5,0,0,1,.163.417l-.638,6.956a.5.5,0,0,1-.314.419l-13.052,5.172A.509.509,0,0,1,247.278,317.777Zm-5.444-4.143,5.482,3.09,12.544-4.97.587-6.4L243.638,290.2Z" fill="#fff"></path>
          </g>
          <g>
            <line x1="243.218" y1="289.149" x2="248.916" y2="303.551" fill="#292a2e"></line>
            <path d="M248.916,304.051a.5.5,0,0,1-.465-.316l-5.7-14.4a.5.5,0,0,1,.93-.368l5.7,14.4a.5.5,0,0,1-.281.649A.493.493,0,0,1,248.916,304.051Z" fill="#fff"></path>
          </g>
          <g>
            <circle cx="249.787" cy="305.727" r="3.171" fill="#292a2e"></circle>
            <path d="M249.787,309.4a3.671,3.671,0,1,1,3.671-3.671A3.675,3.675,0,0,1,249.787,309.4Zm0-6.342a2.671,2.671,0,1,0,2.671,2.671A2.674,2.674,0,0,0,249.787,303.056Z" fill="#fff"></path>
          </g>
          <path d="M244.191,318.15l18.674-7.4a1.351,1.351,0,0,1,1.739.724l1.357,3.167a1.349,1.349,0,0,1-.752,1.789l-18.739,7.288a1.35,1.35,0,0,1-1.733-.732l-1.292-3.054A1.35,1.35,0,0,1,244.191,318.15Z" fill="#fff"></path>
        </g>
        <path d="M256.125,291.558a.5.5,0,0,1-.5-.5V281.41a.5.5,0,0,1,1,0v9.648A.5.5,0,0,1,256.125,291.558Z" fill="#fff"></path>
        <path d="M260.949,286.734H251.3a.5.5,0,0,1,0-1h9.648a.5.5,0,0,1,0,1Z" fill="#fff"></path>
      </g>
      <g>
        <path d="M196.038,375.935a3.74,3.74,0,0,1-1.875-.5h0a3.773,3.773,0,0,1-1.388-5.152L202.9,352.694a.5.5,0,0,1,.682-.185l5.673,3.265a.506.506,0,0,1,.233.3.5.5,0,0,1-.05.379l-10.123,17.588A3.773,3.773,0,0,1,196.038,375.935Zm-1.376-1.369a2.775,2.775,0,0,0,3.785-1.02l9.874-17.154-4.805-2.766-9.874,17.154a2.774,2.774,0,0,0,1.02,3.787Z" fill="#fff"></path>
        <rect x="199.828" y="350.613" width="14.342" height="5.037" rx="2.518" transform="translate(203.75 -56.185) rotate(29.923)" fill="#fff"></rect>
        <path d="M209.288,344.566h0a2.774,2.774,0,0,1,2.774,2.774v6.4a0,0,0,0,1,0,0h-5.549a0,0,0,0,1,0,0v-6.4A2.774,2.774,0,0,1,209.288,344.566Z" transform="translate(202.072 -57.857) rotate(29.923)" fill="#fff"></path>
      </g>
      <g>
        <path d="M250.992,374.055a14.376,14.376,0,0,1-10.213-4.22.5.5,0,0,1,.706-.708,13.473,13.473,0,1,0-.036-19.052.5.5,0,0,1-.708-.706,14.472,14.472,0,1,1,10.28,24.686Z" fill="#fff"></path>
        <path d="M246.58,351.5a.535.535,0,0,1-.089-.008l-6.025-1.081a.5.5,0,0,1-.4-.593l1.163-5.664a.5.5,0,0,1,.98.2l-1.06,5.162,5.52.991a.5.5,0,0,1-.088.992Z" fill="#fff"></path>
      </g>
      <g>
        <path d="M260.193,423.745H236.118a.5.5,0,0,1-.5-.5V399.171a.5.5,0,0,1,.5-.5h24.075a.5.5,0,0,1,.5.5v24.074A.5.5,0,0,1,260.193,423.745Zm-23.575-1h23.075V399.671H236.618Z" fill="#fff"></path>
        <g>
          <rect x="243.386" y="407.831" width="23.904" height="23.904" rx="5.469" fill="#292a2e"></rect>
          <path d="M261.822,432.234H248.855a5.975,5.975,0,0,1-5.969-5.968V413.3a5.976,5.976,0,0,1,5.969-5.969h12.967a5.975,5.975,0,0,1,5.968,5.969v12.966A5.974,5.974,0,0,1,261.822,432.234Zm-12.967-23.9a4.974,4.974,0,0,0-4.969,4.969v12.966a4.974,4.974,0,0,0,4.969,4.968h12.967a4.973,4.973,0,0,0,4.968-4.968V413.3a4.973,4.973,0,0,0-4.968-4.969Z" fill="#fff"></path>
        </g>
      </g>
      <g>
        <g>
          <rect x="190.804" y="402.048" width="20.538" height="20.538" rx="10.269" fill="#292a2e"></rect>
          <path d="M201.073,423.086a10.769,10.769,0,1,1,10.769-10.769A10.782,10.782,0,0,1,201.073,423.086Zm0-20.538a9.769,9.769,0,1,0,9.769,9.769A9.78,9.78,0,0,0,201.073,402.548Z" fill="#fff"></path>
        </g>
        <rect x="208.932" y="420.394" width="1" height="13.552" transform="translate(-187.552 164.987) rotate(-30.44)" fill="#fff"></rect>
      </g>
      <g>
        <path d="M266.445,489.327H239.616V462.5h26.829Zm-25.829-1h24.829V463.5H240.616Z" fill="#fff"></path>
        <path d="M240.116,463.5a.5.5,0,0,1-.5-.5v-7.826a.5.5,0,0,1,1,0V463A.5.5,0,0,1,240.116,463.5Z" fill="#fff"></path>
        <path d="M240.031,463.5h-7.826a.5.5,0,1,1,0-1h7.826a.5.5,0,0,1,0,1Z" fill="#fff"></path>
      </g>
      <path d="M200.369,491.108h2.114l6.742-31.684h9.849l.328-1.649H197.62l-.36,1.649h9.8Z" fill="#fff"></path>
    </g>
    <g>
      <path d="M671.628,620.132l-41.316-127a11.115,11.115,0,0,0-10.571-7.677H451.42a11.116,11.116,0,0,0-10.571,14.555l41.316,127a11.115,11.115,0,0,0,10.571,7.677H661.057A11.117,11.117,0,0,0,671.628,620.132Z" fill="#292a2e"></path>
      <rect x="632.842" y="624.389" width="122.841" height="10.298" rx="5.084" fill="#292a2e"></rect>
      <circle cx="556.238" cy="566.266" r="17.654" fill="#fff"></circle>
    </g>
  </g>
</svg>