<svg width="535" height="712" viewBox="0 0 535 712" fill="none" xmlns="http://www.w3.org/2000/svg">
<path d="M24.4681 404.576L0.600173 215.137C0.101061 212.14 0.2606 209.07 1.06795 206.14C1.87529 203.211 3.31107 200.493 5.27522 198.174C7.23937 195.856 9.68487 193.993 12.4417 192.716C15.1986 191.438 18.2006 190.776 21.2391 190.776H176.814C181.767 190.776 186.56 192.533 190.34 195.735C194.119 198.937 196.64 203.376 197.454 208.262L221.32 397.702C221.819 400.699 221.659 403.769 220.852 406.698C220.045 409.628 218.609 412.346 216.645 414.664C214.681 416.983 212.235 418.846 209.479 420.123C206.722 421.401 203.72 422.063 200.681 422.063H45.107C40.1535 422.063 35.3609 420.306 31.5816 417.103C27.8023 413.901 25.2816 409.462 24.4681 404.576V404.576Z" fill="#000000"></path>
<path opacity="0.5" d="M24.4681 404.576L0.600173 215.137C0.101061 212.14 0.2606 209.07 1.06795 206.14C1.87529 203.211 3.31107 200.493 5.27522 198.174C7.23937 195.856 9.68487 193.993 12.4417 192.716C15.1986 191.438 18.2006 190.776 21.2391 190.776H176.814C181.767 190.776 186.56 192.533 190.34 195.735C194.119 198.937 196.64 203.376 197.454 208.262L221.32 397.702C221.819 400.699 221.659 403.769 220.852 406.698C220.045 409.628 218.609 412.346 216.645 414.664C214.681 416.983 212.235 418.846 209.479 420.123C206.722 421.401 203.72 422.063 200.681 422.063H45.107C40.1535 422.063 35.3609 420.306 31.5816 417.103C27.8023 413.901 25.2816 409.462 24.4681 404.576V404.576Z" fill="white"></path>
<path d="M52.5877 404.576L28.7207 215.137C28.2216 212.14 28.3813 209.069 29.1887 206.14C29.9961 203.211 31.432 200.492 33.3963 198.174C35.3605 195.856 37.806 193.993 40.563 192.715C43.32 191.438 46.3222 190.776 49.3609 190.776H204.936C209.889 190.776 214.682 192.533 218.461 195.735C222.24 198.937 224.761 203.376 225.575 208.262L249.442 397.702C249.941 400.699 249.781 403.769 248.974 406.699C248.166 409.628 246.731 412.346 244.766 414.665C242.802 416.983 240.357 418.846 237.6 420.124C234.843 421.401 231.84 422.063 228.802 422.063H73.2268C68.2734 422.063 63.4805 420.306 59.7012 417.103C55.9219 413.901 53.4011 409.462 52.5877 404.576V404.576Z" fill="#000000"></path>
<path opacity="0.16" d="M52.5877 404.576L28.7207 215.137C28.2216 212.14 28.3813 209.069 29.1887 206.14C29.9961 203.211 31.432 200.492 33.3963 198.174C35.3605 195.856 37.806 193.993 40.563 192.715C43.32 191.438 46.3222 190.776 49.3609 190.776H204.936C209.889 190.776 214.682 192.533 218.461 195.735C222.24 198.937 224.761 203.376 225.575 208.262L249.442 397.702C249.941 400.699 249.781 403.769 248.974 406.699C248.166 409.628 246.731 412.346 244.766 414.665C242.802 416.983 240.357 418.846 237.6 420.124C234.843 421.401 231.84 422.063 228.802 422.063H73.2268C68.2734 422.063 63.4805 420.306 59.7012 417.103C55.9219 413.901 53.4011 409.462 52.5877 404.576V404.576Z" fill="#000000"></path>
<path opacity="0.6" d="M52.5877 404.576L28.7207 215.137C28.2216 212.14 28.3813 209.069 29.1887 206.14C29.9961 203.211 31.432 200.492 33.3963 198.174C35.3605 195.856 37.806 193.993 40.563 192.715C43.32 191.438 46.3222 190.776 49.3609 190.776H204.936C209.889 190.776 214.682 192.533 218.461 195.735C222.24 198.937 224.761 203.376 225.575 208.262L249.442 397.702C249.941 400.699 249.781 403.769 248.974 406.699C248.166 409.628 246.731 412.346 244.766 414.665C242.802 416.983 240.357 418.846 237.6 420.124C234.843 421.401 231.84 422.063 228.802 422.063H73.2268C68.2734 422.063 63.4805 420.306 59.7012 417.103C55.9219 413.901 53.4011 409.462 52.5877 404.576V404.576Z" fill="white"></path>
<path d="M96.0007 446.256L43.0679 711.35H28.4307L81.9187 443.444L96.0007 446.256Z" fill="#000000"></path>
<path d="M175.345 446.256L122.412 711.35H107.767L161.256 443.444L175.345 446.256Z" fill="#000000"></path>
<path d="M372.211 711.35H357.573L304.64 446.256L318.723 443.444L372.211 711.35Z" fill="#000000"></path>
<path d="M292.874 711.35H278.229L225.296 446.256L239.386 443.444L292.874 711.35Z" fill="#000000"></path>
<path opacity="0.38" d="M96.0007 446.256L43.0679 711.35H28.4307L81.9187 443.444L96.0007 446.256Z" fill="#000000"></path>
<path opacity="0.38" d="M175.345 446.256L122.412 711.35H107.767L161.256 443.444L175.345 446.256Z" fill="#000000"></path>
<path opacity="0.38" d="M372.211 711.35H357.573L304.64 446.256L318.723 443.444L372.211 711.35Z" fill="#000000"></path>
<path opacity="0.38" d="M292.874 711.35H278.229L225.296 446.256L239.386 443.444L292.874 711.35Z" fill="#000000"></path>
<path opacity="0.21" d="M96.0007 446.256L43.0679 711.35H28.4307L81.9187 443.444L96.0007 446.256Z" fill="white"></path>
<path opacity="0.21" d="M175.345 446.256L122.412 711.35H107.767L161.256 443.444L175.345 446.256Z" fill="white"></path>
<path opacity="0.3" d="M96.0007 446.256L43.0679 711.35H28.4307L81.9187 443.444L96.0007 446.256Z" fill="white"></path>
<path opacity="0.3" d="M175.345 446.256L122.412 711.35H107.767L161.256 443.444L175.345 446.256Z" fill="white"></path>
<path opacity="0.3" d="M372.211 711.35H357.573L304.64 446.256L318.723 443.444L372.211 711.35Z" fill="white"></path>
<path opacity="0.3" d="M292.874 711.35H278.229L225.296 446.256L239.386 443.444L292.874 711.35Z" fill="white"></path>
<path d="M152.638 421.141H58.6409C48.6279 421.141 40.5107 429.258 40.5107 439.271V439.272C40.5107 449.285 48.6279 457.402 58.6409 457.402H152.638C162.651 457.402 170.768 449.285 170.768 439.272V439.271C170.768 429.258 162.651 421.141 152.638 421.141Z" fill="#000000"></path>
<path opacity="0.5" d="M152.638 421.141H58.6409C48.6279 421.141 40.5107 429.258 40.5107 439.271V439.272C40.5107 449.285 48.6279 457.402 58.6409 457.402H152.638C162.651 457.402 170.768 449.285 170.768 439.272V439.271C170.768 429.258 162.651 421.141 152.638 421.141Z" fill="white"></path>
<path d="M334.774 421.141H160.871C150.858 421.141 142.741 429.258 142.741 439.271V439.272C142.741 449.285 150.858 457.402 160.871 457.402H334.774C344.787 457.402 352.904 449.285 352.904 439.272V439.271C352.904 429.258 344.787 421.141 334.774 421.141Z" fill="#000000"></path>
<path opacity="0.16" d="M334.774 421.141H160.871C150.858 421.141 142.741 429.258 142.741 439.271V439.272C142.741 449.285 150.858 457.402 160.871 457.402H334.774C344.787 457.402 352.904 449.285 352.904 439.272V439.271C352.904 429.258 344.787 421.141 334.774 421.141Z" fill="#000000"></path>
<path opacity="0.6" d="M334.774 421.141H160.871C150.858 421.141 142.741 429.258 142.741 439.271V439.272C142.741 449.285 150.858 457.402 160.871 457.402H334.774C344.787 457.402 352.904 449.285 352.904 439.272V439.271C352.904 429.258 344.787 421.141 334.774 421.141Z" fill="white"></path>
<path d="M486.447 663.771C486.447 663.771 491.389 689.388 515.374 690.815C539.359 692.242 534.158 711.35 534.158 711.35H442.5V665.557L486.447 663.771Z" fill="#000000"></path>
<path d="M312.075 647.6C312.075 647.6 305.202 672.767 326.093 684.636C346.984 696.505 333.884 711.353 333.884 711.353L251.64 670.895L271.853 629.804L312.075 647.6Z" fill="#000000"></path>
<path d="M238.271 50.6859C238.271 50.6859 250.229 41.6599 253.192 20.8859C255.492 4.79888 240.648 15.2208 240.648 15.2208C240.648 15.2208 242.187 3.62084 233.739 4.77284C225.291 5.92484 220.556 18.1089 220.556 18.1089" fill="#0C0C0C"></path>
<path d="M190.057 6.12695C190.057 6.12695 148.125 10.627 163.283 67.443L166.993 67.691L174.525 68.191" fill="#0C0C0C"></path>
<path d="M231.248 126.783C231.063 126.759 229.017 160.705 189.582 157.745C162.282 155.7 152.548 126.735 151.922 126.735C154.866 126.11 158.503 125.16 159.949 124.835C163.1 124.104 165.953 122.43 168.13 120.038C170.306 117.645 171.703 114.647 172.133 111.441C172.933 106.63 171.577 82.0139 171.994 77.1409L213.9 86.4949C213.315 96.7769 209.216 120.613 223.58 124.831C225.97 125.532 228.545 126.174 231.248 126.783Z" fill="#FAA896"></path>
<path opacity="1" d="M214.488 115.093C213.832 112.979 213.409 110.799 213.227 108.593C212.767 103.555 212.859 98.4824 213.501 93.4648C204.984 92.316 196.959 88.8005 190.34 83.3179C189.562 86.1919 185.282 98.7489 186.467 101.48C188.707 106.639 199.232 115.093 214.488 115.093Z" fill="#0C0C0C"></path>
<path d="M205.838 108.375C189.306 106.892 169.518 96.446 169.233 74.004L168.975 53.7549C168.69 31.3129 180.246 12.971 201.375 12.702C222.505 12.433 238.53 30.4249 238.815 52.8669L238.929 61.832C238.915 64.9103 238.691 67.9841 238.258 71.0319C237.174 79.0959 235.494 91.3579 230.02 99.6519C224.853 107.484 216.4 109.322 205.838 108.375Z" fill="#FAA896"></path>
<path opacity="1" d="M213.509 87.862C216.922 88.0147 220.322 87.3639 223.436 85.962C223.566 85.9066 223.669 85.8017 223.722 85.6705C223.775 85.5393 223.773 85.3925 223.718 85.2624C223.662 85.1323 223.558 85.0297 223.426 84.9769C223.295 84.9241 223.149 84.9255 223.018 84.9809C216.307 87.8419 210.218 87.423 205.397 83.769C205.301 83.6919 205.201 83.62 205.097 83.5539C204.975 83.4836 204.829 83.465 204.693 83.502C204.556 83.5391 204.44 83.6288 204.37 83.7514C204.299 83.8741 204.281 84.0196 204.318 84.1561C204.355 84.2925 204.445 84.4087 204.567 84.479C204.605 84.504 204.667 84.553 204.755 84.619C207.286 86.5469 210.334 87.6761 213.509 87.862V87.862Z" fill="#0C0C0C"></path>
<path opacity="1" d="M213.35 92.9169C213.967 92.9545 214.585 92.9399 215.199 92.8729C215.269 92.8655 215.336 92.8444 215.398 92.8109C215.459 92.7774 215.513 92.7322 215.557 92.6777C215.601 92.6233 215.634 92.5607 215.654 92.4935C215.674 92.4264 215.68 92.356 215.673 92.2864C215.665 92.2168 215.644 92.1494 215.611 92.0879C215.577 92.0264 215.532 91.9721 215.478 91.9281C215.423 91.8841 215.361 91.8513 215.293 91.8315C215.226 91.8118 215.156 91.8054 215.086 91.8129C211.393 92.2049 209.631 90.5129 209.557 90.4409C209.457 90.3408 209.322 90.2844 209.18 90.2842C209.039 90.284 208.903 90.34 208.803 90.4398C208.703 90.5397 208.647 90.6752 208.646 90.8167C208.646 90.9581 208.702 91.0937 208.802 91.1938C210.074 92.2763 211.681 92.8851 213.35 92.9169Z" fill="#0C0C0C"></path>
<path d="M231.838 66.1459C233.275 66.1459 234.44 64.9809 234.44 63.5438C234.44 62.1068 233.275 60.9419 231.838 60.9419C230.401 60.9419 229.236 62.1068 229.236 63.5438C229.236 64.9809 230.401 66.1459 231.838 66.1459Z" fill="#0C0C0C"></path>
<path d="M206.41 64.55C207.847 64.55 209.012 63.385 209.012 61.948C209.012 60.511 207.847 59.3459 206.41 59.3459C204.973 59.3459 203.809 60.511 203.809 61.948C203.809 63.385 204.973 64.55 206.41 64.55Z" fill="#0C0C0C"></path>
<path d="M170.632 80.825C164.211 80.906 158.918 74.103 158.832 67.681C158.746 61.259 163.911 57.653 170.332 57.571L173.696 61.832L176.149 80.754L170.632 80.825Z" fill="#FAA896"></path>
<path d="M177.02 70.5059C177.02 70.5059 179.189 38.7509 188.82 36.7899C195.233 35.4839 210.784 44.5809 225.189 41.8339C231.489 40.6339 237.474 42.1909 238.082 45.1679C238.323 46.3469 242.249 29.4089 232.382 16.5549C224.524 6.31994 198.811 3.4299 187.113 6.7859C154.722 16.0789 169.013 58.9699 169.013 58.9699L170.458 69.9179L177.02 70.5059Z" fill="#0C0C0C"></path>
<g opacity="1">
<path opacity="1" d="M217.392 80.3679H217.432C219.501 80.3469 222.971 80.0808 222.957 78.5328C222.943 77.2498 219.291 63.4399 218.875 61.8699C218.84 61.7347 218.752 61.6194 218.631 61.5492C218.51 61.479 218.366 61.4595 218.231 61.4954C218.096 61.5312 217.98 61.6192 217.91 61.7401C217.84 61.861 217.821 62.0048 217.856 62.1399C219.477 68.2559 221.893 77.6719 221.903 78.5399C221.703 78.9069 219.565 79.2879 217.423 79.3099C217.286 79.3103 217.154 79.3638 217.056 79.4592C216.958 79.5547 216.901 79.6846 216.897 79.8214C216.893 79.9582 216.942 80.0911 217.035 80.1921C217.127 80.2932 217.255 80.3545 217.392 80.3629V80.3679Z" fill="#0C0C0C"></path>
</g>
<path d="M224.451 49.431C226.626 48.8329 228.922 48.8329 231.096 49.431C232.164 49.7191 233.183 50.1654 234.119 50.755C235.044 51.3328 235.893 52.0253 236.644 52.816C236.782 52.957 236.86 53.1455 236.863 53.3426C236.865 53.5397 236.792 53.7302 236.658 53.8747C236.524 54.0192 236.34 54.1066 236.143 54.119C235.946 54.1313 235.752 54.0676 235.601 53.941L235.554 53.9C234.86 53.2559 234.087 52.7018 233.254 52.2509C232.436 51.8022 231.555 51.4806 230.64 51.297C228.84 50.9187 226.971 51.0222 225.223 51.597L225.15 51.623C225.008 51.6735 224.856 51.6953 224.705 51.6873C224.554 51.6794 224.406 51.6417 224.269 51.5765C224.133 51.5113 224.01 51.4198 223.909 51.3072C223.808 51.1947 223.729 51.0632 223.679 50.9205C223.628 50.7777 223.606 50.6264 223.614 50.4752C223.622 50.324 223.66 50.1759 223.725 50.0393C223.791 49.9026 223.882 49.7801 223.995 49.6788C224.107 49.5775 224.239 49.4994 224.381 49.4489L224.451 49.431Z" fill="#0C0C0C"></path>
<path d="M209.051 50.737C207.396 49.9331 205.558 49.5804 203.723 49.7149C202.792 49.776 201.876 49.9783 201.005 50.3148C200.12 50.651 199.28 51.0968 198.505 51.6419L198.455 51.6749C198.289 51.7884 198.085 51.832 197.887 51.7964C197.689 51.7608 197.513 51.6488 197.397 51.4845C197.281 51.3203 197.233 51.1169 197.266 50.9184C197.298 50.7198 197.407 50.5418 197.57 50.4229C198.42 49.7396 199.353 49.1664 200.346 48.7169C201.352 48.257 202.422 47.9505 203.518 47.8079C204.617 47.6534 205.732 47.6503 206.831 47.7988C207.96 47.9395 209.062 48.2399 210.105 48.6909C210.244 48.7511 210.37 48.8381 210.476 48.9469C210.581 49.0557 210.663 49.1842 210.719 49.325C210.775 49.4658 210.802 49.6162 210.8 49.7676C210.797 49.919 210.765 50.0685 210.705 50.2074C210.645 50.3464 210.558 50.4721 210.449 50.5774C210.34 50.6827 210.212 50.7655 210.071 50.8212C209.93 50.8769 209.779 50.9043 209.628 50.9019C209.477 50.8994 209.327 50.8671 209.188 50.8069L209.123 50.7769L209.051 50.737Z" fill="#0C0C0C"></path>
<path d="M221.354 27.5854C226.107 26.5924 228.776 20.1159 227.314 13.1198C225.852 6.12377 220.814 1.25745 216.061 2.25051C211.308 3.24356 208.64 9.71993 210.102 16.716C211.563 23.712 216.601 28.5785 221.354 27.5854Z" fill="#0C0C0C"></path>
<path d="M261.135 640.488L330.491 421.688H204.774C179.521 421.688 168.993 400.273 168.993 375.02C168.993 349.767 193.819 327.631 219.071 327.631H388.744C404.144 327.631 421.417 337.051 429.871 349.926C438.325 362.801 436.039 382.755 429.915 396.887L318.853 666.635" fill="#262626"></path>
<path opacity="0.8" d="M261.135 640.488L330.491 421.688H204.774C179.521 421.688 168.993 400.273 168.993 375.02C168.993 349.767 193.819 327.631 219.071 327.631H388.744C404.144 327.631 421.417 337.051 429.871 349.926C438.325 362.801 436.039 382.755 429.915 396.887L318.853 666.635" fill="#0A0A0A"></path>
<path d="M437.231 687.561L321.264 421.688L168.993 421.678C133.313 418.878 116.973 399.327 117.493 374.078C118.006 349.151 130.627 324.53 155.442 324.53H360.674C379.034 324.907 393.474 345.197 400.29 362.25L496.701 671.282" fill="#262626"></path>
<path d="M107.101 324.837C107.101 324.837 100.338 368.937 111.057 393.454C124.439 424.064 174.605 421.679 174.605 421.679L171.779 324.532L107.101 324.837Z" fill="#262626"></path>
<path d="M404.651 323.97L297.089 301.681C292.607 300.753 288.432 298.709 284.949 295.738C281.467 292.768 278.79 288.967 277.166 284.688L234.859 173.206C232.339 166.467 232.591 159.003 235.559 152.449C238.527 145.895 243.969 140.782 250.696 138.229C257.423 135.676 264.887 135.891 271.456 138.826C278.025 141.762 283.165 147.179 285.751 153.893L322.758 251.411L415.696 270.668C415.696 270.668 406.515 324.356 404.651 323.97Z" fill="#000000"></path>
<path d="M280.243 201.516C279.001 216.109 270.195 307.151 269.001 325.126H107.175C106.246 308.914 102.075 238.026 98.5445 206.326C95.1785 176.075 90.4605 162.309 94.3375 152.908C101.174 136.328 122.938 128.923 137.675 126.928C146.675 125.71 160.209 124.836 160.209 124.836C160.209 124.836 161.354 148.02 188.68 149.31C225.88 151.065 223.396 124.836 223.581 124.836C229.608 124.836 262.411 129.219 270.613 134.565C282.198 142.116 285.622 152.406 285.757 161.86C285.912 172.743 281.654 184.966 280.243 201.516Z" fill="#000000"></path>
<path d="M273.881 275.907C273.868 275.908 273.855 275.908 273.842 275.907C273.782 275.902 273.723 275.885 273.669 275.857C273.615 275.83 273.567 275.791 273.528 275.745C273.489 275.698 273.459 275.644 273.441 275.586C273.423 275.529 273.417 275.468 273.422 275.407L277.622 224.941C277.626 224.88 277.642 224.82 277.669 224.765C277.696 224.711 277.734 224.662 277.781 224.623C277.828 224.583 277.883 224.554 277.941 224.536C278 224.518 278.062 224.513 278.122 224.52C278.183 224.525 278.242 224.542 278.296 224.569C278.35 224.597 278.398 224.636 278.437 224.682C278.476 224.729 278.506 224.782 278.524 224.841C278.542 224.899 278.548 224.96 278.542 225.02L274.342 275.487C274.332 275.602 274.279 275.709 274.194 275.787C274.108 275.865 273.997 275.908 273.881 275.907V275.907Z" fill="#0C0C0C"></path>
<path d="M299.9 315.122L335.407 205.972C336.031 204.054 337.246 202.382 338.878 201.197C340.51 200.011 342.475 199.372 344.492 199.372H489.153C490.661 199.372 492.148 199.729 493.491 200.414C494.835 201.098 495.997 202.091 496.883 203.311C497.769 204.532 498.354 205.944 498.59 207.434C498.825 208.923 498.705 210.447 498.238 211.881L462.73 321.031C462.106 322.949 460.891 324.621 459.26 325.807C457.628 326.992 455.662 327.631 453.645 327.631H308.985C307.477 327.631 305.99 327.274 304.647 326.59C303.303 325.905 302.141 324.912 301.255 323.692C300.368 322.472 299.784 321.059 299.548 319.57C299.313 318.08 299.433 316.556 299.9 315.122V315.122Z" fill="#292A2E"></path>
<path opacity="0.2" d="M299.9 315.122L335.407 205.972C336.031 204.054 337.246 202.382 338.878 201.197C340.51 200.011 342.475 199.372 344.492 199.372H489.153C490.661 199.372 492.148 199.729 493.491 200.414C494.835 201.098 495.997 202.091 496.883 203.311C497.769 204.532 498.354 205.944 498.59 207.434C498.825 208.923 498.705 210.447 498.238 211.881L462.73 321.031C462.106 322.949 460.891 324.621 459.26 325.807C457.628 326.992 455.662 327.631 453.645 327.631H308.985C307.477 327.631 305.99 327.274 304.647 326.59C303.303 325.905 302.141 324.912 301.255 323.692C300.368 322.472 299.784 321.059 299.548 319.57C299.313 318.08 299.433 316.556 299.9 315.122V315.122Z" fill="white"></path>
<path d="M328.868 318.78H232.032C229.619 318.78 227.663 320.736 227.663 323.149V323.261C227.663 325.674 229.619 327.63 232.032 327.63H328.868C331.281 327.63 333.237 325.674 333.237 323.261V323.149C333.237 320.736 331.281 318.78 328.868 318.78Z" fill="#292A2E"></path>
<path opacity="0.2" d="M328.868 318.78H232.032C229.619 318.78 227.663 320.736 227.663 323.149V323.261C227.663 325.674 229.619 327.63 232.032 327.63H328.868C331.281 327.63 333.237 325.674 333.237 323.261V323.149C333.237 320.736 331.281 318.78 328.868 318.78Z" fill="white"></path>
<path d="M399.072 283.999C407.451 283.999 414.244 277.207 414.244 268.827C414.244 260.448 407.451 253.655 399.072 253.655C390.693 253.655 383.9 260.448 383.9 268.827C383.9 277.207 390.693 283.999 399.072 283.999Z" fill="white"></path>
<path d="M281.712 181.175H243.246V228.351H281.712V181.175Z" fill="white"></path>
<path d="M243.246 220.515C240.131 220.515 237.085 219.591 234.494 217.86C231.904 216.129 229.885 213.668 228.693 210.79C227.501 207.911 227.189 204.744 227.797 201.688C228.405 198.632 229.905 195.826 232.108 193.623C234.312 191.42 237.118 189.919 240.174 189.312C243.23 188.704 246.397 189.016 249.276 190.208C252.154 191.401 254.614 193.42 256.345 196.01C258.076 198.601 259 201.646 259 204.762C258.995 208.939 257.334 212.943 254.38 215.896C251.427 218.849 247.423 220.511 243.246 220.515V220.515ZM243.246 195.462C241.407 195.462 239.609 196.007 238.079 197.029C236.55 198.051 235.358 199.504 234.654 201.203C233.95 202.902 233.766 204.772 234.125 206.576C234.484 208.38 235.369 210.038 236.67 211.338C237.971 212.639 239.628 213.524 241.432 213.883C243.236 214.242 245.106 214.058 246.805 213.354C248.504 212.65 249.957 211.458 250.979 209.929C252.001 208.399 252.546 206.601 252.546 204.762C252.543 202.296 251.562 199.933 249.819 198.189C248.075 196.446 245.712 195.465 243.246 195.462V195.462Z" fill="white"></path>
<path d="M245.465 211.753C245.114 210.842 244.454 210.083 243.6 209.609C242.746 209.136 241.753 208.978 240.794 209.164C240.813 209.12 240.822 209.073 240.823 209.025L242.115 208.448C243.019 208.064 243.763 207.379 244.22 206.51C244.677 205.64 244.819 204.639 244.623 203.677C244.487 203.076 244.22 202.513 243.841 202.027C243.461 201.542 242.979 201.147 242.428 200.87C241.877 200.594 241.272 200.444 240.656 200.43C240.041 200.415 239.429 200.538 238.866 200.789L235.82 202.148C235.82 202.136 235.82 202.124 235.812 202.112C235.8 202.088 235.786 202.065 235.769 202.044C236.519 201.479 237.056 200.677 237.292 199.768C237.528 198.859 237.45 197.897 237.069 197.039C236.224 194.751 233.228 194.569 231.247 195.453L223.291 198.668L225.69 196.232C226.443 195.438 226.866 194.387 226.874 193.293C226.882 192.198 226.474 191.142 225.732 190.337C225.335 189.935 224.861 189.618 224.337 189.405C223.814 189.193 223.252 189.089 222.688 189.101C222.123 189.112 221.566 189.239 221.052 189.472C220.537 189.706 220.076 190.042 219.696 190.46L191.396 221.36L201.071 230.68C204.076 233.575 207.877 235.506 211.987 236.226C216.097 236.947 220.328 236.423 224.138 234.723L241.385 226.991C242.29 226.607 243.033 225.922 243.49 225.052C243.947 224.182 244.09 223.182 243.894 222.219C243.698 221.354 243.232 220.575 242.562 219.994C241.892 219.413 241.055 219.061 240.171 218.99C240.185 218.923 240.181 218.854 240.158 218.79C240.135 218.731 240.098 218.678 240.049 218.637C240 218.596 239.942 218.567 239.879 218.554L243.064 217.133C244.071 216.707 244.879 215.914 245.324 214.916C245.77 213.917 245.82 212.787 245.465 211.753V211.753Z" fill="#FAA896"></path>
<path opacity="0.2" d="M230.066 204.763C229.975 204.763 229.887 204.731 229.817 204.673C229.747 204.615 229.699 204.534 229.682 204.445C229.665 204.355 229.68 204.263 229.724 204.183C229.768 204.103 229.839 204.041 229.924 204.008L235.305 201.891C235.353 201.872 235.404 201.863 235.456 201.864C235.507 201.865 235.558 201.876 235.605 201.896C235.652 201.917 235.695 201.946 235.73 201.983C235.766 202.02 235.794 202.064 235.813 202.112C235.832 202.159 235.841 202.21 235.84 202.262C235.839 202.313 235.828 202.364 235.808 202.411C235.787 202.458 235.758 202.501 235.721 202.536C235.684 202.572 235.64 202.6 235.593 202.619L230.209 204.735C230.164 204.754 230.115 204.763 230.066 204.763V204.763Z" fill="#0C0C0C"></path>
<path opacity="0.2" d="M233.071 212.375C232.98 212.375 232.892 212.344 232.822 212.286C232.752 212.228 232.704 212.147 232.687 212.058C232.67 211.969 232.684 211.876 232.727 211.797C232.771 211.717 232.841 211.655 232.925 211.621L240.287 208.659C240.384 208.62 240.491 208.622 240.586 208.662C240.682 208.703 240.757 208.78 240.796 208.876C240.834 208.973 240.833 209.08 240.792 209.176C240.752 209.271 240.674 209.346 240.578 209.385L233.216 212.346C233.17 212.365 233.121 212.375 233.071 212.375V212.375Z" fill="#0C0C0C"></path>
<path opacity="0.2" d="M236.278 220.638C236.187 220.638 236.098 220.606 236.028 220.547C235.957 220.489 235.909 220.407 235.893 220.317C235.877 220.227 235.892 220.134 235.937 220.054C235.983 219.975 236.054 219.913 236.14 219.881L239.65 218.564C239.698 218.545 239.75 218.536 239.802 218.538C239.853 218.539 239.904 218.551 239.951 218.572C239.999 218.593 240.041 218.623 240.077 218.661C240.112 218.698 240.14 218.743 240.158 218.791C240.176 218.84 240.184 218.891 240.183 218.943C240.181 218.994 240.169 219.045 240.147 219.092C240.125 219.139 240.095 219.181 240.057 219.216C240.019 219.251 239.974 219.278 239.925 219.296L236.415 220.613C236.372 220.63 236.325 220.638 236.278 220.638Z" fill="#0C0C0C"></path>
<path d="M253.649 151.168C253.48 151.168 253.313 151.122 253.169 151.034C253.024 150.945 252.906 150.819 252.828 150.668C250.728 146.577 248.118 141.483 248.412 136.145C248.647 131.898 250.637 128.128 252.562 124.483C253.805 122.28 254.864 119.979 255.728 117.602C256.783 114.323 257.048 110.841 256.503 107.44C255.958 104.039 254.618 100.815 252.591 98.03C252.446 97.8334 252.384 97.587 252.42 97.3449C252.455 97.1028 252.586 96.8848 252.782 96.7389C252.979 96.5931 253.225 96.5312 253.467 96.5671C253.709 96.6029 253.927 96.7335 254.073 96.93C256.273 99.9534 257.728 103.453 258.32 107.145C258.912 110.837 258.624 114.616 257.479 118.176C256.584 120.651 255.485 123.047 254.192 125.339C252.275 128.97 250.465 132.398 250.253 136.239C249.986 141.079 252.367 145.723 254.468 149.821C254.54 149.961 254.574 150.118 254.568 150.275C254.562 150.433 254.516 150.586 254.434 150.721C254.352 150.855 254.237 150.967 254.099 151.044C253.962 151.121 253.807 151.162 253.649 151.163V151.168Z" fill="white"></path>
<path d="M268.448 165.554C268.244 165.554 268.045 165.486 267.884 165.361C267.722 165.235 267.607 165.06 267.555 164.862C267.504 164.664 267.52 164.455 267.601 164.267C267.682 164.079 267.823 163.924 268.002 163.825C271.418 161.941 271.802 156.698 270.195 152.717C269.4 150.887 268.469 149.119 267.409 147.429C265.994 145.239 264.843 142.889 263.981 140.429C263.101 137.427 263.045 134.243 263.821 131.212C264.596 128.182 266.174 125.416 268.388 123.206C268.475 123.121 268.578 123.055 268.69 123.01C268.803 122.966 268.923 122.944 269.044 122.945C269.165 122.947 269.284 122.973 269.395 123.021C269.506 123.069 269.607 123.138 269.691 123.225C269.775 123.312 269.842 123.414 269.887 123.527C269.931 123.639 269.953 123.759 269.952 123.88C269.95 124.001 269.924 124.121 269.876 124.232C269.828 124.343 269.759 124.443 269.672 124.528C267.698 126.499 266.291 128.965 265.6 131.668C264.909 134.371 264.958 137.21 265.743 139.887C266.562 142.209 267.654 144.427 268.995 146.493C270.104 148.263 271.077 150.114 271.905 152.032C273.784 156.692 273.366 162.976 268.892 165.443C268.756 165.517 268.603 165.555 268.448 165.554V165.554Z" fill="white"></path>
<path d="M223.843 245.9L88.1204 302.068C83.2269 304.07 77.8561 304.604 72.6643 303.603C67.4726 302.603 62.6847 300.112 58.8855 296.435C55.0863 292.758 52.4402 288.054 51.2708 282.898C50.1013 277.741 50.4591 272.356 52.3003 267.4L92.7803 156.84C98.0133 142.749 112.756 134.646 126.848 139.88C130.199 141.124 133.272 143.016 135.891 145.448C138.51 147.88 140.625 150.804 142.114 154.053C143.604 157.302 144.438 160.812 144.571 164.384C144.703 167.956 144.131 171.518 142.886 174.869L124.423 227.198L203.968 196.532" fill="#000000"></path>
<path d="M223.507 246.4C223.435 246.4 223.364 246.378 223.304 246.338C223.245 246.297 223.198 246.24 223.171 246.173L203.423 197.137L124.148 227.737C124.082 227.763 124.011 227.768 123.942 227.754C123.873 227.739 123.81 227.705 123.76 227.655C123.711 227.605 123.677 227.542 123.662 227.473C123.648 227.404 123.653 227.333 123.679 227.267L135.935 195.804C135.972 195.717 136.041 195.648 136.128 195.611C136.215 195.574 136.313 195.573 136.401 195.607C136.489 195.642 136.561 195.709 136.6 195.795C136.639 195.881 136.643 195.979 136.611 196.068L124.654 226.768L203.496 196.34C203.585 196.306 203.683 196.308 203.77 196.345C203.857 196.383 203.926 196.453 203.963 196.54L223.844 245.907C223.88 245.996 223.879 246.096 223.841 246.185C223.804 246.274 223.733 246.344 223.644 246.38C223.6 246.395 223.554 246.402 223.507 246.4V246.4Z" fill="#0C0C0C"></path>
<path d="M99.2503 237.463C99.1661 237.463 99.0848 237.433 99.02 237.379C98.9553 237.325 98.9112 237.25 98.8955 237.168C98.8798 237.085 98.8934 236.999 98.9339 236.926C98.9743 236.852 99.039 236.794 99.1172 236.763L123.947 226.993C124.037 226.958 124.137 226.959 124.225 226.998C124.313 227.036 124.383 227.108 124.418 227.198C124.454 227.288 124.452 227.388 124.413 227.476C124.375 227.564 124.303 227.634 124.213 227.669L99.3833 237.439C99.3408 237.455 99.2957 237.463 99.2503 237.463Z" fill="#0C0C0C"></path>
<path d="M105.028 295.5C104.944 295.501 104.862 295.472 104.796 295.418C104.73 295.365 104.685 295.29 104.669 295.207C104.653 295.124 104.666 295.038 104.706 294.964C104.746 294.889 104.812 294.831 104.89 294.8L223.368 245.693C223.413 245.672 223.461 245.661 223.51 245.659C223.558 245.658 223.607 245.666 223.653 245.684C223.698 245.702 223.74 245.729 223.775 245.763C223.81 245.797 223.837 245.838 223.856 245.883C223.875 245.928 223.885 245.977 223.884 246.026C223.884 246.075 223.873 246.123 223.854 246.168C223.834 246.213 223.805 246.253 223.77 246.287C223.734 246.32 223.692 246.346 223.646 246.363L105.167 295.471C105.123 295.489 105.076 295.499 105.028 295.5V295.5Z" fill="#0C0C0C"></path>
</svg>