<svg class="border shadow-md" viewBox="0 0 1348.5511111111111 758.5600000000001" xmlns="http://www.w3.org/2000/svg" preserveAspectRatio="none" style="width: 1348.55px; height: 758.56px;"><rect class="bg" id="bg" x="0" y="0" width="1348.5511111111111" height="758.5600000000001" fill="#faf7f3"></rect><g transform="translate(0 0)"><path d="M371,465.5Q189,594,201.5,359.5Q214,125,383.5,231Q553,337,371,465.5Z" fill="#000000"></path></g><g transform="translate(168.5688888888889 168.5688888888889)"><path d="M207,236.5Q90,304,94.5,175.5Q99,47,211.5,108Q324,169,207,236.5Z" fill="#000000" opacity="0.3"></path></g><g transform="translate(0 674.2755555555556)"><path d="M410,478Q175,619,174,335.5Q173,52,409,194.5Q645,337,410,478Z" fill="#000000"></path></g><g transform="translate(168.5688888888889 842.8444444444444)"><path d="M213,234.5Q93,300,92.5,167.5Q92,35,212.5,102Q333,169,213,234.5Z" fill="#000000" opacity="0.3"></path></g><g transform="translate(0 1348.5511111111111)"><path d="M408.5,473Q337,609,238,473Q139,337,238,203.5Q337,70,408.5,203.5Q480,337,408.5,473Z" fill="#000000"></path></g><g transform="translate(168.5688888888889 1517.1200000000001)"><path d="M244.5,228.5Q169,288,118.5,228.5Q68,169,118.5,109Q169,49,244.5,109Q320,169,244.5,228.5Z" fill="#000000" opacity="0.3"></path></g><g transform="translate(674.2755555555556 -337.1377777777778)"><path d="M400.5,473.5Q180,610,187,349.5Q194,89,407.5,213Q621,337,400.5,473.5Z" fill="#000000"></path></g><g transform="translate(842.8444444444444 -168.5688888888889)"><path d="M204.5,230.5Q97,292,99,171.5Q101,51,206.5,110Q312,169,204.5,230.5Z" fill="#000000" opacity="0.3"></path></g><g transform="translate(674.2755555555556 337.1377777777778)"><path d="M538.5,421.5Q435,506,315,544.5Q195,583,124,460Q53,337,127.5,220.5Q202,104,314.5,143Q427,182,534.5,259.5Q642,337,538.5,421.5Z" fill="#000000"></path></g><g transform="translate(842.8444444444444 505.7066666666667)"><path d="M264.5,230.5Q240,292,174,282.5Q108,273,94,221Q80,169,90,109.5Q100,50,167,52.5Q234,55,261.5,112Q289,169,264.5,230.5Z" fill="#000000" opacity="0.3"></path></g><g transform="translate(674.2755555555556 1011.4133333333334)"><path d="M387.5,433.5Q226,530,219.5,326Q213,122,381,229.5Q549,337,387.5,433.5Z" fill="#000000"></path></g><g transform="translate(842.8444444444444 1179.9822222222224)"><path d="M225.5,206Q126,243,113.5,147Q101,51,213,110Q325,169,225.5,206Z" fill="#000000" opacity="0.3"></path></g><g transform="translate(1348.5511111111111 0)"><path d="M533,495.5Q440,654,284,571.5Q128,489,117.5,329.5Q107,170,263.5,126Q420,82,523,209.5Q626,337,533,495.5Z" fill="#000000"></path></g><g transform="translate(1517.1200000000001 168.5688888888889)"><path d="M259.5,243.5Q217,318,132,287.5Q47,257,51,171.5Q55,86,133,61.5Q211,37,256.5,103Q302,169,259.5,243.5Z" fill="#000000" opacity="0.3"></path></g><g transform="translate(1348.5511111111111 674.2755555555556)"><path d="M411,461Q194,585,183.5,319Q173,53,400.5,195Q628,337,411,461Z" fill="#000000"></path></g><g transform="translate(1517.1200000000001 842.8444444444444)"><path d="M184.5,221.5Q108,274,97.5,150.5Q87,27,174,98Q261,169,184.5,221.5Z" fill="#000000" opacity="0.3"></path></g><g transform="translate(1348.5511111111111 1348.5511111111111)"><path d="M417.5,420.5Q241,504,224.5,308.5Q208,113,401,225Q594,337,417.5,420.5Z" fill="#000000"></path></g><g transform="translate(1517.1200000000001 1517.1200000000001)"><path d="M171.5,237.5Q89,306,105,196.5Q121,87,187.5,128Q254,169,171.5,237.5Z" fill="#000000" opacity="0.3"></path></g></svg>