<svg viewBox="473.0999999999999 286.93055555555554 630.7999999999997 275.1388888888887" xmlns="http://www.w3.org/2000/svg" xmlns:xlink="http://www.w3.org/1999/xlink" overflow="visible" width="630.7999999999997px" height="275.1388888888887px"><defs><polygon id="masterstickersbooks-path-1" points="0 0.608157576 556.361824 0.608157576 556.361824 131 0 131"/></defs><g id="Master/Stickers/Books" stroke="none" stroke-width="1" fill="none" fill-rule="evenodd"><g id="Books" transform="translate(475.000000, 293.000000)"><g id="Group-28"><g id="Group-3" transform="translate(0.000000, 130.532899)"><mask id="masterstickersbooks-mask-2" fill="#fff"><use xlink:href="#masterstickersbooks-path-1"/></mask><g id="Clip-2"/><path d="M556.361824,0.608157576 L65.0032773,0.608157576 C29.1030504,0.608157576 0,29.7973394 0,65.8038141 L0,65.8051374 C0,101.810289 29.1030504,131.000794 65.0032773,131.000794 L556.361824,131.000794 L556.361824,0.608157576 Z" id="Fill-1" fill="#B6CCFC" mask="url(#masterstickersbooks-mask-2)"/></g><path d="M556.361824,150.231726 L311.857412,150.231726 C286.469588,150.231726 265.888076,170.874151 265.888076,196.33711 C265.888076,221.80007 286.469588,242.442494 311.857412,242.442494 L556.361824,242.442494 L556.361824,150.231726 Z" id="Fill-4" fill="#FFF"/><path d="M624.932035,0.000264646465 L133.57217,0.000264646465 C97.6719429,0.000264646465 68.5702118,29.1894465 68.5702118,65.1959212 L68.5702118,65.1972444 C68.5702118,101.202396 97.6719429,130.392901 133.57217,130.392901 L624.932035,130.392901 L624.932035,0.000264646465 Z" id="Fill-6" fill="#4965CC"/><path d="M624.932035,19.090802 L380.426304,19.090802 C355.038481,19.090802 334.456968,39.7332263 334.456968,65.1961859 L334.456968,65.1961859 C334.456968,90.6591455 355.038481,111.30157 380.426304,111.30157 L624.932035,111.30157 L624.932035,19.090802 Z" id="Fill-8" fill="#FFF"/><path d="M624.932035,44.8279354 L340.463867,44.8279354 C339.137943,44.8279354 338.061371,43.749501 338.061371,42.4196525 C338.061371,41.089804 339.137943,40.0113697 340.463867,40.0113697 L624.932035,40.0113697 C626.25796,40.0113697 627.333212,41.089804 627.333212,42.4196525 C627.333212,43.749501 626.25796,44.8279354 624.932035,44.8279354" id="Fill-10" fill="#21211D"/><path d="M624.932035,67.604601 L334.456968,67.604601 C333.131044,67.604601 332.055792,66.5261667 332.055792,65.1963182 C332.055792,63.8664697 333.131044,62.7880354 334.456968,62.7880354 L624.932035,62.7880354 C626.25796,62.7880354 627.333212,63.8664697 627.333212,65.1963182 C627.333212,66.5261667 626.25796,67.604601 624.932035,67.604601" id="Fill-12" fill="#21211D"/><path d="M624.932035,89.1885051 L340.463867,89.1885051 C339.137943,89.1885051 338.061371,88.1100707 338.061371,86.7802222 C338.061371,85.4503737 339.137943,84.3719394 340.463867,84.3719394 L624.932035,84.3719394 C626.25796,84.3719394 627.333212,85.4503737 627.333212,86.7802222 C627.333212,88.1100707 626.25796,89.1885051 624.932035,89.1885051" id="Fill-14" fill="#21211D"/><path d="M557.572966,176.564579 L273.104798,176.564579 C271.778874,176.564579 270.702303,175.486144 270.702303,174.156296 C270.702303,172.826447 271.778874,171.748013 273.104798,171.748013 L557.572966,171.748013 C558.898891,171.748013 559.974143,172.826447 559.974143,174.156296 C559.974143,175.486144 558.898891,176.564579 557.572966,176.564579" id="Fill-16" fill="#21211D"/><path d="M557.572966,199.341244 L267.097899,199.341244 C265.771975,199.341244 264.696723,198.26281 264.696723,196.932962 C264.696723,195.603113 265.771975,194.524679 267.097899,194.524679 L557.572966,194.524679 C558.898891,194.524679 559.974143,195.603113 559.974143,196.932962 C559.974143,198.26281 558.898891,199.341244 557.572966,199.341244" id="Fill-18" fill="#21211D"/><path d="M557.572966,220.92581 L273.104798,220.92581 C271.778874,220.92581 270.702303,219.847376 270.702303,218.517527 C270.702303,217.187679 271.778874,216.109244 273.104798,216.109244 L557.572966,216.109244 C558.898891,216.109244 559.974143,217.187679 559.974143,218.517527 C559.974143,219.847376 558.898891,220.92581 557.572966,220.92581" id="Fill-20" fill="#21211D"/><path d="M288.320473,74.7221354 L132.654313,74.7221354 C126.626305,74.7221354 121.740834,69.8208828 121.740834,63.7763576 C121.740834,57.7318323 126.626305,52.8305798 132.654313,52.8305798 L288.320473,52.8305798 C294.347162,52.8305798 299.232633,57.7318323 299.232633,63.7763576 C299.232633,69.8208828 294.347162,74.7221354 288.320473,74.7221354" id="Fill-22" fill="#B6CCFC"/><path d="M223.152939,201.130916 L99.3089647,201.130916 C93.2809563,201.130916 88.3941664,196.229664 88.3941664,190.185138 C88.3941664,184.140613 93.2809563,179.239361 99.3089647,179.239361 L223.152939,179.239361 C229.179629,179.239361 234.065099,184.140613 234.065099,190.185138 C234.065099,196.229664 229.179629,201.130916 223.152939,201.130916" id="Fill-24" fill="#4965CC"/><path d="M68.5699479,190.185138 C68.5699479,199.529805 61.0154773,207.106633 51.6983849,207.106633 C42.3799731,207.106633 34.8268218,199.529805 34.8268218,190.185138 C34.8268218,180.840472 42.3799731,173.263643 51.6983849,173.263643 C61.0154773,173.263643 68.5699479,180.840472 68.5699479,190.185138" id="Fill-26" fill="#4965CC"/></g></g></g></svg>