<svg viewBox="163.5999999999999 24.458333333333485 2658.4999999999995 1589.7916666666663" fill="none" xmlns="http://www.w3.org/2000/svg" xmlns:xlink="http://www.w3.org/1999/xlink" overflow="visible" width="2658.4999999999995px" height="1589.7916666666663px"><g id="Master/Scenes/Work Space"><g id="Hanging Lamp" transform="translate(2245 69) scale(1 1)"><g id="Hanging Lamp/Small Lamp"><g id="Group 12"><g id="Group 107"><path id="Fill 1" fill-rule="evenodd" clip-rule="evenodd" d="M171.257 430.266C171.257 451.747 153.843 469.161 132.362 469.161C110.881 469.161 93.4678 451.747 93.4678 430.266C93.4678 408.785 110.881 391.371 132.362 391.371C153.843 391.371 171.257 408.785 171.257 430.266" fill="#EDC829"/><path id="Fill 3" fill-rule="evenodd" clip-rule="evenodd" d="M244.725 430.266H20L97.429 310.701H167.295L244.725 430.266Z" fill="#B6CCFC"/><path id="Fill 6" fill-rule="evenodd" clip-rule="evenodd" d="M130.756 310.701V2.47504C130.756 1.58704 131.475 0.868042 132.363 0.868042C133.251 0.868042 133.97 1.58704 133.97 2.47504V310.701C133.97 311.589 133.251 312.308 132.363 312.308C131.475 312.308 130.756 311.589 130.756 310.701Z" fill="#21211D"/><path id="Fill 8" fill-rule="evenodd" clip-rule="evenodd" d="M231.916 412.095H32.8092C31.9212 412.095 31.2012 411.376 31.2012 410.488C31.2012 409.6 31.9212 408.881 32.8092 408.881H231.916C232.804 408.881 233.523 409.6 233.523 410.488C233.523 411.376 232.804 412.095 231.916 412.095" fill="#21211D"/><path id="Fill 10" fill-rule="evenodd" clip-rule="evenodd" d="M140.308 458.901C139.625 458.901 138.992 458.463 138.776 457.777C138.508 456.931 138.978 456.028 139.824 455.761C154.494 451.128 156.228 439.177 156.295 438.671C156.412 437.792 157.214 437.168 158.093 437.284C158.972 437.397 159.593 438.196 159.484 439.074C159.411 439.663 157.489 453.553 140.792 458.826C140.631 458.877 140.468 458.901 140.308 458.901" fill="white"/></g></g></g></g><g id="Hanging Lamp" transform="translate(2471 195) scale(1 1)"><g id="Hanging Lamp/Small Lamp"><g id="Group 12"><g id="Group 107"><path id="Fill 1" fill-rule="evenodd" clip-rule="evenodd" d="M171.257 430.266C171.257 451.747 153.843 469.161 132.362 469.161C110.881 469.161 93.4678 451.747 93.4678 430.266C93.4678 408.785 110.881 391.371 132.362 391.371C153.843 391.371 171.257 408.785 171.257 430.266" fill="#EDC829"/><path id="Fill 3" fill-rule="evenodd" clip-rule="evenodd" d="M244.725 430.266H20L97.429 310.701H167.295L244.725 430.266Z" fill="#B6CCFC"/><path id="Fill 6" fill-rule="evenodd" clip-rule="evenodd" d="M130.756 310.701V2.47504C130.756 1.58704 131.475 0.868042 132.363 0.868042C133.251 0.868042 133.97 1.58704 133.97 2.47504V310.701C133.97 311.589 133.251 312.308 132.363 312.308C131.475 312.308 130.756 311.589 130.756 310.701Z" fill="#21211D"/><path id="Fill 8" fill-rule="evenodd" clip-rule="evenodd" d="M231.916 412.095H32.8092C31.9212 412.095 31.2012 411.376 31.2012 410.488C31.2012 409.6 31.9212 408.881 32.8092 408.881H231.916C232.804 408.881 233.523 409.6 233.523 410.488C233.523 411.376 232.804 412.095 231.916 412.095" fill="#21211D"/><path id="Fill 10" fill-rule="evenodd" clip-rule="evenodd" d="M140.308 458.901C139.625 458.901 138.992 458.463 138.776 457.777C138.508 456.931 138.978 456.028 139.824 455.761C154.494 451.128 156.228 439.177 156.295 438.671C156.412 437.792 157.214 437.168 158.093 437.284C158.972 437.397 159.593 438.196 159.484 439.074C159.411 439.663 157.489 453.553 140.792 458.826C140.631 458.877 140.468 458.901 140.308 458.901" fill="white"/></g></g></g></g><g id="Screen"><g id="Group 8"><path id="Fill 1" fill-rule="evenodd" clip-rule="evenodd" d="M2118.78 925.002H1575.27C1561.76 925.002 1550.81 914.048 1550.81 900.536V608.454C1550.81 594.943 1561.76 583.989 1575.27 583.989H2118.78C2132.29 583.989 2143.25 594.943 2143.25 608.454V900.536C2143.25 914.048 2132.29 925.002 2118.78 925.002" fill="#EDE8D6"/><mask id="mask0b6cf6459-accf-436f-a524-87364ddae246" mask-type="alpha" maskUnits="userSpaceOnUse" x="1528" y="516" width="642" height="500" fill="#ffffff"><path id="Clip 4" fill-rule="evenodd" clip-rule="evenodd" d="M1528 1016H2169.61V516.202H1528V1016Z" fill="#ffffff"/></mask><g mask="url(#mask0b6cf6459-accf-436f-a524-87364ddae246)"><path id="Fill 3" fill-rule="evenodd" clip-rule="evenodd" d="M1579.49 864.873H2114.57V610.734H1579.49V864.873Z" fill="#B6CCFC"/><path id="Fill 5" fill-rule="evenodd" clip-rule="evenodd" d="M1939.5 1016H1754.55C1749.23 1016 1748.3 1008.41 1753.46 1007.12L1756.33 1006.4C1782.7 999.813 1801.65 977.137 1803.8 950.415C1803.94 948.734 1804.01 947.037 1804.01 945.331V925.005H1890.06V945.331C1890.06 974.219 1909.71 999.395 1937.72 1006.4L1940.6 1007.12C1945.75 1008.41 1944.82 1016 1939.5 1016" fill="#EDE8D6"/><path id="Fill 6" fill-rule="evenodd" clip-rule="evenodd" d="M1847.03 879.241C1840.12 879.241 1834.5 884.863 1834.5 891.773C1834.5 898.684 1840.12 904.307 1847.03 904.307C1853.94 904.307 1859.56 898.684 1859.56 891.773C1859.56 884.863 1853.94 879.241 1847.03 879.241M1847.03 906.993C1838.64 906.993 1831.81 900.165 1831.81 891.773C1831.81 883.381 1838.64 876.553 1847.03 876.553C1855.42 876.553 1862.25 883.381 1862.25 891.773C1862.25 900.165 1855.42 906.993 1847.03 906.993" fill="#21211D"/><path id="Fill 7" fill-rule="evenodd" clip-rule="evenodd" d="M1890.06 925.005V931.376L1803.8 950.415C1803.94 948.734 1804.01 947.037 1804.01 945.331V925.005H1890.06Z" fill="#21211D"/></g></g><g id="Group 15"><g id="Group 11"><mask id="mask1b6cf6459-accf-436f-a524-87364ddae246" mask-type="alpha" maskUnits="userSpaceOnUse" x="1635" y="610" width="480" height="255" fill="#ffffff"><path id="Clip 10" fill-rule="evenodd" clip-rule="evenodd" d="M1635.04 610.252H2114.74V864.375H1635.04V610.252Z" fill="#ffffff"/></mask><g mask="url(#mask1b6cf6459-accf-436f-a524-87364ddae246)"><path id="Fill 9" fill-rule="evenodd" clip-rule="evenodd" d="M1635.04 884.639L1818.88 921.546L2169.8 649.849L2129.05 515.727L2027.16 551.47L1635.04 884.639Z" fill="#CDDDF9"/></g></g><g id="Group 14"><mask id="mask2b6cf6459-accf-436f-a524-87364ddae246" mask-type="alpha" maskUnits="userSpaceOnUse" x="1579" y="610" width="344" height="255" fill="#ffffff"><path id="Clip 13" fill-rule="evenodd" clip-rule="evenodd" d="M1579.49 610.252H1922.47V864.375H1579.49V610.252Z" fill="#ffffff"/></mask><g mask="url(#mask2b6cf6459-accf-436f-a524-87364ddae246)"><path id="Fill 12" fill-rule="evenodd" clip-rule="evenodd" d="M1548.42 885.749L1922.47 582.635L1840.9 596.073L1527.99 836.688L1548.42 885.749Z" fill="#CDDDF9"/></g></g></g></g><g id="Chair" transform="matrix(-1 0 0 1 3064 835) scale(1 1)"><g id="Chair/Office Chair "><g id="Group 37"><g id="Group 72"><path id="Fill 30" fill-rule="evenodd" clip-rule="evenodd" d="M712.445 356.091C729.134 361.695 730.905 384.564 715.243 392.603C663.938 418.941 611.348 443.256 554.92 454.122C487.146 467.172 411.793 458.236 358.477 414.408C307.401 372.421 283.982 305.682 270.603 240.931C256.799 174.125 251.191 105.631 253.9 37.4685C254.694 17.4915 271.041 1.66846 291.034 1.66846C309.833 1.66846 325.707 15.7035 327.919 34.3715C338.466 123.387 344.171 334.533 499.644 334.533C618.939 334.533 680.626 345.405 712.445 356.091" fill="#EDC829"/><path id="Fill 32" fill-rule="evenodd" clip-rule="evenodd" d="M724.104 385.02C723.998 385.02 723.891 385.008 723.783 384.983C671.016 372.871 594.202 366.729 495.473 366.729C455.393 366.729 420.799 354.951 392.653 331.72C368.578 311.85 348.545 282.995 333.109 245.955C304.95 178.386 296.677 96.4017 290.635 36.5407C289.446 24.7527 288.322 13.6197 287.164 3.84868C287.087 3.23368 287 2.60968 286.902 1.99568C286.778 1.21668 287.31 0.484676 288.088 0.360676C288.87 0.239676 289.599 0.768676 289.723 1.54668C289.826 2.19268 289.917 2.84868 290 3.50368C291.162 13.3077 292.287 24.4537 293.478 36.2537C299.5 95.9377 307.75 177.678 335.746 244.856C351.001 281.462 370.759 309.946 394.471 329.517C422.092 352.314 456.074 363.873 495.473 363.873C594.416 363.873 671.446 370.039 724.422 382.199C725.191 382.376 725.671 383.142 725.495 383.911C725.343 384.572 724.754 385.02 724.104 385.02" fill="#21211D"/><mask id="mask086fd56be-0eb9-4620-b51f-be93a51a23ec" mask-type="alpha" maskUnits="userSpaceOnUse" x="251" y="388" width="477" height="366" fill="#ffffff"><path id="Clip 35" fill-rule="evenodd" clip-rule="evenodd" d="M251.809 388.148H727.464V753.455H251.809V388.148Z" fill="#ffffff"/></mask><g mask="url(#mask086fd56be-0eb9-4620-b51f-be93a51a23ec)"><path id="Fill 34" fill-rule="evenodd" clip-rule="evenodd" d="M726.037 753.455C725.477 753.455 724.946 753.124 724.718 752.575L602.672 459.219C585.432 417.78 545.291 391.004 500.409 391.004C479.646 391.004 459.363 396.816 441.752 407.811C424.14 418.807 410.013 434.478 400.896 453.132L254.52 752.653C254.175 753.362 253.318 753.657 252.61 753.309C251.901 752.963 251.608 752.108 251.954 751.399L398.33 451.878C407.682 432.744 422.173 416.667 440.239 405.389C458.305 394.11 479.111 388.148 500.409 388.148C546.448 388.148 587.624 415.614 605.308 458.122L727.355 751.477C727.658 752.206 727.313 753.042 726.585 753.345C726.406 753.419 726.22 753.455 726.037 753.455" fill="#21211D"/></g></g></g></g></g><g id="Small Objects" transform="translate(1210 486) scale(1 1)"><g id="Small Objects/Books"><g id="Group 28"><g id="Group 3"><mask id="mask0c4e54bf4-36d4-4e15-9c79-53ea53d28aa2" mask-type="alpha" maskUnits="userSpaceOnUse" x="47" y="466" width="270" height="64" fill="#ffffff"><path id="Clip 2" fill-rule="evenodd" clip-rule="evenodd" d="M47 466.297H316.809V530H47V466.297Z" fill="#ffffff"/></mask><g mask="url(#mask0c4e54bf4-36d4-4e15-9c79-53ea53d28aa2)"><path id="Fill 1" fill-rule="evenodd" clip-rule="evenodd" d="M316.809 466.297H78.5235C61.1136 466.297 47 480.557 47 498.148V498.149C47 515.739 61.1136 530 78.5235 530H316.809V466.297Z" fill="#B6CCFC"/></g></g><path id="Fill 4" fill-rule="evenodd" clip-rule="evenodd" d="M317 476H198.314C185.991 476 176 486.074 176 498.5C176 510.926 185.991 521 198.314 521H317V476Z" fill="white"/><path id="Fill 6" fill-rule="evenodd" clip-rule="evenodd" d="M350 403H111.545C94.1229 403 80 417.103 80 434.5V434.5C80 451.896 94.1229 466 111.545 466H350V403Z" fill="#4965CC"/><path id="Fill 8" fill-rule="evenodd" clip-rule="evenodd" d="M350 412H231.314C218.991 412 209 422.074 209 434.5V434.5C209 446.926 218.991 457 231.314 457H350V412Z" fill="white"/><path id="Fill 10" fill-rule="evenodd" clip-rule="evenodd" d="M349.838 425H212.163C211.521 425 211 424.552 211 424C211 423.448 211.521 423 212.163 423H349.838C350.48 423 351 423.448 351 424C351 424.552 350.48 425 349.838 425" fill="#21211D"/><path id="Fill 12" fill-rule="evenodd" clip-rule="evenodd" d="M349.837 436H209.163C208.521 436 208 435.552 208 435C208 434.448 208.521 434 209.163 434H349.837C350.479 434 351 434.448 351 435C351 435.552 350.479 436 349.837 436" fill="#21211D"/><path id="Fill 14" fill-rule="evenodd" clip-rule="evenodd" d="M349.838 446H212.163C211.521 446 211 445.552 211 445C211 444.448 211.521 444 212.163 444H349.838C350.48 444 351 444.448 351 445C351 445.552 350.48 446 349.838 446" fill="#21211D"/><path id="Fill 16" fill-rule="evenodd" clip-rule="evenodd" d="M317.838 488H180.163C179.521 488 179 487.552 179 487C179 486.448 179.521 486 180.163 486H317.838C318.48 486 319 486.448 319 487C319 487.552 318.48 488 317.838 488" fill="#21211D"/><path id="Fill 18" fill-rule="evenodd" clip-rule="evenodd" d="M317.837 499H177.163C176.521 499 176 498.552 176 498C176 497.448 176.521 497 177.163 497H317.837C318.479 497 319 497.448 319 498C319 498.552 318.479 499 317.837 499" fill="#21211D"/><path id="Fill 20" fill-rule="evenodd" clip-rule="evenodd" d="M317.838 510H180.163C179.521 510 179 509.552 179 509C179 508.448 179.521 508 180.163 508H317.838C318.48 508 319 508.448 319 509C319 509.552 318.48 510 317.838 510" fill="#21211D"/><path id="Fill 22" fill-rule="evenodd" clip-rule="evenodd" d="M186.713 439H111.288C108.367 439 106 436.537 106 433.5C106 430.463 108.367 428 111.288 428H186.713C189.633 428 192 430.463 192 433.5C192 436.537 189.633 439 186.713 439" fill="#B6CCFC"/><path id="Fill 24" fill-rule="evenodd" clip-rule="evenodd" d="M155.681 501H95.3199C92.3818 501 90 498.537 90 495.5C90 492.463 92.3818 490 95.3199 490H155.681C158.619 490 161 492.463 161 495.5C161 498.537 158.619 501 155.681 501" fill="#4965CC"/><path id="Fill 26" fill-rule="evenodd" clip-rule="evenodd" d="M80 495C80 499.418 76.4179 503 72 503C67.5815 503 64 499.418 64 495C64 490.582 67.5815 487 72 487C76.4179 487 80 490.582 80 495" fill="#4965CC"/></g></g></g><g id="Books"><g id="Group 28"><g id="Group 3"><mask id="mask3b6cf6459-accf-436f-a524-87364ddae246" mask-type="alpha" maskUnits="userSpaceOnUse" x="2146" y="948" width="268" height="63" fill="#ffffff"><path id="Clip 2" fill-rule="evenodd" clip-rule="evenodd" d="M2146 948.069H2413.55V1010.78H2146V948.069Z" fill="#ffffff"/></mask><g mask="url(#mask3b6cf6459-accf-436f-a524-87364ddae246)"><path id="Fill 1_2" fill-rule="evenodd" clip-rule="evenodd" d="M2413.55 948.069H2177.26C2160 948.069 2146 962.106 2146 979.422V979.423C2146 996.738 2160 1010.78 2177.26 1010.78H2413.55V948.069Z" fill="#B6CCFC"/></g></g><path id="Fill 4" fill-rule="evenodd" clip-rule="evenodd" d="M2413.55 957.25H2295.97C2283.76 957.25 2273.86 967.177 2273.86 979.423C2273.86 991.668 2283.76 1001.6 2295.97 1001.6H2413.55V957.25Z" fill="white"/><path id="Fill 6_2" fill-rule="evenodd" clip-rule="evenodd" d="M2446.52 885.001H2210.23C2192.97 885.001 2178.97 899.039 2178.97 916.355V916.355C2178.97 933.671 2192.97 947.709 2210.23 947.709H2446.52V885.001Z" fill="#2E4C9E"/><path id="Fill 8" fill-rule="evenodd" clip-rule="evenodd" d="M2446.52 894.182H2328.94C2316.74 894.182 2306.84 904.109 2306.84 916.355V916.355C2306.84 928.6 2316.74 938.528 2328.94 938.528H2446.52V894.182Z" fill="white"/><path id="Fill 10" fill-rule="evenodd" clip-rule="evenodd" d="M2446.52 906.559H2309.73C2309.09 906.559 2308.57 906.041 2308.57 905.401C2308.57 904.762 2309.09 904.243 2309.73 904.243H2446.52C2447.16 904.243 2447.68 904.762 2447.68 905.401C2447.68 906.041 2447.16 906.559 2446.52 906.559" fill="#21211D"/><path id="Fill 12_2" fill-rule="evenodd" clip-rule="evenodd" d="M2446.53 917.513H2306.84C2306.2 917.513 2305.68 916.994 2305.68 916.355C2305.68 915.715 2306.2 915.197 2306.84 915.197H2446.53C2447.16 915.197 2447.68 915.715 2447.68 916.355C2447.68 916.994 2447.16 917.513 2446.53 917.513" fill="#21211D"/><path id="Fill 14" fill-rule="evenodd" clip-rule="evenodd" d="M2446.52 927.893H2309.73C2309.09 927.893 2308.57 927.374 2308.57 926.735C2308.57 926.095 2309.09 925.577 2309.73 925.577H2446.52C2447.16 925.577 2447.68 926.095 2447.68 926.735C2447.68 927.374 2447.16 927.893 2446.52 927.893" fill="#21211D"/><path id="Fill 16" fill-rule="evenodd" clip-rule="evenodd" d="M2414.13 969.914H2277.33C2276.7 969.914 2276.18 969.395 2276.18 968.755C2276.18 968.116 2276.7 967.597 2277.33 967.597H2414.13C2414.77 967.597 2415.29 968.116 2415.29 968.755C2415.29 969.395 2414.77 969.914 2414.13 969.914" fill="#21211D"/><path id="Fill 18" fill-rule="evenodd" clip-rule="evenodd" d="M2414.13 980.867H2274.45C2273.81 980.867 2273.29 980.349 2273.29 979.709C2273.29 979.069 2273.81 978.551 2274.45 978.551H2414.13C2414.77 978.551 2415.29 979.069 2415.29 979.709C2415.29 980.349 2414.77 980.867 2414.13 980.867" fill="#21211D"/><path id="Fill 20" fill-rule="evenodd" clip-rule="evenodd" d="M2414.13 991.248H2277.33C2276.7 991.248 2276.18 990.729 2276.18 990.089C2276.18 989.45 2276.7 988.931 2277.33 988.931H2414.13C2414.77 988.931 2415.29 989.45 2415.29 990.089C2415.29 990.729 2414.77 991.248 2414.13 991.248" fill="#21211D"/><path id="Fill 22" fill-rule="evenodd" clip-rule="evenodd" d="M2284.65 920.936H2209.79C2206.89 920.936 2204.54 918.579 2204.54 915.672C2204.54 912.765 2206.89 910.408 2209.79 910.408H2284.65C2287.55 910.408 2289.9 912.765 2289.9 915.672C2289.9 918.579 2287.55 920.936 2284.65 920.936" fill="#B6CCFC"/><path id="Fill 24" fill-rule="evenodd" clip-rule="evenodd" d="M2253.31 981.728H2193.76C2190.86 981.728 2188.51 979.371 2188.51 976.464C2188.51 973.557 2190.86 971.2 2193.76 971.2H2253.31C2256.21 971.2 2258.56 973.557 2258.56 976.464C2258.56 979.371 2256.21 981.728 2253.31 981.728" fill="#2E4C9E"/><path id="Fill 26" fill-rule="evenodd" clip-rule="evenodd" d="M2178.97 976.464C2178.97 980.958 2175.34 984.602 2170.86 984.602C2166.38 984.602 2162.75 980.958 2162.75 976.464C2162.75 971.97 2166.38 968.326 2170.86 968.326C2175.34 968.326 2178.97 971.97 2178.97 976.464" fill="#2E4C9E"/></g></g><g id="Table"><path id="Fill 1_3" fill-rule="evenodd" clip-rule="evenodd" d="M1639.99 1590C1639.09 1590 1638.27 1589.52 1638.04 1588.79L1471.28 1064.3C1469.14 1057.59 1462.08 1055.21 1456.67 1055.21H1456.63C1451.2 1055.23 1444.13 1057.63 1442.04 1064.36L1278.96 1588.78C1278.69 1589.64 1277.6 1590.16 1276.53 1589.95C1275.45 1589.74 1274.79 1588.87 1275.06 1588L1438.13 1063.59C1440.32 1056.57 1447.57 1052.02 1456.62 1052H1456.67C1465.69 1052 1472.95 1056.51 1475.17 1063.51L1641.94 1588C1642.21 1588.86 1641.56 1589.73 1640.48 1589.95C1640.32 1589.98 1640.15 1590 1639.99 1590" fill="#21211D"/><g id="Group 5"><mask id="mask4b6cf6459-accf-436f-a524-87364ddae246" mask-type="alpha" maskUnits="userSpaceOnUse" x="2131" y="1052" width="368" height="538" fill="#ffffff"><path id="Clip 4_2" fill-rule="evenodd" clip-rule="evenodd" d="M2131.29 1052.16H2498.52V1590H2131.29V1052.16Z" fill="#ffffff"/></mask><g mask="url(#mask4b6cf6459-accf-436f-a524-87364ddae246)"><path id="Fill 3_2" fill-rule="evenodd" clip-rule="evenodd" d="M2496.51 1590C2495.61 1590 2494.79 1589.52 2494.56 1588.79L2327.69 1064.45C2325.55 1057.73 2318.44 1055.32 2313.03 1055.37C2307.61 1055.38 2300.53 1057.79 2298.43 1064.52L2135.25 1588.78C2134.99 1589.64 2133.89 1590.16 2132.82 1589.95C2131.74 1589.74 2131.08 1588.87 2131.35 1588L2294.53 1063.74C2296.71 1056.72 2303.97 1052.18 2313.02 1052.16H2313.08C2322.1 1052.16 2329.36 1056.67 2331.59 1063.66L2498.46 1588C2498.73 1588.86 2498.08 1589.73 2497 1589.95C2496.84 1589.98 2496.67 1590 2496.51 1590" fill="#21211D"/></g></g><mask id="mask5b6cf6459-accf-436f-a524-87364ddae246" mask-type="alpha" maskUnits="userSpaceOnUse" x="1275" y="1011" width="1224" height="579" fill="#ffffff"><path id="Clip 7" fill-rule="evenodd" clip-rule="evenodd" d="M1275 1590H2499V1011H1275V1590Z" fill="#ffffff"/></mask><g mask="url(#mask5b6cf6459-accf-436f-a524-87364ddae246)"><path id="Fill 6_3" fill-rule="evenodd" clip-rule="evenodd" d="M1335 1068H2439V1011H1335V1068Z" fill="#066952"/><path id="Fill 8_2" fill-rule="evenodd" clip-rule="evenodd" d="M2433.5 1033H1338.5C1337.12 1033 1336 1032.1 1336 1031C1336 1029.9 1337.12 1029 1338.5 1029H2433.5C2434.88 1029 2436 1029.9 2436 1031C2436 1032.1 2434.88 1033 2433.5 1033" fill="white"/></g></g><g id="Book Shelf"><path id="Fill 1_4" fill-rule="evenodd" clip-rule="evenodd" d="M1468.74 412.553L1478.94 512.512H1499.04L1509.24 412.553H1468.74Z" fill="#D6A47F"/><path id="Fill 2" fill-rule="evenodd" clip-rule="evenodd" d="M1864.33 412.553L1874.53 512.512H1894.63L1904.83 412.553H1864.33Z" fill="#D6A47F"/><path id="Fill 3_3" fill-rule="evenodd" clip-rule="evenodd" d="M1478.79 401.159H1496.81V332.66H1478.79V401.159Z" fill="#74262E"/><path id="Fill 4_2" fill-rule="evenodd" clip-rule="evenodd" d="M1460.76 401.159H1478.79V332.66L1460.76 401.159Z" fill="#74262E"/><path id="Fill 5_2" fill-rule="evenodd" clip-rule="evenodd" d="M1697.87 401.159H1715.9V332.66H1697.87V401.159Z" fill="#74262E"/><path id="Fill 6_4" fill-rule="evenodd" clip-rule="evenodd" d="M1733.93 401.159H1715.9V332.66L1733.93 401.159Z" fill="#74262E"/><path id="Fill 7_2" fill-rule="evenodd" clip-rule="evenodd" d="M1554.76 394.463H1613.78V156.001H1554.76V394.463Z" fill="#B6CCFC"/><g id="Group 28_2"><path id="Fill 8_3" fill-rule="evenodd" clip-rule="evenodd" d="M1584.27 351.281C1583.48 351.281 1582.84 350.641 1582.84 349.853V213.211C1582.84 212.422 1583.48 211.782 1584.27 211.782C1585.05 211.782 1585.69 212.422 1585.69 213.211V349.853C1585.69 350.641 1585.05 351.281 1584.27 351.281" fill="#21211D"/><mask id="mask6b6cf6459-accf-436f-a524-87364ddae246" mask-type="alpha" maskUnits="userSpaceOnUse" x="1404" y="156" width="566" height="357" fill="#ffffff"><path id="Clip 11" fill-rule="evenodd" clip-rule="evenodd" d="M1404 512.512H1969.57V156H1404V512.512Z" fill="#ffffff"/></mask><g mask="url(#mask6b6cf6459-accf-436f-a524-87364ddae246)"><path id="Fill 10_2" fill-rule="evenodd" clip-rule="evenodd" d="M1613.93 394.462H1657.09V201.061H1613.93V394.462Z" fill="#2E4C9E"/><path id="Fill 12_3" fill-rule="evenodd" clip-rule="evenodd" d="M1635.51 359.09C1634.72 359.09 1634.08 358.45 1634.08 357.662V247.866C1634.08 247.077 1634.72 246.438 1635.51 246.438C1636.3 246.438 1636.94 247.077 1636.94 247.866V357.662C1636.94 358.45 1636.3 359.09 1635.51 359.09" fill="#21211D"/><path id="Fill 13" fill-rule="evenodd" clip-rule="evenodd" d="M1646.43 225.96C1646.43 231.992 1641.54 236.881 1635.51 236.881C1629.48 236.881 1624.59 231.992 1624.59 225.96C1624.59 219.928 1629.48 215.038 1635.51 215.038C1641.54 215.038 1646.43 219.928 1646.43 225.96" fill="white"/><path id="Fill 14_2" fill-rule="evenodd" clip-rule="evenodd" d="M1640.97 374.415C1640.97 377.431 1638.53 379.875 1635.51 379.875C1632.5 379.875 1630.05 377.431 1630.05 374.415C1630.05 371.399 1632.5 368.954 1635.51 368.954C1638.53 368.954 1640.97 371.399 1640.97 374.415" fill="white"/><path id="Fill 15" fill-rule="evenodd" clip-rule="evenodd" d="M1496.09 394.462H1555.11V201.061H1496.09V394.462Z" fill="#EDC829"/><path id="Fill 16_2" fill-rule="evenodd" clip-rule="evenodd" d="M1525.6 358.315C1524.81 358.315 1524.17 357.675 1524.17 356.887V251.032C1524.17 250.243 1524.81 249.604 1525.6 249.604C1526.39 249.604 1527.03 250.243 1527.03 251.032V356.887C1527.03 357.675 1526.39 358.315 1525.6 358.315" fill="#21211D"/><path id="Fill 17" fill-rule="evenodd" clip-rule="evenodd" d="M1536.52 225.96C1536.52 231.992 1531.63 236.881 1525.6 236.881C1519.57 236.881 1514.68 231.992 1514.68 225.96C1514.68 219.928 1519.57 215.038 1525.6 215.038C1531.63 215.038 1536.52 219.928 1536.52 225.96" fill="white"/><path id="Fill 18_2" fill-rule="evenodd" clip-rule="evenodd" d="M1538.11 382.122H1513.1C1510.61 382.122 1508.6 380.106 1508.6 377.62C1508.6 375.134 1510.61 373.118 1513.1 373.118H1538.11C1540.59 373.118 1542.61 375.134 1542.61 377.62C1542.61 380.106 1540.59 382.122 1538.11 382.122" fill="white"/><path id="Fill 19" fill-rule="evenodd" clip-rule="evenodd" d="M1656.98 394.462H1697.87V247.282H1656.98V394.462Z" fill="#D5962F"/><path id="Fill 20_2" fill-rule="evenodd" clip-rule="evenodd" d="M1677.43 352.769C1676.64 352.769 1676 352.129 1676 351.341V279.788C1676 278.999 1676.64 278.359 1677.43 278.359C1678.22 278.359 1678.85 278.999 1678.85 279.788V351.341C1678.85 352.129 1678.22 352.769 1677.43 352.769" fill="#21211D"/><path id="Fill 21" fill-rule="evenodd" clip-rule="evenodd" d="M1684.76 372.539C1684.76 376.591 1681.48 379.875 1677.43 379.875C1673.37 379.875 1670.09 376.591 1670.09 372.539C1670.09 368.487 1673.37 365.203 1677.43 365.203C1681.48 365.203 1684.76 368.487 1684.76 372.539" fill="white"/><path id="Fill 22_2" fill-rule="evenodd" clip-rule="evenodd" d="M1685.9 266.413H1668.96C1666.47 266.413 1664.45 264.397 1664.45 261.911C1664.45 259.425 1666.47 257.409 1668.96 257.409H1685.9C1688.39 257.409 1690.4 259.425 1690.4 261.911C1690.4 264.397 1688.39 266.413 1685.9 266.413" fill="white"/><path id="Fill 23" fill-rule="evenodd" clip-rule="evenodd" d="M1571.51 196.513H1597.02V171.003H1571.51V196.513Z" fill="white"/><path id="Fill 24_2" fill-rule="evenodd" clip-rule="evenodd" d="M1571.51 377.958H1597.02V365.203H1571.51V377.958Z" fill="white"/><path id="Fill 25" fill-rule="evenodd" clip-rule="evenodd" d="M1909.83 332.66C1909.83 367.919 1881.24 396.502 1845.98 396.502C1810.72 396.502 1782.14 367.919 1782.14 332.66C1782.14 297.401 1810.72 268.817 1845.98 268.817C1881.24 268.817 1909.83 297.401 1909.83 332.66" fill="#FF6D7B"/><path id="Fill 26_2" fill-rule="evenodd" clip-rule="evenodd" d="M1859.15 280.594H1832.81L1814.3 218.472C1813.56 216.005 1815.41 213.525 1817.98 213.525H1873.98C1876.56 213.525 1878.4 216.005 1877.67 218.472L1859.15 280.594Z" fill="#FF6D7B"/><path id="Fill 27" fill-rule="evenodd" clip-rule="evenodd" d="M1873.73 233.112H1818.23C1817.44 233.112 1816.8 232.472 1816.8 231.684C1816.8 230.895 1817.44 230.256 1818.23 230.256H1873.73C1874.52 230.256 1875.16 230.895 1875.16 231.684C1875.16 232.472 1874.52 233.112 1873.73 233.112" fill="#21211D"/></g></g><g id="Group 31"><mask id="mask7b6cf6459-accf-436f-a524-87364ddae246" mask-type="alpha" maskUnits="userSpaceOnUse" x="1782" y="213" width="128" height="184" fill="#ffffff"><path id="Clip 30" fill-rule="evenodd" clip-rule="evenodd" d="M1817.99 213.525C1815.41 213.525 1813.56 216.005 1814.3 218.473V218.473L1829.91 270.861C1802.43 277.987 1782.14 302.953 1782.14 332.66V332.66C1782.14 367.92 1810.72 396.503 1845.98 396.503V396.503C1881.24 396.503 1909.83 367.92 1909.83 332.66V332.66C1909.83 302.953 1889.53 277.987 1862.06 270.861V270.861L1877.67 218.473C1878.4 216.005 1876.56 213.525 1873.98 213.525V213.525H1817.99Z" fill="#ffffff"/></mask><g mask="url(#mask7b6cf6459-accf-436f-a524-87364ddae246)"><path id="Fill 29" fill-rule="evenodd" clip-rule="evenodd" d="M1884.61 274.278L1818.25 339.38L1833.95 339.068L1820.2 359.382L1836.77 357.872L1826.77 380.087L1864.95 359.874L1828.51 387.615L1868.18 373.568L1856.17 399.429L1937.59 349.45L1884.61 274.278Z" fill="#2E4C9E"/></g></g><g id="Group 35"><mask id="mask8b6cf6459-accf-436f-a524-87364ddae246" mask-type="alpha" maskUnits="userSpaceOnUse" x="1404" y="392" width="566" height="41" fill="#ffffff"><path id="Clip 33" fill-rule="evenodd" clip-rule="evenodd" d="M1404 392.302H1969.57V432.804H1404V392.302Z" fill="#ffffff"/></mask><g mask="url(#mask8b6cf6459-accf-436f-a524-87364ddae246)"><path id="Fill 32" fill-rule="evenodd" clip-rule="evenodd" d="M1404.22 432.804H1969.35V392.302H1404.22V432.804Z" fill="#F4BF8E"/><path id="Fill 34" fill-rule="evenodd" clip-rule="evenodd" d="M1968.14 413.981H1405.43C1404.64 413.981 1404 413.341 1404 412.553C1404 411.764 1404.64 411.125 1405.43 411.125H1968.14C1968.93 411.125 1969.57 411.764 1969.57 412.553C1969.57 413.341 1968.93 413.981 1968.14 413.981" fill="#F4BF8E"/></g></g></g><g id="Master/Characters/Standing" transform="translate(95 0) scale(1 1)"><g id="Master/Characters/Standing"><g id="Lower Body Standing" transform="translate(99 605) scale(1 1)"><g id="Lower Body Standing/Jeans 2"><rect id="Rectangle" x="533" y="100" width="296" height="39" fill="#2E4C9E"/><g id="Group 59"><g id="Group 3"><mask id="mask063f2880e-5d7c-43f0-91e8-299472bea24c" mask-type="alpha" maskUnits="userSpaceOnUse" x="370" y="688" width="203" height="301" fill="#ffffff"><path id="Clip 2" fill-rule="evenodd" clip-rule="evenodd" d="M370 688.327H572.128V988.401H370V688.327Z" fill="#ffffff"/></mask><g mask="url(#mask063f2880e-5d7c-43f0-91e8-299472bea24c)"><path id="Fill 1" fill-rule="evenodd" clip-rule="evenodd" d="M572.128 785.251C559.102 798.116 544.718 815.041 534.286 834.949C525.79 851.162 519.902 869.35 519.499 888.896C519.472 890.402 519.432 891.894 519.378 893.359C516.931 968.733 493.514 988.401 493.514 988.401L370 781.137L416.768 753.217L525.441 688.327C535.832 700.372 541.277 727.164 551.09 743.605C559.599 757.881 566.684 772.037 572.128 785.251" fill="#F62A26"/></g></g><g id="Group 6"><mask id="mask163f2880e-5d7c-43f0-91e8-299472bea24c" mask-type="alpha" maskUnits="userSpaceOnUse" x="370" y="753" width="150" height="236" fill="#ffffff"><path id="Clip 5" fill-rule="evenodd" clip-rule="evenodd" d="M370 753.217H519.378V988.401H370V753.217Z" fill="#ffffff"/></mask><g mask="url(#mask163f2880e-5d7c-43f0-91e8-299472bea24c)"><path id="Fill 4" fill-rule="evenodd" clip-rule="evenodd" d="M519.378 893.359C516.931 968.734 493.514 988.401 493.514 988.401L370 781.138L416.768 753.217C421.877 762.25 430.399 782.509 417.467 800.684C417.467 800.684 461.547 872.657 471.064 887.498C479.722 900.995 494.979 924.332 519.378 893.359" fill="#EDE8D6"/></g></g><path id="Stroke 7" d="M384.281 774.002C384.876 773.641 385.64 773.797 386.05 774.341L386.127 774.455L504.068 969.097C504.453 969.732 504.25 970.559 503.615 970.943C503.02 971.304 502.256 971.148 501.846 970.604L501.769 970.49L383.828 775.848C383.443 775.213 383.646 774.387 384.281 774.002Z" fill="#21211D"/><path id="Fill 9" fill-rule="evenodd" clip-rule="evenodd" d="M510.107 759.557C502.479 764.179 492.548 761.742 487.926 754.114C483.304 746.486 485.741 736.555 493.369 731.933C500.997 727.311 510.928 729.748 515.55 737.376C520.172 745.004 517.735 754.935 510.107 759.557" fill="white"/><path id="Stroke 11 (Stroke)" fill-rule="evenodd" clip-rule="evenodd" d="M516.768 812.649C517.243 812.078 518.091 812.001 518.661 812.475L536.621 827.416C537.192 827.891 537.27 828.739 536.795 829.31C536.32 829.881 535.473 829.959 534.902 829.484L516.942 814.543C516.371 814.068 516.293 813.22 516.768 812.649Z" fill="black"/><path id="Stroke 13" d="M505.21 826.472C505.646 825.929 506.417 825.814 506.989 826.185L507.101 826.266L527.82 842.91C528.399 843.375 528.491 844.221 528.026 844.8C527.59 845.343 526.819 845.458 526.247 845.087L526.136 845.006L505.417 828.362C504.838 827.897 504.745 827.051 505.21 826.472Z" fill="#21211D"/><path id="Stroke 15" d="M499.002 846.633C499.421 846.078 500.188 845.939 500.771 846.293L500.885 846.37L522.26 862.497C522.853 862.944 522.971 863.787 522.523 864.38C522.104 864.936 521.337 865.074 520.754 864.721L520.64 864.643L499.265 848.516C498.673 848.069 498.555 847.226 499.002 846.633Z" fill="#21211D"/><path id="Stroke 17" fill-rule="evenodd" clip-rule="evenodd" d="M527.833 842.203L527.151 840.125C526.739 838.835 528.277 837.814 529.305 838.695L531.379 840.499L532.539 841.523C534.535 843.29 536.731 845.269 539.081 847.427L540.771 848.986C547.529 855.247 554.256 861.8 560.57 868.391C565.296 873.326 569.626 878.114 573.471 882.698C581.655 892.454 587.402 900.984 590.194 907.989C593.562 916.443 592.594 922.781 586.495 926.147C582.066 928.592 577.303 928.099 572.424 925.009C563.519 919.37 554.215 905.224 544.78 885.032L544.114 883.597C539.728 874.085 535.609 863.9 531.876 853.716C530.896 851.043 529.996 848.513 529.181 846.162L528.395 843.871C528.193 843.276 528.006 842.72 527.833 842.203ZM532.55 845.133L531.28 844.001L531.752 845.369C532.554 847.68 533.438 850.166 534.401 852.79C538.111 862.911 542.204 873.031 546.556 882.471C556.005 902.963 565.337 917.339 573.862 922.737C577.967 925.337 581.699 925.723 585.196 923.793C589.874 921.211 590.621 916.326 587.696 908.985C585.146 902.587 579.898 894.687 572.421 885.639L571.411 884.426C567.606 879.891 563.316 875.146 558.628 870.251C551.832 863.156 544.547 856.099 537.262 849.408C535.609 847.89 534.033 846.461 532.55 845.133Z" fill="#21211D"/><path id="Stroke 19" fill-rule="evenodd" clip-rule="evenodd" d="M525.475 834.974L525.683 834.132C525.996 832.892 527.701 832.749 528.217 833.919L529.03 835.812C529.459 836.826 529.92 837.935 530.409 839.131L531.161 840.99C533.365 846.477 535.569 852.353 537.626 858.385C539.77 864.672 541.632 870.772 543.128 876.556C546.183 888.365 547.576 898.274 546.897 905.712C546.063 914.856 542.031 920.217 534.465 920.642C526.796 921.072 521.887 916.082 519.526 906.847C517.606 899.341 517.346 889.099 518.426 876.774C519.091 869.173 520.242 861.075 521.74 852.806C522.602 848.051 523.525 843.534 524.448 839.401C524.691 838.315 524.92 837.314 525.134 836.407L525.475 834.974ZM527.349 838.762L526.844 841.02C526.005 844.835 525.17 848.961 524.386 853.285C522.902 861.479 521.762 869.497 521.104 877.009C518.8 903.325 522.708 918.609 534.314 917.957C540.338 917.619 543.493 913.423 544.219 905.467C544.864 898.404 543.509 888.765 540.525 877.229C539.047 871.517 537.205 865.48 535.081 859.253C533.04 853.269 530.853 847.437 528.666 841.992C528.411 841.357 528.162 840.742 527.92 840.149L527.349 838.762Z" fill="#21211D"/><path id="Fill 21" fill-rule="evenodd" clip-rule="evenodd" d="M752.796 479.674L752.736 479.514L752.626 479.204C752.316 478.364 752.046 477.504 751.836 476.644C751.606 475.764 751.336 474.894 751.176 474.004L750.726 471.704L752.316 477.784L752.636 479.034L752.796 479.654V479.674ZM708.626 469.474L698.166 271.314L705.316 298.444L726.336 378.114L743.486 443.874L708.626 469.474ZM936.986 449.524C936.656 446.914 936.256 444.324 935.746 441.754C935.236 439.184 934.726 436.604 934.076 434.084C933.416 431.554 932.716 429.034 931.966 426.534L931.456 424.844L931.246 424.234L930.816 423.014L923.916 403.604L896.406 325.934L869.126 248.174L855.486 209.304L841.966 170.394L828.756 132.344H533.066L523.186 482.914L517.466 665.954L514.346 757.474L512.776 803.234L511.086 849.004L730.326 846.305L727.496 800.604L724.796 754.894L722.946 723.214C755.816 693.394 788.836 663.774 821.896 634.194L883.426 579.354L887.266 575.944L889.626 573.894L892.576 571.234L895.496 568.534L898.296 565.694C905.736 558.114 912.246 549.604 917.756 540.544C923.286 531.514 927.716 521.834 931.026 511.834C932.716 506.834 934.026 501.724 935.176 496.584C936.206 491.424 937.076 486.234 937.536 480.994C938.536 470.524 938.396 459.934 936.986 449.524V449.524Z" fill="#2E4C9E"/><path id="Fill 23" fill-rule="evenodd" clip-rule="evenodd" d="M730.327 847.516C730.327 828.397 680.947 813.038 620.625 813.038C560.304 813.038 511.258 828.537 511.258 847.656C511.258 866.775 560.304 882.275 620.625 882.275C680.947 882.275 730.327 866.635 730.327 847.516" fill="#21211D"/><path id="Fill 25" fill-rule="evenodd" clip-rule="evenodd" d="M807.337 987.89H567.703V817.353C583.378 814.597 601.405 813.038 620.561 813.038C637.177 813.038 652.958 814.207 667.1 816.291C671.469 834.076 678.648 855.101 690.397 874.257C699.968 889.864 712.565 904.235 729.153 914.599C733.616 917.382 737.824 920.124 741.803 922.826C797.631 960.547 807.337 987.89 807.337 987.89" fill="#F62A26"/><path id="Fill 27" fill-rule="evenodd" clip-rule="evenodd" d="M807.337 987.89H567.703V936.417C575.07 937.385 603.556 942.305 607.629 960.95C607.629 960.95 709.163 961.031 720.899 960.95C732.648 960.856 740.539 956.461 744.021 946.136C746.225 939.643 743.846 929.467 741.803 922.826C797.631 960.547 807.337 987.89 807.337 987.89" fill="#EDE8D6"/><path id="Stroke 29" d="M796.93 971.682C797.673 971.682 798.275 972.284 798.275 973.027C798.275 973.725 797.742 974.3 797.06 974.365L796.93 974.371H569.344C568.602 974.371 568 973.769 568 973.027C568 972.328 568.533 971.753 569.215 971.688L569.344 971.682H796.93Z" fill="#21211D"/><path id="Fill 31" fill-rule="evenodd" clip-rule="evenodd" d="M621.671 861.251C621.671 870.17 614.441 877.401 605.521 877.401C596.602 877.401 589.371 870.17 589.371 861.251C589.371 852.332 596.602 845.101 605.521 845.101C614.441 845.101 621.671 852.332 621.671 861.251" fill="white"/><path id="Stroke 33" d="M691.602 873.79C692.304 873.548 693.069 873.921 693.311 874.623C693.538 875.281 693.225 875.995 692.606 876.281L692.479 876.332L670.393 883.949C669.691 884.191 668.925 883.819 668.683 883.117C668.456 882.458 668.77 881.745 669.388 881.459L669.516 881.407L691.602 873.79Z" fill="#21211D"/><path id="Stroke 35" d="M702.137 889.297C702.835 889.043 703.606 889.403 703.86 890.101C704.099 890.755 703.797 891.474 703.184 891.77L703.057 891.824L678.086 900.918C677.388 901.172 676.617 900.812 676.363 900.115C676.125 899.461 676.426 898.742 677.039 898.445L677.166 898.391L702.137 889.297Z" fill="#21211D"/><path id="Stroke 37" d="M716.005 904.204C716.694 903.928 717.476 904.264 717.752 904.954C718.01 905.601 717.73 906.328 717.126 906.644L717.001 906.701L692.132 916.624C691.443 916.899 690.66 916.563 690.385 915.874C690.127 915.227 690.406 914.499 691.011 914.184L691.136 914.127L716.005 904.204Z" fill="#21211D"/><path id="Stroke 39" fill-rule="evenodd" clip-rule="evenodd" d="M747.287 846.211C760.359 840.443 771.431 836.776 779.915 835.722C790.296 834.434 796.854 837.129 798.328 844.524C799.86 852.211 794.557 858.319 783.824 862.987C775.447 866.631 763.847 869.388 749.794 871.387L747.986 871.638C737.129 873.111 725.506 874.064 713.884 874.602C710.495 874.758 707.307 874.87 704.377 874.943L702.65 874.983C701.972 874.997 701.337 875.008 700.747 875.017L699.499 875.033L698.376 875.042C697.022 875.044 696.515 873.269 697.665 872.555L699.583 871.384L702.077 869.89C703.104 869.279 704.187 868.641 705.322 867.979L707.42 866.761C714.937 862.42 722.872 858.079 730.867 854.027C736.534 851.154 742.03 848.53 747.287 846.211ZM747.625 868.974C779.715 864.621 798.006 856.664 795.691 845.05L795.635 844.786C794.397 839.306 789.262 837.271 780.246 838.391C772.406 839.364 762.089 842.717 749.905 848L748.373 848.671C743.162 850.97 737.709 853.573 732.083 856.425C724.136 860.454 716.242 864.772 708.765 869.089L708.057 869.499C707.121 870.041 706.218 870.568 705.349 871.079L703.321 872.278L704.407 872.253C707 872.187 709.796 872.092 712.755 871.961L713.759 871.916C725.308 871.381 736.856 870.434 747.625 868.974Z" fill="#21211D"/><path id="Stroke 41" fill-rule="evenodd" clip-rule="evenodd" d="M700.969 871.442L702.501 871.334C713.312 870.593 724.388 870.295 734.738 870.697C747.679 871.199 758.265 872.759 765.72 875.621C774.974 879.173 779.3 884.772 777.328 892.449C775.523 899.475 769.829 902.706 761.16 902.566C754.03 902.451 744.923 900.092 734.267 895.913C728.986 893.842 723.432 891.363 717.705 888.564C711.471 885.516 705.36 882.252 699.627 878.988C697.619 877.846 695.802 876.784 694.207 875.832L692.997 875.103L692.219 874.628C691.132 873.954 691.512 872.286 692.784 872.149L694.063 872.02L696.061 871.836C697.573 871.702 699.215 871.57 700.969 871.442ZM764.756 878.131C757.636 875.398 747.306 873.875 734.634 873.384C724.392 872.987 713.407 873.282 702.685 874.016C701.396 874.105 700.163 874.196 698.991 874.289L697.136 874.441L698.418 875.191C699.023 875.543 699.651 875.905 700.3 876.277L700.957 876.651C706.645 879.889 712.707 883.127 718.886 886.148C724.551 888.917 730.04 891.367 735.249 893.409C757.702 902.215 771.983 902.446 774.724 891.78C776.294 885.668 772.879 881.249 764.756 878.131Z" fill="#21211D"/><path id="Stroke 43" d="M699.003 131.001C699.702 130.974 700.296 131.485 700.387 132.164L700.398 132.293L702.688 192.098C703.171 203.486 694.066 212.989 682.665 212.989C681.922 212.989 681.32 212.387 681.32 211.645C681.32 210.902 681.922 210.3 682.665 210.3C692.427 210.3 700.246 202.251 700.012 192.531L700.001 192.206L697.711 132.396C697.683 131.654 698.261 131.029 699.003 131.001Z" fill="#21211D"/><path id="Stroke 45" d="M777.325 131.101C778.011 130.818 778.797 131.145 779.08 131.832C782.997 141.332 789.004 149.72 797.517 156.152C808.289 164.289 822.45 168.79 840.477 168.79C841.22 168.79 841.822 169.392 841.822 170.134C841.822 170.877 841.22 171.479 840.477 171.479C821.879 171.479 807.147 166.796 795.897 158.297C786.97 151.554 780.683 142.775 776.594 132.857C776.311 132.17 776.638 131.384 777.325 131.101Z" fill="#21211D"/><path id="Stroke 47" d="M595.109 131.845C595.385 131.155 596.168 130.82 596.857 131.096C597.547 131.372 597.882 132.155 597.606 132.844C593.62 142.8 587.437 151.588 578.605 158.331C567.496 166.811 552.887 171.479 534.387 171.479C533.645 171.479 533.043 170.877 533.043 170.134C533.043 169.392 533.645 168.79 534.387 168.79C552.312 168.79 566.346 164.306 576.973 156.193C585.389 149.768 591.293 141.376 595.109 131.845Z" fill="#21211D"/><path id="Stroke 49" d="M717.282 271.107C718.025 271.107 718.627 271.709 718.627 272.452C718.627 273.151 718.094 273.725 717.412 273.79L717.282 273.796H687.981C687.239 273.796 686.637 273.194 686.637 272.452C686.637 271.753 687.17 271.178 687.852 271.113L687.981 271.107H717.282Z" fill="#21211D"/><path id="Stroke 51" d="M706.771 271.171C707.434 270.959 708.14 271.288 708.413 271.913L708.461 272.042L765.243 449.34C765.4 449.829 765.263 450.361 764.9 450.714L764.796 450.805L712.909 491.736C712.326 492.196 711.48 492.096 711.02 491.514C710.589 490.967 710.65 490.19 711.139 489.716L711.243 489.625L762.398 449.272L705.9 272.862C705.688 272.199 706.017 271.492 706.642 271.22L706.771 271.171Z" fill="#21211D"/><path id="Stroke 53" d="M548.143 168.853C548.842 168.871 549.403 169.419 549.45 170.102L549.453 170.231L532.516 838.252C532.497 838.995 531.88 839.581 531.138 839.562C530.439 839.545 529.879 838.997 529.831 838.314L529.828 838.184L546.765 170.163C546.784 169.421 547.401 168.834 548.143 168.853Z" fill="#21211D"/><path id="Fill 55" fill-rule="evenodd" clip-rule="evenodd" d="M708.695 469.422L722.801 722.965L727.931 455.508L708.695 469.422Z" fill="#21211D"/><path id="Stroke 57" d="M614.59 785.541C649.888 784.859 687.651 790.76 727.61 804.54C728.312 804.783 728.685 805.548 728.443 806.25C728.201 806.952 727.435 807.325 726.733 807.083C687.074 793.406 649.625 787.554 614.642 788.229C587.26 788.758 562.862 793.228 541.709 800.346C533.81 803.004 526.928 805.85 521.103 808.693L520.021 809.227C518.44 810.018 517.046 810.756 515.842 811.431L514.999 811.911L514.216 812.376C514.165 812.406 514.127 812.43 514.1 812.447C513.472 812.843 512.642 812.654 512.246 812.026C511.85 811.398 512.039 810.568 512.667 810.172L513.149 809.879L513.648 809.586C513.826 809.483 514.016 809.374 514.217 809.26L514.528 809.085C516.043 808.236 517.843 807.292 519.923 806.277C525.851 803.384 532.84 800.493 540.852 797.797C562.257 790.594 586.925 786.075 614.59 785.541Z" fill="#21211D"/></g></g></g><g id="Upper Body" transform="translate(151 35) scale(1 1)"><g id="Upper Body/Using Laptop 1"><g id="Group 51"><path id="Fill 1" fill-rule="evenodd" clip-rule="evenodd" d="M636.436 530.59C662.357 524.681 688.095 518.029 713.783 511.15L752.283 500.679L754.688 500.022L755.29 499.858C754.831 499.976 754.244 500.112 753.722 500.214C752.676 500.435 751.484 500.558 750.538 500.676C746.671 501.058 742.669 500.875 738.853 500.019C731.199 498.306 724.289 494.303 719.071 488.433C716.444 485.525 714.251 482.154 712.65 478.539C712.235 477.65 711.866 476.734 711.549 475.804C711.24 474.916 711.004 474.274 710.788 473.477L710.636 472.903L710.565 472.615C710.558 472.583 710.534 472.485 710.54 472.505L710.563 472.582L710.75 473.195L711.121 474.42L714.097 484.22L726.016 523.412L738.11 562.549L752.834 625.901L765.162 664.954C773.31 690.763 800.398 704.939 825.667 696.618C849.747 688.687 863.484 663.188 857.672 638.471L857.625 638.284L845.648 574.453L836.066 534.921L826.417 495.416L816.59 455.967L814.131 446.107L813.822 444.874L813.669 444.259L813.08 442.142C812.603 440.537 812.166 439.066 811.55 437.387C810.909 435.672 810.216 433.972 809.477 432.298C806.436 425.614 802.368 419.391 797.49 413.969C787.706 403.16 774.763 395.554 760.552 392.54C753.473 391.028 746.104 390.599 738.922 391.388C737.144 391.553 735.139 391.894 733.269 392.239C732.337 392.415 731.338 392.622 730.47 392.817L729.858 392.96L727.41 393.529L688.242 402.678C662.153 408.879 636.113 415.307 610.257 422.477C581.191 430.538 564.027 461.138 571.919 490.826C579.581 519.649 608.047 537.013 636.297 530.622L636.436 530.59Z" fill="#21211d"/><path id="Fill 3" fill-rule="evenodd" clip-rule="evenodd" d="M441 701L510.627 474.233C515.782 430.912 552.378 404.503 595.226 406.066L672.755 412.004C709.618 413.349 741.661 432.033 750.473 468.488L771 701H441Z" fill="#21211d"/><g id="Group 7"><mask id="mask09eeab014-746d-450c-8f4b-9eadf406996d" mask-type="alpha" maskUnits="userSpaceOnUse" x="336" y="383" width="342" height="325" fill="#ffffff"><path id="Clip 6" fill-rule="evenodd" clip-rule="evenodd" d="M336.75 383.969H677.513V707.586H336.75V383.969Z" fill="#ffffff"/></mask><g mask="url(#mask09eeab014-746d-450c-8f4b-9eadf406996d)"><path id="Fill 5" fill-rule="evenodd" clip-rule="evenodd" d="M635.873 413.611C623.917 410.629 611.923 407.819 599.942 404.95L563.941 396.606L527.893 388.472L518.873 386.476L516.618 385.977L515.491 385.728L513.265 385.272L510.79 384.834C504.167 383.796 497.297 383.658 490.587 384.601C477.136 386.4 464.427 392.193 454.166 401.04C449.043 405.483 444.523 410.675 440.789 416.425C437.083 422.2 434.217 428.486 432.25 434.963L435.366 426.938L411.533 479.777C403.598 497.394 395.609 514.985 387.778 532.654L364.191 585.616C356.419 603.315 348.564 620.971 340.871 638.709C330.121 663.495 341.127 692.464 365.455 703.418C388.586 713.831 415.518 704.039 427.343 681.76C436.351 664.676 445.197 647.513 454.126 630.389L480.644 578.888C489.515 561.736 498.228 544.506 506.995 527.302L533.266 475.677L536.382 467.652C535.375 471.149 533.811 474.578 531.773 477.712C529.773 480.87 527.311 483.706 524.52 486.104C518.985 490.939 512.102 494.054 504.765 495.071C501.102 495.545 497.342 495.549 493.754 494.967C493.306 494.901 492.859 494.823 492.415 494.733L491.324 494.49L492.447 494.758L494.694 495.297L503.678 497.453L539.65 505.93L575.668 514.196C587.695 516.863 599.706 519.59 611.757 522.145C641.291 528.407 670.215 509.09 676.361 479.001C682.369 449.582 664.279 420.734 635.873 413.611" fill="#21211d"/></g></g><path id="Fill 8" fill-rule="evenodd" clip-rule="evenodd" d="M435.263 427.419C426.659 444.672 418.293 462.043 410 479.45L397.65 505.606L385.441 531.83C377.319 549.323 369.173 566.804 361.179 584.359C353.105 601.874 345.203 619.477 337.277 637.066L335.637 640.708C323.93 666.688 335.154 697.399 360.707 709.302C372.435 714.765 385.228 715.29 396.679 711.776L655.778 631.852C676.043 625.601 687.486 603.83 681.338 583.226C675.592 563.966 656.332 552.582 637.316 556.276L371.547 608.898L430.949 683.607C439.726 666.44 448.531 649.287 457.16 632.047C465.869 614.847 474.428 597.571 483.01 580.308L495.857 554.399L508.564 528.421C516.974 511.072 525.313 493.688 533.412 476.185C546.257 448.428 534.539 415.342 507.24 402.283C480.457 389.47 448.586 400.778 435.263 427.419" fill="#21211d"/><path id="Fill 10" fill-rule="evenodd" clip-rule="evenodd" d="M473.608 613C473.396 613 473.182 612.951 472.98 612.845C472.88 612.792 462.701 607.516 444.053 601.952C426.845 596.816 398.699 590.378 362.335 588.869C361.568 588.837 360.97 588.169 361.001 587.377C361.032 586.585 361.681 585.965 362.446 586.001C399.138 587.525 427.549 594.033 444.921 599.223C463.79 604.862 473.821 610.067 474.239 610.286C474.923 610.644 475.196 611.508 474.849 612.214C474.604 612.713 474.115 613 473.608 613" fill="#21211D"/><path id="Fill 12" fill-rule="evenodd" clip-rule="evenodd" d="M623.033 484C611.565 484 600.63 480.302 591.41 473.306C578.229 463.302 570.226 446.922 570.004 429.486C569.955 425.695 570.354 421.712 571.224 417.31L574.21 400.169C574.344 399.4 575.06 398.884 575.821 399.022C576.576 399.159 577.08 399.894 576.946 400.663L573.953 417.835C573.117 422.071 572.736 425.859 572.782 429.45C572.995 446.01 580.578 461.557 593.07 471.037C601.807 477.666 612.168 481.17 623.033 481.17C633.199 481.17 643.007 478.069 651.398 472.201C664.89 462.764 673.047 446.75 673.219 429.362C673.256 425.596 672.82 421.632 671.885 417.241L669.753 407.835C669.58 407.073 670.047 406.314 670.794 406.138C671.54 405.962 672.288 406.437 672.46 407.199L674.597 416.623C675.58 421.242 676.037 425.412 675.998 429.391C675.816 447.699 667.208 464.575 652.971 474.532C644.116 480.726 633.763 484 623.033 484" fill="#21211D"/><path id="Fill 14" fill-rule="evenodd" clip-rule="evenodd" d="M469.372 589C469.284 589 469.195 588.991 469.105 588.973C468.363 588.821 467.879 588.075 468.026 587.307L487.286 486.145C487.432 485.376 488.152 484.875 488.895 485.027C489.637 485.179 490.121 485.925 489.974 486.694L470.714 587.855C470.585 588.532 470.012 589 469.372 589" fill="#21211D"/><path id="Fill 16" fill-rule="evenodd" clip-rule="evenodd" d="M778.048 701L744.009 490.632C743.898 489.948 744.878 489.738 745.041 490.412L794 690.741L778.048 701Z" fill="#21211D"/><path id="Fill 18" fill-rule="evenodd" clip-rule="evenodd" d="M401.208 713.701C411.862 710.495 422.5 707.223 433.131 703.923L465.031 694.051C486.285 687.425 507.556 680.861 528.769 674.059C549.989 667.288 571.143 660.252 592.328 653.342L624.058 642.776L655.743 632.031C675.864 625.209 686.729 603.107 680.014 582.667C673.936 564.172 655.538 553.382 637.188 556.548L604.25 562.199L571.357 568.027C549.46 572.048 527.534 575.941 505.672 580.1C483.802 584.229 461.991 588.594 440.165 592.898L407.442 599.42C396.532 601.585 385.629 603.779 374.742 606.037C345.16 612.174 326.076 641.51 332.116 671.562C338.155 701.615 367.034 721.003 396.615 714.866C398.142 714.549 399.74 714.138 401.208 713.701Z" fill="#ffddba"/><path id="Fill 20" fill-rule="evenodd" clip-rule="evenodd" d="M604.186 605.519C617.009 601.686 629.789 597.677 642.551 593.582L661.671 587.334L666.444 585.742C667.992 585.229 669.788 584.619 670.877 584.287C673.418 583.482 675.809 582.905 677.548 582.622C679.338 582.339 680.526 582.284 681.793 582.463C683.045 582.644 684.546 583.203 686.316 584.336C688.075 585.469 690.041 586.982 691.992 588.888L692.614 589.458L693.117 589.951C693.45 590.289 693.772 590.648 694.086 591.02L694.323 591.299L694.442 591.444L694.629 591.702L695.371 592.74L696.859 594.813C704.796 605.87 712.869 616.842 721.434 627.509C724.702 631.578 730.587 632.177 734.58 628.848C737.873 626.102 738.843 621.531 737.251 617.735C731.926 605.064 726.108 592.698 720.154 580.417L719.037 578.115L718.479 576.963L718.338 576.675L718.129 576.275L717.695 575.472C717.1 574.412 716.46 573.374 715.778 572.354C715.436 571.846 715.084 571.342 714.721 570.842L714.166 570.098L713.69 569.488C711.24 566.251 708.394 562.98 704.899 559.885C701.408 556.814 697.047 553.862 691.937 551.879C686.85 549.865 681.279 549.022 676.387 549.001C671.428 548.969 667.196 549.586 663.21 550.28C661.025 550.668 659.596 550.983 657.902 551.321L652.958 552.323L633.209 556.447C620.059 559.268 606.927 562.173 593.838 565.256C582.843 567.843 575.989 579.023 578.529 590.226C581.068 601.43 592.04 608.414 603.034 605.826C603.401 605.74 603.828 605.624 604.186 605.519" fill="#ffddba"/><path id="Fill 22" fill-rule="evenodd" clip-rule="evenodd" d="M590.849 632.439L677.626 597.968L664.482 596.052V596.052C664.362 595.93 664.649 596.099 664.774 596.157L665.316 596.461C665.688 596.675 666.082 596.919 666.476 597.169C667.265 597.666 668.061 598.22 668.851 598.784C670.431 599.926 671.977 601.164 673.451 602.471C676.4 605.089 679.086 607.978 681.317 611.09C682.447 612.643 683.467 614.252 684.342 615.916C685.237 617.576 686.014 619.287 686.622 621.051C687.914 624.571 688.527 628.302 688.623 632.196L688.638 632.812C688.766 638.014 693.009 642.126 698.116 641.997C702.538 641.885 706.155 638.625 706.967 634.378C708.075 628.573 708.349 622.414 707.508 616.406C707.13 613.392 706.484 610.424 705.642 607.535C704.817 604.635 703.775 601.822 702.57 599.113C700.179 593.668 697.147 588.641 693.71 583.985C691.986 581.655 690.156 579.42 688.205 577.26C687.224 576.181 686.223 575.119 685.158 574.069C684.627 573.542 684.087 573.022 683.511 572.491L682.622 571.686C682.266 571.381 682.069 571.19 681.458 570.721L681.456 570.719C677.883 568.113 673.53 567.426 669.581 568.462L668.311 568.802L578.232 592.94C567.324 595.863 560.808 607.24 563.677 618.351C566.547 629.462 577.716 636.1 588.624 633.177C589.382 632.973 590.136 632.721 590.849 632.439" fill="#ffddba"/><path id="Fill 24" fill-rule="evenodd" clip-rule="evenodd" d="M574.863 641.647L661.684 607.057L650.013 606.043L650.012 606.042C649.84 605.94 649.857 605.94 649.863 605.935C649.858 605.924 649.858 605.914 649.889 605.924C649.938 605.937 649.965 605.931 650.037 605.961C650.159 605.999 650.294 606.047 650.448 606.114C650.744 606.235 651.071 606.385 651.401 606.55C652.063 606.885 652.753 607.257 653.428 607.681C654.79 608.511 656.115 609.483 657.362 610.542C659.869 612.661 662.054 615.16 663.8 617.996C665.569 620.825 666.878 624.023 667.713 627.527C668.524 631.034 668.869 634.84 668.716 638.806L668.702 639.154C668.501 644.382 672.486 648.786 677.603 648.993C682.033 649.17 685.858 646.14 686.937 641.934C688.281 636.71 689.051 631.134 688.997 625.364C688.923 619.606 687.977 613.65 686.03 607.969C684.112 602.272 681.251 596.87 677.679 592.046C675.894 589.627 673.943 587.339 671.796 585.193C670.731 584.113 669.602 583.078 668.41 582.056C667.812 581.544 667.196 581.041 666.532 580.532C666.208 580.281 665.859 580.022 665.494 579.76L664.906 579.351L664.561 579.123C664.442 579.048 664.335 578.976 664.037 578.805L664.034 578.803C660.697 576.935 656.95 576.566 653.536 577.475L652.363 577.79L562.24 602.011C551.326 604.944 544.806 616.36 547.677 627.51C550.549 638.659 561.724 645.319 572.637 642.387C573.396 642.182 574.149 641.93 574.863 641.647" fill="#ffddba"/><path id="Fill 26" fill-rule="evenodd" clip-rule="evenodd" d="M560.576 651.292L648.569 612.717L633.183 609.639H633.182C633.351 609.713 633.801 610.06 634.132 610.304L635.225 611.148C635.959 611.725 636.692 612.323 637.417 612.932C638.864 614.151 640.271 615.413 641.609 616.693C644.277 619.241 646.71 621.939 648.429 624.366C649.291 625.565 649.944 626.692 650.334 627.431C650.743 628.204 650.859 628.378 651.186 628.129C651.343 628.029 651.554 627.914 651.68 627.956C651.807 627.991 651.823 628.173 651.662 628.443C651.357 628.996 650.299 629.773 648.975 630.432L648.17 630.833C643.583 633.116 641.688 638.739 643.939 643.393C645.853 647.352 650.156 649.331 654.221 648.428C657.017 647.808 660.028 646.933 663.246 644.93C664.84 643.925 666.471 642.622 667.936 640.935C669.401 639.258 670.659 637.192 671.497 635.013C672.345 632.832 672.782 630.589 672.932 628.513C673.083 626.43 672.969 624.501 672.732 622.725C672.242 619.168 671.299 616.183 670.253 613.457C668.126 608.023 665.518 603.53 662.76 599.27C661.375 597.149 659.94 595.108 658.447 593.115C657.7 592.118 656.939 591.134 656.154 590.153L654.951 588.678C654.51 588.157 654.18 587.746 653.556 587.076L653.553 587.073C649.637 583.277 644.17 582.146 639.332 583.631L638.166 583.995L546.487 612.394C535.683 615.742 529.598 627.341 532.897 638.302C536.197 649.264 547.631 655.437 558.436 652.09C559.166 651.863 559.891 651.591 560.576 651.292" fill="#ffddba"/><path id="Fill 28" fill-rule="evenodd" clip-rule="evenodd" d="M710.604 615C710.085 615 709.585 614.705 709.345 614.199C709.241 613.98 698.755 592.223 685.856 586.725C685.145 586.421 684.81 585.59 685.11 584.868C685.408 584.147 686.227 583.808 686.939 584.111C700.813 590.026 711.416 612.033 711.86 612.967C712.196 613.671 711.906 614.518 711.21 614.859C711.015 614.954 710.808 615 710.604 615" fill="#21211D"/><path id="Fill 30" fill-rule="evenodd" clip-rule="evenodd" d="M688.328 634C688.265 634 688.203 633.996 688.14 633.987C687.384 633.882 686.855 633.17 686.958 632.397C686.991 632.147 690.106 607.273 673.944 601.751C673.22 601.504 672.83 600.704 673.072 599.964C673.313 599.225 674.097 598.826 674.819 599.073C682.465 601.685 687.458 608.397 689.26 618.484C690.588 625.919 689.731 632.504 689.694 632.78C689.599 633.488 689.007 634 688.328 634" fill="#21211D"/><path id="Fill 32" fill-rule="evenodd" clip-rule="evenodd" d="M668.564 641C668.366 641 668.164 640.957 667.973 640.868C667.265 640.538 666.957 639.692 667.282 638.978C667.321 638.891 671.206 630.211 667.691 622.972C665.519 618.499 660.944 615.418 654.093 613.812C653.334 613.634 652.861 612.869 653.037 612.103C653.214 611.336 653.973 610.86 654.732 611.037C662.46 612.847 667.677 616.448 670.236 621.739C674.335 630.209 670.031 639.773 669.845 640.175C669.606 640.694 669.097 641 668.564 641" fill="#21211D"/><path id="Fill 34" fill-rule="evenodd" clip-rule="evenodd" d="M641.417 636C640.82 636 640.264 635.631 640.069 635.05C639.829 634.329 640.235 633.554 640.98 633.32L646.912 631.451L644.379 630.686C643.632 630.46 643.216 629.69 643.449 628.965C643.681 628.241 644.473 627.836 645.221 628.063L652.004 630.111C652.594 630.29 652.996 630.817 653 631.415C653.004 632.013 652.608 632.545 652.022 632.729L641.854 635.932C641.709 635.978 641.562 636 641.417 636" fill="#21211D"/><path id="Fill 36" fill-rule="evenodd" clip-rule="evenodd" d="M753 702H1002.98L1070 510H828.739C823.511 510 818.845 513.346 817.089 518.357L753 702Z" fill="#21211D"/><path id="Fill 38" fill-rule="evenodd" clip-rule="evenodd" d="M772.957 702H1018.58C1019.41 702 1020.15 701.47 1020.42 700.678L1082.45 522.784C1084.63 516.552 1080.09 510 1073.59 510H847.24C841.188 510 835.79 513.875 833.756 519.679L771.115 699.34C770.661 700.636 771.606 702 772.957 702" fill="#2E4C9E"/><g id="Group 44"><mask id="mask19eeab014-746d-450c-8f4b-9eadf406996d" mask-type="alpha" maskUnits="userSpaceOnUse" x="770" y="510" width="313" height="193" fill="#ffffff"><path id="Clip 43" fill-rule="evenodd" clip-rule="evenodd" d="M1073.11 510.774C1079.6 510.774 1084.14 517.307 1081.96 523.52V523.52L1019.97 700.879C1019.69 701.669 1018.96 702.197 1018.13 702.197V702.197H772.655C771.304 702.197 770.36 700.837 770.814 699.544V699.544L833.417 520.425C835.449 514.638 840.844 510.774 846.892 510.774V510.774H1073.11Z" fill="#ffffff"/></mask><g mask="url(#mask19eeab014-746d-450c-8f4b-9eadf406996d)"><path id="Fill 42" fill-rule="evenodd" clip-rule="evenodd" d="M1057.64 471.371L749.555 686.757L827.994 738.552L1114.64 554.139L1057.64 471.371Z" fill="#4965CC"/></g></g><path id="Fill 46" fill-rule="evenodd" clip-rule="evenodd" d="M926.621 614C919.24 614 914.095 607.956 915.133 600.499C916.171 593.043 922.996 587 930.379 587C937.761 587 942.905 593.043 941.867 600.499C940.829 607.956 934.004 614 926.621 614ZM941 702H635C635 692.059 642.76 684 652.331 684H941V702Z" fill="#2E4C9E"/><path id="Fill 47" fill-rule="evenodd" clip-rule="evenodd" d="M1024.61 685H776.392C775.623 685 775 684.329 775 683.501C775 682.672 775.623 682 776.392 682H1024.61C1025.38 682 1026 682.672 1026 683.501C1026 684.329 1025.38 685 1024.61 685" fill="#21211D"/><path id="Fill 49" fill-rule="evenodd" clip-rule="evenodd" d="M662.824 408.766L664.723 425.111C664.979 427.443 665.076 430.061 664.935 432.482C663.588 455.63 643.946 473.289 621.064 471.926C598.182 470.563 580.725 450.693 582.073 427.545L583.619 401C583.619 401 612.151 410.493 662.824 408.766" fill="#ffddba"/></g></g></g><g id="Hairstyle" transform="translate(596 136) scale(1 1)"><g id="Hairstyle/Beanie"><g id="Group 30"><g id="Group 3"><mask id="mask023c3d829-d772-4007-ab63-ff5131d6a111" mask-type="alpha" maskUnits="userSpaceOnUse" x="121" y="138" width="140" height="140" fill="#ffffff"><path id="Clip 2" fill-rule="evenodd" clip-rule="evenodd" d="M121.293 138.68H260.933V277.17H121.293V138.68Z" fill="#ffffff"/></mask><g mask="url(#mask023c3d829-d772-4007-ab63-ff5131d6a111)"><path id="Fill 1" fill-rule="evenodd" clip-rule="evenodd" d="M250.388 268.182C241.829 277.101 230.129 278.571 217.766 276.093C186.21 269.767 150.172 237.735 150.172 237.735C143.025 232.13 135.417 224.45 130.619 215.977L130.374 215.531C129.106 213.268 128.054 210.934 127.262 208.585C126.887 207.462 126.57 206.323 126.325 205.185C124.783 198.153 123.688 198.744 121.829 187C119.25 170.718 126.051 156.309 140.633 148.441C160.273 137.836 185.72 135.113 206.7 144.061C206.757 144.09 206.815 144.104 206.872 144.133C231.627 154.81 244.654 183.009 253.832 206.712C261.339 226.093 266.383 251.51 250.388 268.182" fill="#ffddba"/></g></g><path id="Fill 4" fill-rule="evenodd" clip-rule="evenodd" d="M206.3 203.704L219.301 314.291C221.869 336.131 206.245 355.918 184.405 358.485C162.565 361.053 142.779 345.43 140.212 323.59C139.943 321.305 139.892 318.822 140.008 316.599L146.554 205.443C147.529 188.902 161.727 176.283 178.268 177.258C193.017 178.126 204.645 189.521 206.3 203.704" fill="#ffddba"/><path id="Fill 6" fill-rule="evenodd" clip-rule="evenodd" d="M214.878 275.287C214.878 275.287 205.534 273.728 193.154 267.366C191.641 266.588 190.145 268.429 191.234 269.737L217.664 300.722L214.878 275.287Z" fill="#21211D"/><path id="Fill 8" fill-rule="evenodd" clip-rule="evenodd" d="M144.114 243.987C144.114 243.987 147.093 242.211 149.238 239.066C149.565 238.587 150.306 238.723 150.418 239.293C151.181 243.177 151.865 253.457 143.082 261.92L144.114 243.987Z" fill="#21211D"/><path id="Fill 10" fill-rule="evenodd" clip-rule="evenodd" d="M205.247 143.497C205.189 143.468 205.132 143.454 205.074 143.425C184.094 134.477 158.647 137.2 139.008 147.805C124.426 155.673 117.624 170.082 120.204 186.364C122.062 198.108 123.158 197.517 124.7 204.549C124.944 205.687 125.262 206.825 125.636 207.949C125.65 208.007 125.679 208.065 125.694 208.122L143.158 209.895C145.968 210.774 148.302 212.733 149.671 215.341L153.33 222.301C155.045 225.73 159.094 227.301 162.682 225.918C165.636 224.779 167.452 221.955 167.452 218.972C167.452 218.137 167.308 217.287 167.019 216.465L153.695 179.177" fill="#654206"/><g id="Group 14"><mask id="mask123c3d829-d772-4007-ab63-ff5131d6a111" mask-type="alpha" maskUnits="userSpaceOnUse" x="109" y="203" width="45" height="46" fill="#ffffff"><path id="Clip 13" fill-rule="evenodd" clip-rule="evenodd" d="M109 203.245H153.8V248.044H109V203.245Z" fill="#ffffff"/></mask><g mask="url(#mask123c3d829-d772-4007-ab63-ff5131d6a111)"><path id="Fill 12" fill-rule="evenodd" clip-rule="evenodd" d="M153.762 226.941C153.046 239.291 142.454 248.722 130.104 248.006C117.754 247.29 108.323 236.698 109.038 224.348C109.755 211.998 120.346 202.567 132.697 203.283C145.047 203.999 154.478 214.591 153.762 226.941" fill="#ffddba"/></g></g><path id="Fill 15" fill-rule="evenodd" clip-rule="evenodd" d="M139.418 228.427C139.232 228.427 139.043 228.391 138.862 228.315L121.273 220.947C120.54 220.639 120.193 219.795 120.501 219.061C120.809 218.327 121.656 217.981 122.387 218.289L139.975 225.657C140.709 225.964 141.055 226.808 140.748 227.542C140.516 228.094 139.981 228.427 139.418 228.427" fill="#21211D"/><path id="Fill 17" fill-rule="evenodd" clip-rule="evenodd" d="M128.486 231.517C128.315 231.517 128.141 231.486 127.972 231.422C127.229 231.138 126.857 230.305 127.14 229.561L129.666 222.95C129.95 222.206 130.785 221.834 131.527 222.118C132.27 222.402 132.642 223.235 132.359 223.978L129.833 230.59C129.613 231.164 129.066 231.517 128.486 231.517" fill="#21211D"/><path id="Fill 19" fill-rule="evenodd" clip-rule="evenodd" d="M123.818 204.678C119.39 204.678 115.039 202.559 112.358 198.622C108.053 192.3 109.689 183.685 116.011 179.381C117.867 178.118 162.289 148.419 234.713 146.735C242.428 146.579 248.702 152.612 248.88 160.258C249.057 167.904 243.004 174.247 235.357 174.425C171.025 175.921 131.986 202.011 131.599 202.275C129.214 203.899 126.501 204.678 123.818 204.678" fill="#D5962F"/><g id="Group 23"><mask id="mask223c3d829-d772-4007-ab63-ff5131d6a111" mask-type="alpha" maskUnits="userSpaceOnUse" x="111" y="102" width="129" height="92" fill="#ffffff"><path id="Clip 22" fill-rule="evenodd" clip-rule="evenodd" d="M111.557 102H239.566V193.164H111.557V102Z" fill="#ffffff"/></mask><g mask="url(#mask223c3d829-d772-4007-ab63-ff5131d6a111)"><path id="Fill 21" fill-rule="evenodd" clip-rule="evenodd" d="M239.566 152.242C239.566 152.242 229.324 124.731 208.104 123.656C208.104 123.656 183.393 88.3247 129.465 107.919C105.859 116.496 111.449 132.651 114.072 149.507C117.441 171.158 118.135 193.164 118.135 193.164C118.135 193.164 171.021 159.988 239.566 152.242" fill="#D5962F"/></g></g><path id="Fill 24" fill-rule="evenodd" clip-rule="evenodd" d="M116.013 180.822C115.553 180.822 115.1 180.602 114.822 180.193C114.373 179.536 114.542 178.64 115.199 178.191C115.67 177.869 126.977 170.219 147.436 162.276C166.286 154.958 196.723 146.072 234.684 145.295C235.494 145.286 236.137 145.91 236.154 146.706C236.17 147.501 235.538 148.16 234.742 148.176C197.25 148.943 167.191 157.708 148.576 164.925C128.394 172.75 116.937 180.494 116.824 180.571C116.575 180.741 116.293 180.822 116.013 180.822" fill="#21211D"/><path id="Fill 26" fill-rule="evenodd" clip-rule="evenodd" d="M220.555 129.094C220.223 129.094 219.89 128.98 219.618 128.748C219.516 128.663 213.978 124.227 199.51 125.23C198.71 125.284 198.027 124.686 197.972 123.892C197.917 123.099 198.516 122.41 199.31 122.355C215.197 121.255 221.251 126.348 221.501 126.566C222.101 127.088 222.165 127.998 221.643 128.598C221.358 128.926 220.957 129.094 220.555 129.094" fill="#21211D"/><path id="Fill 28" fill-rule="evenodd" clip-rule="evenodd" d="M116.005 155.268V155.268C115.209 155.268 114.564 154.622 114.564 153.827L114.57 136.124C114.57 135.329 115.215 134.684 116.011 134.684V134.684C116.807 134.684 117.452 135.329 117.452 136.125L117.446 153.828C117.445 154.623 116.8 155.268 116.005 155.268" fill="#21211D"/></g></g></g><g id="Expression" transform="translate(756 301) scale(1 1)"><g id="Expression/Wink"><g id="Group 18"><path id="Fill 1" fill-rule="evenodd" clip-rule="evenodd" d="M59.2666 67.9742C59.2606 67.9742 59.2536 67.9742 59.2476 67.9742L54.0556 67.9592C53.2246 67.9572 52.5546 67.2822 52.5566 66.4522C52.5586 65.6222 53.2446 64.9132 54.0636 64.9532L59.2566 64.9672C59.2596 64.9682 59.2636 64.9682 59.2666 64.9682C60.3706 64.9682 61.3876 64.4652 62.0586 63.5872C62.7326 62.7072 62.9506 61.5892 62.6566 60.5202L56.4186 37.7952C56.1986 36.9942 56.6696 36.1672 57.4706 35.9472C58.2716 35.7272 59.0986 36.1982 59.3176 36.9992L65.5566 59.7242C66.0996 61.7072 65.6956 63.7812 64.4476 65.4142C63.2026 67.0412 61.3146 67.9742 59.2666 67.9742" fill="#21211D"/><path id="Fill 3" fill-rule="evenodd" clip-rule="evenodd" d="M101.353 28.5622C101.097 28.5622 100.836 28.4962 100.599 28.3582C84.2662 18.8622 70.5462 27.8292 69.9702 28.2152C69.2832 28.6772 68.3482 28.4952 67.8852 27.8072C67.4212 27.1192 67.6022 26.1872 68.2892 25.7232C68.9262 25.2922 84.1071 15.2922 102.11 25.7592C102.828 26.1762 103.071 27.0962 102.654 27.8142C102.375 28.2942 101.871 28.5622 101.353 28.5622" fill="#21211D"/><g id="Group 7"><mask id="mask000896ce2-d84e-4491-b9be-9052e329de18" mask-type="alpha" maskUnits="userSpaceOnUse" x="67" y="34" width="38" height="17" fill="#ffffff"><path id="Clip 6" fill-rule="evenodd" clip-rule="evenodd" d="M67.5508 34.8536H104.737V50.1529H67.5508V34.8536Z" fill="#ffffff"/></mask><g mask="url(#mask000896ce2-d84e-4491-b9be-9052e329de18)"><path id="Fill 5" fill-rule="evenodd" clip-rule="evenodd" d="M104.738 41.3742C104.738 41.3742 97.2998 50.5692 85.2048 50.1382C80.0788 49.9472 74.1128 48.0512 67.5508 42.9582C67.5508 42.9582 73.9428 35.6242 84.5818 34.9142C90.2198 34.5212 97.0368 35.9702 104.738 41.3742" fill="white"/></g></g><g id="Group 10"><mask id="mask100896ce2-d84e-4491-b9be-9052e329de18" mask-type="alpha" maskUnits="userSpaceOnUse" x="82" y="34" width="23" height="17" fill="#ffffff"><path id="Clip 9" fill-rule="evenodd" clip-rule="evenodd" d="M82.3418 34.8536H104.738V50.1529H82.3418V34.8536Z" fill="#ffffff"/></mask><g mask="url(#mask100896ce2-d84e-4491-b9be-9052e329de18)"><path id="Fill 8" fill-rule="evenodd" clip-rule="evenodd" d="M104.739 41.3742C104.739 41.3742 97.3006 50.5692 85.2056 50.1382C83.5066 48.0862 82.4756 45.5202 82.3536 42.6602C82.2316 39.7992 83.0636 37.1032 84.5826 34.9142C90.2206 34.5212 97.0376 35.9702 104.739 41.3742" fill="#21211D"/></g></g><g id="Group 13"><mask id="mask200896ce2-d84e-4491-b9be-9052e329de18" mask-type="alpha" maskUnits="userSpaceOnUse" x="15" y="21" width="36" height="8" fill="#ffffff"><path id="Clip 12" fill-rule="evenodd" clip-rule="evenodd" d="M15.2998 21.0002H50.5305V28.5622H15.2998V21.0002Z" fill="#ffffff"/></mask><g mask="url(#mask200896ce2-d84e-4491-b9be-9052e329de18)"><path id="Fill 11" fill-rule="evenodd" clip-rule="evenodd" d="M16.8047 28.5622C16.2867 28.5622 15.7827 28.2942 15.5037 27.8142C15.0867 27.0962 15.3297 26.1762 16.0477 25.7592C34.0507 15.2922 49.2317 25.2922 49.8687 25.7232C50.5567 26.1882 50.7377 27.1222 50.2727 27.8102C49.8087 28.4972 48.8757 28.6792 48.1877 28.2152C47.6107 27.8282 33.8897 18.8632 17.5587 28.3582C17.3217 28.4962 17.0607 28.5622 16.8047 28.5622" fill="#21211D"/></g></g><path id="Fill 14" fill-rule="evenodd" clip-rule="evenodd" d="M53.7853 79.8372C47.7833 79.8372 44.5983 75.4702 43.7173 72.9702C43.4403 72.1872 43.8513 71.3292 44.6343 71.0532C45.4153 70.7772 46.2703 71.1852 46.5493 71.9632C46.6343 72.1952 48.6573 77.5122 54.9883 76.7572C55.8143 76.6582 56.5603 77.2472 56.6593 78.0722C56.7573 78.8972 56.1683 79.6442 55.3443 79.7432C54.8053 79.8072 54.2853 79.8372 53.7853 79.8372" fill="#21211D"/><path id="Fill 16" fill-rule="evenodd" clip-rule="evenodd" d="M25.1999 52.199C24.6349 52.199 24.0999 51.86 23.8779 51.303C23.5869 50.573 23.9429 49.745 24.6729 49.454L39.5919 43.506L25.2359 37.439C24.5119 37.133 24.1729 36.298 24.4789 35.574C24.7849 34.85 25.6209 34.512 26.3439 34.818L43.8909 42.233C44.4229 42.458 44.7659 42.981 44.7609 43.558C44.7549 44.135 44.4009 44.652 43.8649 44.865L25.7259 52.097C25.5539 52.166 25.3749 52.199 25.1999 52.199" fill="#21211D"/></g></g></g><g id="Facial Hair" transform="translate(596 136) scale(1 1)"><g id="Facial Hair/None"><path id="Path 5 Copy" opacity="0.01" d="M194.243 232.218C199.141 228.68 204.97 228.076 211.402 230.327C218.029 232.645 222.561 234.667 224.866 242.113C225.356 243.696 224.47 245.376 222.887 245.866C221.305 246.356 219.624 245.47 219.134 243.887C217.372 238.193 214.178 237.654 209.421 235.99C204.761 234.36 200.983 234.751 197.757 237.082C196.414 238.052 194.539 237.75 193.569 236.407C192.598 235.064 192.9 233.189 194.243 232.218Z" fill="#654206"/></g></g><g id="Accesories" transform="translate(722 314) scale(148 52)"><g id="Accesories/None" stroke="none" stroke-width="1" fill="none" fill-rule="evenodd" fill-opacity="0"/></g></g></g></g></svg>