<svg viewBox="16.9375 15.570224719101134 237.12500000000006 216.62921348314606" fill="none" xmlns="http://www.w3.org/2000/svg" xmlns:xlink="http://www.w3.org/1999/xlink" overflow="visible" width="237.12500000000006px" height="216.62921348314606px"><g id="Master/Background/Abstract 3"><path id="Background" fill-rule="evenodd" clip-rule="evenodd" d="M20.0467 97.3527L250.032 52.6947C252.208 52.2727 253.834 54.6557 252.647 56.5277L143.89 228.123C143.011 229.509 141.063 229.703 139.929 228.515L18.7017 101.579C17.3217 100.133 18.0857 97.7337 20.0467 97.3527" fill="#C2F5FF"/><g id="Medium Decoration" transform="translate(40.832 3.48828) scale(1 1)"><g id="Medium Decoration/Sun and Cloud"><path id="Fill 114" fill-rule="evenodd" clip-rule="evenodd" d="M46.7393 30.105C46.7393 39 39.5293 46.209 30.6343 46.209C21.7393 46.209 14.5293 39 14.5293 30.105C14.5293 21.21 21.7393 14 30.6343 14C39.5293 14 46.7393 21.21 46.7393 30.105" fill="#FED21C"/><path id="Fill 122" fill-rule="evenodd" clip-rule="evenodd" d="M10.6995 30.8891C10.7025 30.9961 10.6615 31.0481 10.6015 31.0871C10.5155 31.1451 10.4355 31.2321 10.3425 31.2501C9.91351 31.3331 9.77351 31.6841 9.59751 32.0081C9.42951 32.3191 9.20751 32.3421 9.06151 32.0251C8.86651 31.6021 8.61651 31.2871 8.17451 31.1001C7.93451 30.9981 7.94351 30.6951 8.19251 30.6031C8.64451 30.4361 8.91151 30.1391 9.11551 29.7151C9.25851 29.4161 9.50751 29.4481 9.63751 29.7521C9.79151 30.1081 9.94751 30.4361 10.3665 30.5611C10.5205 30.6061 10.6675 30.7281 10.6995 30.8891" fill="#FED21C"/><path id="Fill 128" fill-rule="evenodd" clip-rule="evenodd" d="M37.5406 29.5278C37.5486 29.6778 37.4926 29.7518 37.4086 29.8088C37.2906 29.8908 37.1816 30.0158 37.0516 30.0448C36.4536 30.1738 36.2676 30.6688 36.0306 31.1288C35.8046 31.5678 35.4936 31.6068 35.2796 31.1668C34.9956 30.5808 34.6356 30.1468 34.0106 29.8968C33.6706 29.7618 33.6736 29.3368 34.0196 29.2008C34.6486 28.9538 35.0146 28.5308 35.2876 27.9298C35.4786 27.5078 35.8276 27.5448 36.0206 27.9658C36.2466 28.4608 36.4736 28.9158 37.0646 29.0778C37.2816 29.1358 37.4906 29.3028 37.5406 29.5278" fill="#FFFAD9"/><path id="Fill 132" fill-rule="evenodd" clip-rule="evenodd" d="M25.6444 40.1372C25.6484 40.2212 25.6174 40.2632 25.5704 40.2952C25.5034 40.3412 25.4424 40.4112 25.3694 40.4272C25.0324 40.5002 24.9274 40.7792 24.7944 41.0372C24.6674 41.2842 24.4924 41.3072 24.3724 41.0592C24.2114 40.7292 24.0094 40.4852 23.6574 40.3452C23.4664 40.2692 23.4684 40.0302 23.6634 39.9522C24.0164 39.8142 24.2224 39.5752 24.3754 39.2382C24.4834 39.0002 24.6804 39.0212 24.7894 39.2582C24.9154 39.5362 25.0434 39.7922 25.3764 39.8832C25.4984 39.9162 25.6164 40.0102 25.6444 40.1372" fill="#FFFAD9"/><path id="Fill 9" fill-rule="evenodd" clip-rule="evenodd" d="M55.9639 45.8376C55.3452 45.8336 54.8482 45.549 54.4025 45.1528C52.2496 43.2371 49.7648 41.8513 47.1833 40.6084C45.9248 40.001 44.6311 39.5354 43.273 39.2226C42.0245 38.936 40.7549 38.9762 39.5024 39.0677C38.9662 39.107 38.423 39.3946 37.9069 39.6912C36.3254 40.5993 34.7681 41.5557 33.1031 42.324C31.2762 43.1667 29.4453 43.3668 27.4694 42.8821C25.6496 42.4346 23.7884 42.1249 21.9293 41.8785C20.0672 41.6321 18.2604 42.0766 16.5431 42.7614C14.7413 43.4804 13.0804 44.4509 11.5844 45.725C10.6639 46.5094 9.69313 47.2334 8.84908 48.1053C8.335 48.6353 8.33199 48.6323 8 49.5786C8.61669 49.7807 9.28167 49.8169 9.86918 49.6892C10.9376 49.4569 11.9949 49.5544 13.0562 49.5715C17.6799 49.6459 22.3096 49.9215 26.9272 49.7817C33.6906 49.5776 40.442 50.1286 47.1924 49.9416C51.1803 49.832 55.154 50.0241 59.1338 49.9878C59.4105 49.9858 59.7233 50.0924 60 49.7093C59.7274 49.2477 59.3753 48.7791 58.8541 48.5377C57.9065 48.0953 57.331 47.1962 56.4447 46.6844C56.157 46.5194 55.9377 46.2238 55.9618 45.8356L55.9639 45.8376Z" fill="#F28DFD"/></g></g><g id="Medium Decoration" transform="translate(178 0) scale(1 1)"><g id="Medium Decoration/Cloud 6"><path id="Fill 15" fill-rule="evenodd" clip-rule="evenodd" d="M30.5449 22.8701C30.3959 21.5881 30.3429 20.4361 29.8649 19.3571C28.5799 16.4621 26.2149 15.7661 23.4339 16.0631C21.0929 16.3131 19.7919 17.9741 19.0569 20.0711C18.6379 21.2641 18.3589 21.6291 17.1859 20.7791C15.3259 19.4311 13.3079 19.6721 11.5029 20.9411C9.50191 22.3491 8.72091 24.4301 9.05291 26.8871C9.18691 27.8761 9.24891 28.8861 9.66791 29.7691C9.20591 30.1151 8.92191 29.8191 8.63191 29.7321C6.80991 29.1851 5.20191 29.6661 4.08491 31.1171C2.87691 32.6891 2.67391 35.0201 3.49491 36.5821C3.93991 37.4241 4.61791 37.3241 5.31391 37.3241C13.1299 37.3261 20.9469 37.3251 28.7629 37.3251C38.5099 37.3251 48.2569 37.3301 58.0049 37.3121C58.5229 37.3111 59.2379 37.6191 59.5049 36.8971C59.7609 36.2041 59.3989 35.5681 58.9499 35.0441C58.0309 33.9741 56.7649 33.5131 55.4809 33.2351C53.6119 32.8321 52.3109 31.8251 51.2579 30.1781C49.8439 27.9651 47.8269 26.3821 45.1219 26.8631C43.3459 27.1791 41.9659 27.4771 40.6519 25.7351C40.0549 24.9451 38.7169 24.8071 37.6229 25.4301C37.2099 25.6641 36.8819 25.7371 36.7019 25.0621C35.7109 21.3551 33.5999 20.5631 30.5449 22.8701" fill="#26B6E3"/></g></g><g id="Medium Decoration" transform="translate(175 33) scale(1 1)"><g id="Medium Decoration/Circle 2"><path id="Fill 1" fill-rule="evenodd" clip-rule="evenodd" d="M43.9374 26.7227C44.0734 33.8847 38.3784 39.8007 31.2164 39.9377C24.0554 40.0747 18.1384 34.3787 18.0024 27.2167C17.8654 20.0547 23.5614 14.1387 30.7224 14.0017C37.8844 13.8667 43.8004 19.5617 43.9374 26.7227" fill="#AD5CEE"/></g></g><g id="Medium Decoration" transform="translate(109 66) scale(1 1)"><g id="Medium Decoration/Cloud 3"><g id="Group 13"><path id="Fill 11" fill-rule="evenodd" clip-rule="evenodd" d="M0.121296 32.0578C0.0842959 31.6788 0.0462964 31.2998 0.00929642 30.9218C0.914296 29.9908 1.8283 29.0678 2.7233 28.1258C5.5303 25.1678 8.9053 23.1378 12.8013 21.9678C14.0843 21.5818 15.4093 21.3058 16.7393 21.2318C20.0703 21.0448 23.3823 21.2448 26.6063 22.1938C28.1623 22.6518 29.6993 23.1728 31.2453 23.6658C31.3323 24.0108 31.6693 24.0658 31.9133 24.1528C32.7823 24.4598 33.5763 24.8808 34.3373 25.4038C34.7623 25.6948 35.3013 25.8178 35.8353 26.0358C37.4233 25.4438 39.0353 24.8308 40.7423 24.5448C41.8283 24.3628 42.9043 24.1238 44.0143 24.0938C45.0193 24.0668 46.0193 24.0758 47.0343 23.9478C48.0003 23.8268 49.0343 24.0818 50.0153 24.2868C52.7863 24.8678 55.3793 25.9738 57.7163 27.5238C59.1843 28.4968 60.5013 29.7448 61.6863 31.0898C62.0133 31.4588 62.0653 31.8428 61.9313 32.3068C61.3793 32.6038 60.7893 32.4618 60.2253 32.4558C48.8543 32.3448 37.4843 32.2198 26.1143 32.1148C25.6633 32.1108 25.1473 31.8648 24.7523 32.3128C16.5423 32.2278 8.3313 32.1428 0.121296 32.0578" fill="#26B6E3"/></g></g></g><g id="Decoration" transform="translate(167.937 55.4314) scale(1 1)"><g id="Decoration/Circle 1"><path id="Fill 37" fill-rule="evenodd" clip-rule="evenodd" d="M8.05366 7.44123C10.5327 5.30123 14.2767 5.57623 16.4157 8.05423C18.5557 10.5322 18.2817 14.2762 15.8027 16.4162C13.3247 18.5552 9.58066 18.2812 7.44166 15.8022C5.30166 13.3252 5.57566 9.58123 8.05366 7.44123" fill="#F28DFD"/></g></g><g id="Decoration" transform="translate(68 86) scale(1 1)"><g id="Decoration/Flower 1"><path id="Fill 14" fill-rule="evenodd" clip-rule="evenodd" d="M16.2878 11.7531C17.7658 10.1461 16.9498 8.63905 15.3438 7.84705C15.0918 7.89805 14.7948 7.95605 14.5098 8.01205C14.2278 7.87305 13.9608 7.74105 13.7018 7.61305C12.5578 5.13005 10.1558 5.79005 9.23378 7.72705C8.40678 8.12805 7.27178 7.70705 6.56178 8.57705C6.14178 9.08505 5.97878 9.66705 6.06078 10.3441C6.13678 10.9721 6.64578 11.4151 6.70778 12.0551C6.65178 12.3811 6.42878 12.6461 6.27078 12.9401C5.43678 14.4961 6.64578 16.3421 8.30878 16.0941C8.42778 16.0761 8.54678 16.0611 8.58278 16.0561C9.48778 16.3061 9.79578 17.0431 10.2378 17.6831C10.5948 17.8031 10.9798 17.9001 11.2748 18.1441C11.8828 17.9801 12.4408 17.8281 12.9628 17.6871C13.4568 17.2631 13.3888 16.5711 13.8738 16.1091C14.2468 16.1081 14.6658 16.1121 15.0858 16.1051C16.2228 16.0811 16.8088 15.5091 16.8938 14.3781C16.9418 13.7341 16.9768 13.1171 16.5228 12.5611C16.3658 12.3671 16.3668 12.0451 16.2878 11.7531" fill="#4DDEFF"/></g></g><g id="Decoration" transform="translate(192 87) scale(1 1)"><g id="Decoration/Flower 2"><path id="Fill 7" fill-rule="evenodd" clip-rule="evenodd" d="M15.4708 12.1788C16.5438 11.0108 15.9518 9.91677 14.7848 9.34177C14.6018 9.37777 14.3858 9.42077 14.1798 9.46177C13.9748 9.36077 13.7808 9.26477 13.5928 9.17177C12.7618 7.36777 11.0178 7.84777 10.3488 9.25477C9.74683 9.54577 8.92383 9.24077 8.40883 9.87177C8.10283 10.2418 7.98483 10.6628 8.04383 11.1558C8.09883 11.6108 8.46883 11.9338 8.51383 12.3978C8.47383 12.6348 8.31083 12.8258 8.19683 13.0398C7.59083 14.1708 8.46883 15.5118 9.67583 15.3308C9.76183 15.3178 9.84883 15.3068 9.87483 15.3038C10.5338 15.4848 10.7558 16.0208 11.0768 16.4848C11.3358 16.5718 11.6168 16.6428 11.8298 16.8198C12.2718 16.6998 12.6768 16.5898 13.0558 16.4878C13.4148 16.1798 13.3658 15.6768 13.7178 15.3428C13.9888 15.3418 14.2928 15.3448 14.5978 15.3378C15.4228 15.3218 15.8498 14.9068 15.9108 14.0848C15.9468 13.6168 15.9718 13.1688 15.6418 12.7648C15.5278 12.6248 15.5288 12.3908 15.4708 12.1788" fill="#F28DFD"/></g></g><g id="Decoration" transform="translate(228 95) scale(1 1)"><g id="Decoration/Zig Zag 3"><path id="Stroke 20" d="M3.88855 9.18531C4.10944 8.97154 4.44385 8.94202 4.69614 9.10039L4.78651 9.16859L9.66627 13.5509L14.2454 9.42057C14.4645 9.22289 14.784 9.19768 15.0288 9.34687L15.1168 9.411L20.1903 13.7899L24.1649 9.693C24.3928 9.45807 24.7532 9.42944 25.0133 9.61066L25.096 9.67885C25.3309 9.90675 25.3596 10.2672 25.1783 10.5273L25.1102 10.61L20.7032 15.153C20.4873 15.3756 20.1504 15.4141 19.8928 15.2599L19.8002 15.193L14.6953 10.7879L10.1086 14.9264C9.88621 15.1271 9.56107 15.1497 9.3155 14.9941L9.22749 14.9274L4.36327 10.5579L0.116447 14.6687C-0.118754 14.8963 -0.479949 14.9135 -0.734213 14.7242L-0.814688 14.6534C-1.04231 14.4182 -1.05955 14.0571 -0.870206 13.8028L-0.799446 13.7223L3.88855 9.18531Z" fill="#26B6E3"/></g></g><g id="Decoration" transform="translate(114 201) scale(1 1)"><g id="Decoration/Zig Zag 1"><path id="Stroke 35" d="M18.8131 9.26692C19.1766 8.92969 19.7261 8.91313 20.1076 9.21087L20.1993 9.29185L24.7061 13.7852C25.0972 14.1752 25.0981 14.8084 24.7082 15.1995C24.3482 15.5605 23.781 15.589 23.3883 15.2846L23.2939 15.2016L19.468 11.387L15.0655 15.472C14.7137 15.7985 14.1857 15.8255 13.8047 15.5532L13.7047 15.4715L9.545 11.606L4.90108 15.7465C4.52777 16.0792 3.97257 16.0817 3.59734 15.7699L3.50749 15.6854L-0.728211 11.1847C-1.10672 10.7826 -1.08753 10.1497 -0.685347 9.77117C-0.314103 9.42178 0.253708 9.41125 0.636574 9.72803L0.728217 9.81403L4.296 13.606L8.89423 9.50833C9.24725 9.19369 9.76658 9.17254 10.1418 9.44169L10.2403 9.52228L14.385 13.374L18.8131 9.26692Z" fill="#FF67FF"/></g></g><g id="Decoration" transform="translate(145 160) scale(1 1)"><g id="Decoration/Flower 1"><path id="Fill 14" fill-rule="evenodd" clip-rule="evenodd" d="M16.2878 11.7531C17.7658 10.1461 16.9498 8.63905 15.3438 7.84705C15.0918 7.89805 14.7948 7.95605 14.5098 8.01205C14.2278 7.87305 13.9608 7.74105 13.7018 7.61305C12.5578 5.13005 10.1558 5.79005 9.23378 7.72705C8.40678 8.12805 7.27178 7.70705 6.56178 8.57705C6.14178 9.08505 5.97878 9.66705 6.06078 10.3441C6.13678 10.9721 6.64578 11.4151 6.70778 12.0551C6.65178 12.3811 6.42878 12.6461 6.27078 12.9401C5.43678 14.4961 6.64578 16.3421 8.30878 16.0941C8.42778 16.0761 8.54678 16.0611 8.58278 16.0561C9.48778 16.3061 9.79578 17.0431 10.2378 17.6831C10.5948 17.8031 10.9798 17.9001 11.2748 18.1441C11.8828 17.9801 12.4408 17.8281 12.9628 17.6871C13.4568 17.2631 13.3888 16.5711 13.8738 16.1091C14.2468 16.1081 14.6658 16.1121 15.0858 16.1051C16.2228 16.0811 16.8088 15.5091 16.8938 14.3781C16.9418 13.7341 16.9768 13.1171 16.5228 12.5611C16.3658 12.3671 16.3668 12.0451 16.2878 11.7531" fill="#4DDEFF"/></g></g><g id="Decoration" transform="translate(120 166) scale(1 1)"><g id="Decoration/Sparkle 5"><path id="Sparkle 1" fill-rule="evenodd" clip-rule="evenodd" d="M13.999 12.4657C14.0094 12.6604 13.9348 12.7558 13.8252 12.8303C13.6691 12.9375 13.5246 13.0994 13.3524 13.1361C12.5624 13.3042 12.3157 13.9475 12.003 14.5456C11.7046 15.1161 11.2938 15.168 11.011 14.5953C10.6346 13.8335 10.1589 13.2698 9.33388 12.9454C8.88463 12.7693 8.88865 12.2169 9.3465 12.0397C10.1761 11.7187 10.6604 11.1685 11.0207 10.3887C11.2737 9.84022 11.7356 9.88705 11.9903 10.4355C12.2881 11.0771 12.5888 11.6701 13.3708 11.88C13.6565 11.9568 13.9336 12.1729 13.999 12.4657" fill="#FED21C"/></g></g><g id="Decoration" transform="translate(156 108) scale(1 1)"><g id="Decoration/Sparkle 1"><path id="Sparkle 1" fill-rule="evenodd" clip-rule="evenodd" d="M15.9983 12.4383C16.0169 12.7887 15.8826 12.9604 15.6854 13.0945C15.4045 13.2874 15.1442 13.5789 14.8344 13.645C13.4123 13.9476 12.9682 15.1055 12.4053 16.1821C11.8683 17.209 11.1289 17.3024 10.6197 16.2715C9.94223 14.9003 9.08608 13.8857 7.60098 13.3017C6.79234 12.9848 6.79957 11.9904 7.6237 11.6715C9.11706 11.0936 9.9887 10.1033 10.6373 8.69963C11.0927 7.71239 11.9241 7.79669 12.3826 8.78393C12.9186 9.93875 13.4598 11.0062 14.8674 11.3841C15.3817 11.5222 15.8805 11.9112 15.9983 12.4383" fill="#FED21C"/></g></g><g id="Decoration" transform="translate(118 99) scale(1 1)"><g id="Decoration/Sparkle 5"><path id="Sparkle 1" fill-rule="evenodd" clip-rule="evenodd" d="M13.999 12.4657C14.0094 12.6604 13.9348 12.7558 13.8252 12.8303C13.6691 12.9375 13.5246 13.0994 13.3524 13.1361C12.5624 13.3042 12.3157 13.9475 12.003 14.5456C11.7046 15.1161 11.2938 15.168 11.011 14.5953C10.6346 13.8335 10.1589 13.2698 9.33388 12.9454C8.88463 12.7693 8.88865 12.2169 9.3465 12.0397C10.1761 11.7187 10.6604 11.1685 11.0207 10.3887C11.2737 9.84022 11.7356 9.88705 11.9903 10.4355C12.2881 11.0771 12.5888 11.6701 13.3708 11.88C13.6565 11.9568 13.9336 12.1729 13.999 12.4657" fill="#FED21C"/></g></g></g></svg>